0
SECTION
2
HEADER
9
$INSUNITS
70
4
9
$ACADVER
1
AC1014
9
$HANDSEED
5
FFFF
0
ENDSEC
0
SECTION
2
TABLES
0
TABLE
2
VPORT
5
8
100
AcDbSymbolTable
0
ENDTAB
0
TABLE
2
LTYPE
5
5
100
AcDbSymbolTable
0
LTYPE
5
14
100
AcDbSymbolTableRecord
100
AcDbLinetypeTableRecord
2
BYBLOCK
70
0
0
LTYPE
5
15
100
AcDbSymbolTableRecord
100
AcDbLinetypeTableRecord
2
BYLAYER
70
0
0
ENDTAB
0
TABLE
2
LAYER
5
2
100
AcDbSymbolTable
70
2
0
LAYER
5
50
100
AcDbSymbolTableRecord
100
AcDbLayerTableRecord
2
0
70
0
6
CONTINUOUS
0
ENDTAB
0
TABLE
2
STYLE
5
3
100
AcDbSymbolTable
70
1
0
STYLE
5
11
100
AcDbSymbolTableRecord
100
AcDbTextStyleTableRecord
2
STANDARD
70
0
0
ENDTAB
0
TABLE
2
VIEW
5
6
100
AcDbSymbolTable
70
0
0
ENDTAB
0
TABLE
2
UCS
5
7
100
AcDbSymbolTable
70
0
0
ENDTAB
0
TABLE
2
APPID
5
9
100
AcDbSymbolTable
70
2
0
APPID
5
12
100
AcDbSymbolTableRecord
100
AcDbRegAppTableRecord
2
ACAD
70
0
0
ENDTAB
0
TABLE
2
DIMSTYLE
5
A
100
AcDbSymbolTable
70
1
0
ENDTAB
0
TABLE
2
BLOCK_RECORD
5
1
100
AcDbSymbolTable
70
1
0
BLOCK_RECORD
5
1F
100
AcDbSymbolTableRecord
100
AcDbBlockTableRecord
2
*MODEL_SPACE
0
BLOCK_RECORD
5
1B
100
AcDbSymbolTableRecord
100
AcDbBlockTableRecord
2
*PAPER_SPACE
0
ENDTAB
0
ENDSEC
0
SECTION
2
BLOCKS
0
BLOCK
5
20
100
AcDbEntity
100
AcDbBlockBegin
2
*MODEL_SPACE
0
ENDBLK
5
21
100
AcDbEntity
100
AcDbBlockEnd
0
BLOCK
5
1C
100
AcDbEntity
100
AcDbBlockBegin
2
*PAPER_SPACE
0
ENDBLK
5
1D
100
AcDbEntity
100
AcDbBlockEnd
0
ENDSEC
0
SECTION
2
ENTITIES
0
CIRCLE
5
100
100
AcDbEntity
8
0
100
AcDbCircle
10
10.359999999984471
20
-52.660000000015366
30
0
40
0.74999999999999956
210
0
220
-0
230
1
0
CIRCLE
5
101
100
AcDbEntity
8
0
100
AcDbCircle
10
10.359999999984471
20
-72.34000000001538
30
0
40
0.74999999999999956
210
0
220
-0
230
1
0
CIRCLE
5
102
100
AcDbEntity
8
0
100
AcDbCircle
10
-35.360000000015518
20
-92.660000000015373
30
0
40
0.75000000000000178
210
0
220
-0
230
1
0
CIRCLE
5
103
100
AcDbEntity
8
0
100
AcDbCircle
10
10.359999999984471
20
-32.340000000015372
30
0
40
0.74999999999999956
210
0
220
-0
230
1
0
CIRCLE
5
104
100
AcDbEntity
8
0
100
AcDbCircle
10
80.754999999992165
20
75.524999999983592
30
0
40
0.60000000000000497
210
0
220
-0
230
1
0
CIRCLE
5
105
100
AcDbEntity
8
0
100
AcDbCircle
10
80.754999999992123
20
94.574999999983618
30
0
40
0.60000000000000497
210
0
220
-0
230
1
0
CIRCLE
5
106
100
AcDbEntity
8
0
100
AcDbCircle
10
72.499999999991914
20
62.028699999984298
30
0
40
1.25
210
0
220
-0
230
1
0
CIRCLE
5
107
100
AcDbEntity
8
0
100
AcDbCircle
10
-13.500000000015579
20
32.999999999992582
30
0
40
0.75000000000000178
210
0
220
-0
230
1
0
CIRCLE
5
108
100
AcDbEntity
8
0
100
AcDbCircle
10
-71.500000000015575
20
81.999999999992582
30
0
40
0.75000000000000178
210
0
220
-0
230
1
0
CIRCLE
5
109
100
AcDbEntity
8
0
100
AcDbCircle
10
-71.500000000015575
20
32.999999999992582
30
0
40
0.75000000000000178
210
0
220
-0
230
1
0
CIRCLE
5
110
100
AcDbEntity
8
0
100
AcDbCircle
10
-13.500000000015579
20
81.999999999992582
30
0
40
0.75000000000000178
210
0
220
-0
230
1
0
CIRCLE
5
111
100
AcDbEntity
8
0
100
AcDbCircle
10
72.499999999992411
20
-91.158700000015713
30
0
40
1.25
210
0
220
-0
230
1
0
CIRCLE
5
112
100
AcDbEntity
8
0
100
AcDbCircle
10
64.244999999992203
20
75.524999999983578
30
0
40
0.59999999999999609
210
0
220
-0
230
1
0
CIRCLE
5
113
100
AcDbEntity
8
0
100
AcDbCircle
10
64.244999999992203
20
94.574999999983618
30
0
40
0.59999999999999609
210
0
220
-0
230
1
0
CIRCLE
5
114
100
AcDbEntity
8
0
100
AcDbCircle
10
-35.360000000015518
20
-52.660000000015366
30
0
40
0.75000000000000178
210
0
220
-0
230
1
0
CIRCLE
5
115
100
AcDbEntity
8
0
100
AcDbCircle
10
10.359999999984471
20
-92.660000000015373
30
0
40
0.74999999999999956
210
0
220
-0
230
1
0
CIRCLE
5
116
100
AcDbEntity
8
0
100
AcDbCircle
10
-35.360000000015518
20
-72.34000000001538
30
0
40
0.75000000000000178
210
0
220
-0
230
1
0
CIRCLE
5
117
100
AcDbEntity
8
0
100
AcDbCircle
10
-35.360000000015518
20
-32.340000000015372
30
0
40
0.75000000000000178
210
0
220
-0
230
1
0
CIRCLE
5
118
100
AcDbEntity
8
0
100
AcDbCircle
10
-112.50000000000003
20
-112.49999999999997
30
0
40
2.5399999999999956
210
0
220
-0
230
1
0
CIRCLE
5
119
100
AcDbEntity
8
0
100
AcDbCircle
10
-97.499999999999886
20
97.499999999999986
30
0
40
0.74999999999999289
210
0
220
-0
230
1
0
CIRCLE
5
120
100
AcDbEntity
8
0
100
AcDbCircle
10
-112.49999999999994
20
112.49999999999994
30
0
40
2.5399999999999956
210
0
220
-0
230
1
0
CIRCLE
5
121
100
AcDbEntity
8
0
100
AcDbCircle
10
-97.500000000015504
20
-97.499999999980645
30
0
40
0.74999999999999289
210
0
220
-0
230
1
0
CIRCLE
5
122
100
AcDbEntity
8
0
100
AcDbCircle
10
97.499999999999986
20
97.499999999999915
30
0
40
0.74999999999999289
210
0
220
-0
230
1
0
CIRCLE
5
123
100
AcDbEntity
8
0
100
AcDbCircle
10
112.50000000000006
20
112.5
30
0
40
2.5400000000000134
210
0
220
-0
230
1
0
CIRCLE
5
124
100
AcDbEntity
8
0
100
AcDbCircle
10
97.499999999992255
20
-97.500000000006736
30
0
40
0.74999999999999289
210
0
220
-0
230
1
0
CIRCLE
5
125
100
AcDbEntity
8
0
100
AcDbCircle
10
112.5
20
-112.5
30
0
40
2.5399999999999956
210
0
220
-0
230
1
0
CIRCLE
5
126
100
AcDbEntity
8
0
100
AcDbCircle
10
0
20
0
30
0
40
0.74999999999999289
210
0
220
-0
230
1
0
LWPOLYLINE
5
127
100
AcDbEntity
8
0
100
AcDbPolyline
90
24
70
1
43
0.0
10
-94.822330470363255
20
112.50000000000011
10
94.822330470363369
20
112.5
10
107.322330470365
20
124.99999999999997
10
117.67766952966417
20
124.99999999999898
10
124.99999999999999
20
117.67766952966409
10
124.99999999999245
20
107.32233047035916
10
112.49999999999224
20
94.822330470357315
10
112.49999999999224
20
-94.822330470357315
10
124.99999999999245
20
-107.32233047035916
10
124.99999999999999
20
-117.67766952966409
10
117.6776695296642
20
-124.99999999999898
10
107.322330470365
20
-124.99999999999997
10
94.822330470363369
20
-112.5
10
-94.822330470363397
20
-112.49999999999994
10
-107.32233047036505
20
-124.99999999999989
10
-117.67766952966424
20
-124.99999999999889
10
-125.00000000000003
20
-117.677669529664
10
-124.99999999999247
20
-107.32233047035908
10
-112.4999999999923
20
-94.82233047035723
10
-112.49999999999218
20
94.822330470357372
10
-124.99999999999233
20
107.32233047035922
10
-124.99999999999989
20
117.67766952966414
10
-117.67766952966409
20
124.99999999999903
10
-107.32233047036489
20
125.00000000000003
0
ENDSEC
0
SECTION
2
OBJECTS
0
DICTIONARY
5
C
100
AcDbDictionary
3
ACAD_GROUP
350
D
3
ACAD_MLINESTYLE
350
17
0
DICTIONARY
5
D
100
AcDbDictionary
0
DICTIONARY
5
1A
330
C
100
AcDbDictionary
0
DICTIONARY
5
17
100
AcDbDictionary
0
ENDSEC
0
EOF
