0
SECTION
2
HEADER
9
$INSUNITS
70
4
9
$ACADVER
1
AC1014
9
$HANDSEED
5
FFFF
0
ENDSEC
0
SECTION
2
TABLES
0
TABLE
2
VPORT
5
8
100
AcDbSymbolTable
0
ENDTAB
0
TABLE
2
LTYPE
5
5
100
AcDbSymbolTable
0
LTYPE
5
14
100
AcDbSymbolTableRecord
100
AcDbLinetypeTableRecord
2
BYBLOCK
70
0
0
LTYPE
5
15
100
AcDbSymbolTableRecord
100
AcDbLinetypeTableRecord
2
BYLAYER
70
0
0
ENDTAB
0
TABLE
2
LAYER
5
2
100
AcDbSymbolTable
70
2
0
LAYER
5
50
100
AcDbSymbolTableRecord
100
AcDbLayerTableRecord
2
0
70
0
6
CONTINUOUS
0
ENDTAB
0
TABLE
2
STYLE
5
3
100
AcDbSymbolTable
70
1
0
STYLE
5
11
100
AcDbSymbolTableRecord
100
AcDbTextStyleTableRecord
2
STANDARD
70
0
0
ENDTAB
0
TABLE
2
VIEW
5
6
100
AcDbSymbolTable
70
0
0
ENDTAB
0
TABLE
2
UCS
5
7
100
AcDbSymbolTable
70
0
0
ENDTAB
0
TABLE
2
APPID
5
9
100
AcDbSymbolTable
70
2
0
APPID
5
12
100
AcDbSymbolTableRecord
100
AcDbRegAppTableRecord
2
ACAD
70
0
0
ENDTAB
0
TABLE
2
DIMSTYLE
5
A
100
AcDbSymbolTable
70
1
0
ENDTAB
0
TABLE
2
BLOCK_RECORD
5
1
100
AcDbSymbolTable
70
1
0
BLOCK_RECORD
5
1F
100
AcDbSymbolTableRecord
100
AcDbBlockTableRecord
2
*MODEL_SPACE
0
BLOCK_RECORD
5
1B
100
AcDbSymbolTableRecord
100
AcDbBlockTableRecord
2
*PAPER_SPACE
0
ENDTAB
0
ENDSEC
0
SECTION
2
BLOCKS
0
BLOCK
5
20
100
AcDbEntity
100
AcDbBlockBegin
2
*MODEL_SPACE
0
ENDBLK
5
21
100
AcDbEntity
100
AcDbBlockEnd
0
BLOCK
5
1C
100
AcDbEntity
100
AcDbBlockBegin
2
*PAPER_SPACE
0
ENDBLK
5
1D
100
AcDbEntity
100
AcDbBlockEnd
0
ENDSEC
0
SECTION
2
ENTITIES
0
CIRCLE
5
100
100
AcDbEntity
8
0
100
AcDbCircle
10
-112.6237758128506
20
-113.91522061060908
30
0
40
1.5499999999999934
210
0
220
0
230
1
0
LWPOLYLINE
5
101
100
AcDbEntity
8
0
100
AcDbPolyline
90
4
70
1
43
0.0
10
-54.123775812850567
20
-97.015220609789083
10
-62.623775812850567
20
-97.015220609789111
10
-62.623775812850567
20
-108.01522060978911
10
-54.123775812850567
20
-108.01522060978911
0
CIRCLE
5
102
100
AcDbEntity
8
0
100
AcDbCircle
10
-54.623775812850575
20
-64.915220609789074
30
0
40
1.5500000000000025
210
0
220
0
230
1
0
LWPOLYLINE
5
103
100
AcDbEntity
8
0
100
AcDbPolyline
90
4
70
1
43
0.0
10
-94.073775812850585
20
-108.96522060978913
10
-68.173775812850579
20
-108.9652206097891
10
-68.173775812850593
20
-81.865220609789091
10
-94.073775812850613
20
-81.865220609789134
0
CIRCLE
5
104
100
AcDbEntity
8
0
100
AcDbCircle
10
-54.623775812850575
20
-113.91522061060908
30
0
40
1.5500000000000025
210
0
220
0
230
1
0
CIRCLE
5
105
100
AcDbEntity
8
0
100
AcDbCircle
10
-112.6237758128506
20
-64.915220609789088
30
0
40
1.5499999999999934
210
0
220
0
230
1
0
LWPOLYLINE
5
106
100
AcDbEntity
8
0
100
AcDbPolyline
90
4
70
1
43
0.0
10
-109.2237758128506
20
-72.415220609789102
10
-74.223775812850576
20
-72.415220609789102
10
-74.223775812850576
20
-63.915220609789102
10
-109.2237758128506
20
-63.915220609789117
0
LWPOLYLINE
5
107
100
AcDbEntity
8
0
100
AcDbPolyline
90
4
70
1
43
0.0
10
-60.373775812850553
20
-68.16522060978906
10
-60.373775812850553
20
-79.165220609789074
10
-51.873775812850553
20
-79.165220609789074
10
-51.873775812850553
20
-68.16522060978906
0
LWPOLYLINE
5
108
100
AcDbEntity
8
0
100
AcDbPolyline
90
4
70
1
43
0.0
10
-69.973775812850604
20
-80.465220609789128
10
-61.473775812850604
20
-80.465220609789128
10
-61.473775812850597
20
-66.965220609789085
10
-69.973775812850576
20
-66.965220609789085
0
LWPOLYLINE
5
109
100
AcDbEntity
8
0
100
AcDbPolyline
90
4
70
1
43
0.0
10
-104.87377581285054
20
-76.665220609789216
10
-113.37377581285055
20
-76.665220609789216
10
-113.37377581285052
20
-100.16522060978926
10
-104.87377581285054
20
-100.16522060978926
0
CIRCLE
5
110
100
AcDbEntity
8
0
100
AcDbCircle
10
-106.12377581285058
20
-105.41522060978909
30
0
40
1.5000000000000036
210
0
220
0
230
1
0
LWPOLYLINE
5
111
100
AcDbEntity
8
0
100
AcDbPolyline
90
4
70
1
43
0.0
10
-47.473775812850576
20
-125.71522060907813
10
-119.77377581285057
20
-125.71522060907813
10
-119.77377581285057
20
-153.11522060907816
10
-47.473775812850576
20
-153.11522060907816
0
CIRCLE
5
112
100
AcDbEntity
8
0
100
AcDbCircle
10
-46.12377581285056
20
-123.91522060907815
30
0
40
1.1000000000000032
210
0
220
0
230
1
0
CIRCLE
5
113
100
AcDbEntity
8
0
100
AcDbCircle
10
-121.12377581285058
20
-154.91522060907815
30
0
40
1.0999999999999943
210
0
220
0
230
1
0
CIRCLE
5
114
100
AcDbEntity
8
0
100
AcDbCircle
10
-46.12377581285056
20
-154.91522060907815
30
0
40
1.1000000000000032
210
0
220
0
230
1
0
CIRCLE
5
115
100
AcDbEntity
8
0
100
AcDbCircle
10
-121.12377581285058
20
-123.91522060907815
30
0
40
1.0999999999999943
210
0
220
0
230
1
0
CIRCLE
5
116
100
AcDbEntity
8
0
100
AcDbCircle
10
-129.12377581152558
20
-174.73811471793908
30
0
40
1.5499999999999934
210
0
220
-0
230
1
0
CIRCLE
5
117
100
AcDbEntity
8
0
100
AcDbCircle
10
-38.123775814175566
20
-42.738114723039118
30
0
40
1.5500000000000025
210
0
220
-0
230
1
0
CIRCLE
5
118
100
AcDbEntity
8
0
100
AcDbCircle
10
-129.12377581152558
20
-42.738114723039118
30
0
40
1.5499999999999934
210
0
220
-0
230
1
0
CIRCLE
5
119
100
AcDbEntity
8
0
100
AcDbCircle
10
-38.123775814175566
20
-174.73811471793908
30
0
40
1.5500000000000025
210
0
220
-0
230
1
0
LINE
5
120
100
AcDbEntity
8
0
100
AcDbLine
10
-38.123775813700682
20
-179.91522060987822
30
0
11
-29.197595105960641
21
-179.91522061277493
31
0
0
SPLINE
5
121
100
AcDbEntity
8
0
100
AcDbSpline
70
0
71
3
72
20
73
16
74
0
42
0.000000001
43
0.0000000001
44
0.0000000001
40
0.017841075674044356
40
0.017841075674044356
40
0.017841075674044356
40
0.017841075674044356
40
0.21469783291471151
40
0.21469783291471151
40
0.21469783291471151
40
0.42939607082372178
40
0.42939607082372178
40
0.42939607082372178
40
0.64408529733193676
40
0.64408529733193676
40
0.64408529733193676
40
0.8587707102974822
40
0.8587707102974822
40
0.8587707102974822
40
0.98797863115701212
40
0.98797863115701212
40
0.98797863115701212
40
0.98797863115701212
10
-29.197595105960644
20
-179.91522061277493
30
0
10
-28.938149046785476
20
-179.88933121350539
30
0
10
-28.771020909802274
20
-179.8603021976916
30
0
10
-28.698265133769954
20
-179.83682074482928
30
0
10
-28.61891537138035
20
-179.81121112581627
30
0
10
-28.504724420374941
20
-179.7515574635419
30
0
10
-28.395787667835123
20
-179.66326836139359
30
0
10
-28.286855487632568
20
-179.57498296495103
30
0
10
-28.194781999771152
20
-179.47137918937432
30
0
10
-28.121227001502938
20
-179.35513982989815
30
0
10
-28.047673309798302
20
-179.23890253519136
30
0
10
-28.000375440671728
20
-179.11769895940569
30
0
10
-27.981742995563224
20
-179.02629119317285
30
0
10
-27.970529101429737
20
-178.97127763979626
30
0
10
-27.958015071006685
20
-178.8586453460984
30
0
10
-27.946669919908857
20
-178.68869721627277
30
0
0
LINE
5
122
100
AcDbEntity
8
0
100
AcDbLine
10
-27.946669919908857
20
-178.68869721627277
30
0
11
-27.946669919908889
21
-38.81193401555926
31
0
0
SPLINE
5
123
100
AcDbEntity
8
0
100
AcDbSpline
70
0
71
3
72
20
73
16
74
0
42
0.000000001
43
0.0000000001
44
0.0000000001
40
0.017841075610955662
40
0.017841075610955662
40
0.017841075610955662
40
0.017841075610955662
40
0.2146978329136538
40
0.2146978329136538
40
0.2146978329136538
40
0.42939607081320108
40
0.42939607081320108
40
0.42939607081320108
40
0.64408529731610498
40
0.64408529731610498
40
0.64408529731610498
40
0.85877071028117091
40
0.85877071028117091
40
0.85877071028117091
40
0.98797863113268558
40
0.98797863113268558
40
0.98797863113268558
40
0.98797863113268558
10
-27.946669919908892
20
-38.81193401555926
30
0
10
-27.972559319185493
20
-38.552487956248015
30
0
10
-28.001588335003987
20
-38.385359819198399
30
0
10
-28.025069787863991
20
-38.312604043177089
30
0
10
-28.050679406865342
20
-38.233254280827957
30
0
10
-28.110333069137067
20
-38.11906332982241
30
0
10
-28.198622171309815
20
-38.010126577248464
30
0
10
-28.28690756777856
20
-37.901194397009604
30
0
10
-28.390511343358511
20
-37.80912090913754
30
0
10
-28.506750702822835
20
-37.735565910865112
30
0
10
-28.62298799752034
20
-37.662012219154597
30
0
10
-28.744191573275316
20
-37.614714350039741
30
0
10
-28.835599339425173
20
-37.596081904948356
30
0
10
-28.890612892748486
20
-37.584868010825872
30
0
10
-29.003245186402204
20
-37.57235398040865
30
0
10
-29.173193316192361
20
-37.561008829324393
30
0
0
LINE
5
124
100
AcDbEntity
8
0
100
AcDbLine
10
-29.173193316192357
20
-37.561008829324393
30
0
11
-38.123775814175573
21
-37.561008830304381
31
0
0
ARC
5
125
100
AcDbEntity
8
0
100
AcDbCircle
10
-38.123775814175573
20
-29.238114722839128
30
0
40
8.3228941074652507
210
0
220
0
230
1
100
AcDbArc
50
180
51
270
0
ARC
5
126
100
AcDbEntity
8
0
100
AcDbCircle
10
-47.623775813375588
20
-29.238114722839125
30
0
40
1.1771058917347599
210
-0
220
0
230
1
100
AcDbArc
50
0
51
89.999999999914579
0
LINE
5
127
100
AcDbEntity
8
0
100
AcDbLine
10
-47.623775813373832
20
-28.061008831104367
30
0
11
-119.62377581232558
21
-28.061008831189103
31
0
0
ARC
5
128
100
AcDbEntity
8
0
100
AcDbCircle
10
-119.62377581232558
20
-29.238114722839125
30
0
40
1.1771058916500232
210
0
220
-0
230
1
100
AcDbArc
50
90
51
180
0
ARC
5
129
100
AcDbEntity
8
0
100
AcDbCircle
10
-129.12377581152555
20
-29.238114722839143
30
0
40
8.3228941082537879
210
0
220
0
230
1
100
AcDbArc
50
269.99999999795949
51
360
0
LINE
5
130
100
AcDbEntity
8
0
100
AcDbLine
10
-129.12377581182196
20
-37.561008831092934
30
0
11
-138.04995651723027
21
-37.561008829329197
31
0
0
SPLINE
5
131
100
AcDbEntity
8
0
100
AcDbSpline
70
0
71
3
72
20
73
16
74
0
42
0.000000001
43
0.0000000001
44
0.0000000001
40
0.017841075646117657
40
0.017841075646117657
40
0.017841075646117657
40
0.017841075646117657
40
0.2146978329283169
40
0.2146978329283169
40
0.2146978329283169
40
0.42939607083923043
40
0.42939607083923043
40
0.42939607083923043
40
0.64408529733019138
40
0.64408529733019138
40
0.64408529733019138
40
0.85877071030352148
40
0.85877071030352148
40
0.85877071030352148
40
0.98797863114328199
40
0.98797863114328199
40
0.98797863114328199
40
0.98797863114328199
10
-138.04995651723027
20
-37.561008829329197
30
0
10
-138.30940257648646
20
-37.586898228599857
30
0
10
-138.47653071349859
20
-37.615927244418224
30
0
10
-138.54928648949868
20
-37.639408697273247
30
0
10
-138.62863625183704
20
-37.665018316273169
30
0
10
-138.74282720285461
20
-37.724671978553552
30
0
10
-138.85176395545989
20
-37.812961080757319
30
0
10
-138.96069613571822
20
-37.901246477247447
30
0
10
-139.05276962357135
20
-38.00485025281764
30
0
10
-139.1263246217913
20
-38.121089612213609
30
0
10
-139.19987831345628
20
-38.237326906853724
30
0
10
-139.24717618259399
20
-38.358530482648156
30
0
10
-139.26580862772218
20
-38.449938248972074
30
0
10
-139.27702252186538
20
-38.504951802393123
30
0
10
-139.28953655229333
20
-38.617584096092486
30
0
10
-139.30088170340144
20
-38.787532225881328
30
0
0
LINE
5
132
100
AcDbEntity
8
0
100
AcDbLine
10
-139.30088170340144
20
-38.787532225881321
30
0
11
-139.3008817034015
21
-178.66429542646162
31
0
0
SPLINE
5
133
100
AcDbEntity
8
0
100
AcDbSpline
70
0
71
3
72
20
73
16
74
0
42
0.000000001
43
0.0000000001
44
0.0000000001
40
0.017841075617390519
40
0.017841075617390519
40
0.017841075617390519
40
0.017841075617390519
40
0.21469783292127859
40
0.21469783292127859
40
0.21469783292127859
40
0.42939607081980491
40
0.42939607081980491
40
0.42939607081980491
40
0.64408529731324926
40
0.64408529731324926
40
0.64408529731324926
40
0.85877071029135577
40
0.85877071029135577
40
0.85877071029135577
40
0.98797863110020645
40
0.98797863110020645
40
0.98797863110020645
40
0.98797863110020645
10
-139.3008817034015
20
-178.66429542646162
30
0
10
-139.27499230411445
20
-178.92374148577613
30
0
10
-139.24596328828807
20
-179.09086962283499
30
0
10
-139.22248183542087
20
-179.16362539886927
30
0
10
-139.19687221641195
20
-179.24297516123173
30
0
10
-139.13721855412857
20
-179.35716611225249
30
0
10
-139.0489294519333
20
-179.46610286485333
30
0
10
-138.96064405544539
20
-179.57503504511493
30
0
10
-138.8570402798693
20
-179.66710853298051
30
0
10
-138.74080092044946
20
-179.7406635312224
30
0
10
-138.6245636257843
20
-179.81421722291
30
0
10
-138.50336005000406
20
-179.8615150920381
30
0
10
-138.41195228376066
20
-179.88014753714742
30
0
10
-138.35693873040267
20
-179.89136143127635
30
0
10
-138.24430643677286
20
-179.90387546169467
30
0
10
-138.07435830706109
20
-179.91522061278283
30
0
0
LINE
5
134
100
AcDbEntity
8
0
100
AcDbLine
10
-138.07435830706106
20
-179.91522061278283
30
0
11
-129.12377581152558
21
-179.91522060987816
31
0
0
ARC
5
135
100
AcDbEntity
8
0
100
AcDbCircle
10
-129.12377581152558
20
-188.23811471813909
30
0
40
8.3228941082609076
210
0
220
0
230
1
100
AcDbArc
50
0
51
90
0
ARC
5
136
100
AcDbEntity
8
0
100
AcDbCircle
10
-119.62377581232558
20
-188.23811471813909
30
0
40
1.1771058909390852
210
0
220
0
230
1
100
AcDbArc
50
180
51
270
0
LINE
5
137
100
AcDbEntity
8
0
100
AcDbLine
10
-119.62377581232558
20
-189.41522060907815
30
0
11
-47.623775813375588
21
-189.41522060978912
31
0
0
ARC
5
138
100
AcDbEntity
8
0
100
AcDbCircle
10
-47.623775813375588
20
-188.23811471813909
30
0
40
1.1771058916500365
210
-0
220
0
230
1
100
AcDbArc
50
-90
51
0
0
ARC
5
139
100
AcDbEntity
8
0
100
AcDbCircle
10
-38.12377581417558
20
-188.23811471813906
30
0
40
8.3228941082608188
210
0
220
-0
230
1
100
AcDbArc
50
89.999999996730736
51
180
0
ENDSEC
0
SECTION
2
OBJECTS
0
DICTIONARY
5
C
100
AcDbDictionary
3
ACAD_GROUP
350
D
3
ACAD_MLINESTYLE
350
17
0
DICTIONARY
5
D
100
AcDbDictionary
0
DICTIONARY
5
1A
330
C
100
AcDbDictionary
0
DICTIONARY
5
17
100
AcDbDictionary
0
ENDSEC
0
EOF
