; NON-PLATED HOLES START AT T1
; THROUGH (PLATED) HOLES START AT T100
M48
INCH
T1C0.125984
T100C0.025000
T101C0.038000
T102C0.040000
T103C0.035000
T104C0.051181
T105C0.042000
%
T1
X001403Y020787
X024303Y020787
X024303Y001387
X001503Y001387
T100
X021804Y002487
X019442Y002487
X020230Y002487
X021016Y002487
T101
X018386Y020334
X011386Y021334
X015386Y021334
X017386Y020334
X006386Y021334
X019386Y021334
X013386Y021334
X003703Y011487
X010386Y021334
X004386Y021334
X009386Y021334
X012386Y021334
X012386Y020334
X016386Y021334
X011386Y020334
X022386Y021334
X008386Y020334
X014386Y020334
X003386Y021334
X013386Y020334
X005386Y021334
X016386Y020334
X003703Y010487
X008386Y021334
X004386Y020334
X003703Y012487
X005386Y020334
X009386Y020334
X003503Y006987
X014386Y021334
X003503Y005987
X022386Y020334
X018386Y021334
X020386Y020334
X017386Y021334
X020386Y021334
X021386Y021334
X006386Y020334
X010386Y020334
X015386Y020334
X019386Y020334
X007386Y021334
X003703Y013487
X007386Y020334
X003386Y020334
X021386Y020334
T102
X000823Y018347
X002603Y015787
X000823Y015787
X002603Y018347
T103
X019504Y012287
X023204Y016487
X023204Y012487
X020504Y009287
X010504Y017387
X015704Y008987
X008203Y009987
X019604Y018187
X022004Y008787
X010504Y013387
X005503Y009287
X020504Y005287
X019504Y016287
X007603Y005087
X008203Y013987
X005503Y005287
X018604Y018187
X015704Y004987
X022004Y012787
X007603Y009087
T104
X010004Y004087
X010004Y001087
X003003Y004087
X006003Y004087
X004003Y001087
T105
X014804Y008287
X011404Y011787
X011404Y006187
X012804Y013807
X014804Y009687
X012696Y006180
X012804Y016787
X009296Y008294
X009296Y009680
X012696Y011794
T00
M30
