G04 MADE WITH FRITZING*
G04 WWW.FRITZING.ORG*
G04 DOUBLE SIDED*
G04 HOLES PLATED*
G04 CONTOUR ON CENTER OF CONTOUR VECTOR*
%ASAXBY*%
%FSLAX23Y23*%
%MOIN*%
%OFA0B0*%
%SFA1.0B1.0*%
%ADD10C,0.078000*%
%ADD11C,0.074000*%
%ADD12C,0.071181*%
%ADD13C,0.065000*%
%ADD14C,0.075000*%
%ADD15C,0.082000*%
%ADD16R,0.075000X0.075000*%
%ADD17R,0.024000X0.087000*%
%ADD18C,0.024000*%
%ADD19C,0.012000*%
%ADD20C,0.020000*%
%LNCOPPER1*%
G90*
G70*
G54D10*
X339Y2133D03*
X439Y2133D03*
X539Y2133D03*
X639Y2133D03*
X739Y2133D03*
X839Y2133D03*
X939Y2133D03*
X1039Y2133D03*
X1139Y2133D03*
X1239Y2133D03*
X1339Y2133D03*
X1439Y2133D03*
X1539Y2133D03*
X1639Y2133D03*
X1739Y2133D03*
X1839Y2133D03*
X1939Y2133D03*
X2039Y2133D03*
X2139Y2133D03*
X2239Y2133D03*
X339Y2133D03*
X439Y2133D03*
X539Y2133D03*
X639Y2133D03*
X739Y2133D03*
X839Y2133D03*
X939Y2133D03*
X1039Y2133D03*
X1139Y2133D03*
X1239Y2133D03*
X1339Y2133D03*
X1439Y2133D03*
X1539Y2133D03*
X1639Y2133D03*
X1739Y2133D03*
X1839Y2133D03*
X1939Y2133D03*
X2039Y2133D03*
X2139Y2133D03*
X2239Y2133D03*
X2239Y2033D03*
X2139Y2033D03*
X2039Y2033D03*
X1939Y2033D03*
X1839Y2033D03*
X1739Y2033D03*
X1639Y2033D03*
X1539Y2033D03*
X1439Y2033D03*
X1339Y2033D03*
X1239Y2033D03*
X1139Y2033D03*
X1039Y2033D03*
X939Y2033D03*
X839Y2033D03*
X739Y2033D03*
X639Y2033D03*
X539Y2033D03*
X439Y2033D03*
X339Y2033D03*
X339Y2133D03*
X439Y2133D03*
X539Y2133D03*
X639Y2133D03*
X739Y2133D03*
X839Y2133D03*
X939Y2133D03*
X1039Y2133D03*
X1139Y2133D03*
X1239Y2133D03*
X1339Y2133D03*
X1439Y2133D03*
X1539Y2133D03*
X1639Y2133D03*
X1739Y2133D03*
X1839Y2133D03*
X1939Y2133D03*
X2039Y2133D03*
X2139Y2133D03*
X2239Y2133D03*
X339Y2133D03*
X439Y2133D03*
X539Y2133D03*
X639Y2133D03*
X739Y2133D03*
X839Y2133D03*
X939Y2133D03*
X1039Y2133D03*
X1139Y2133D03*
X1239Y2133D03*
X1339Y2133D03*
X1439Y2133D03*
X1539Y2133D03*
X1639Y2133D03*
X1739Y2133D03*
X1839Y2133D03*
X1939Y2133D03*
X2039Y2133D03*
X2139Y2133D03*
X2239Y2133D03*
X2239Y2033D03*
X2139Y2033D03*
X2039Y2033D03*
X1939Y2033D03*
X1839Y2033D03*
X1739Y2033D03*
X1639Y2033D03*
X1539Y2033D03*
X1439Y2033D03*
X1339Y2033D03*
X1239Y2033D03*
X1139Y2033D03*
X1039Y2033D03*
X939Y2033D03*
X839Y2033D03*
X739Y2033D03*
X639Y2033D03*
X539Y2033D03*
X439Y2033D03*
X339Y2033D03*
X350Y699D03*
X350Y599D03*
X370Y1349D03*
X370Y1249D03*
X370Y1149D03*
X370Y1049D03*
G54D11*
X260Y1835D03*
X260Y1579D03*
X82Y1835D03*
X82Y1579D03*
X260Y1835D03*
X260Y1579D03*
X82Y1835D03*
X82Y1579D03*
G54D12*
X400Y109D03*
X1000Y109D03*
X1000Y409D03*
X300Y409D03*
X600Y409D03*
X400Y109D03*
X1000Y109D03*
X1000Y409D03*
X300Y409D03*
X600Y409D03*
G54D13*
X1944Y249D03*
X2023Y249D03*
X2102Y249D03*
X2180Y249D03*
G54D14*
X1950Y1629D03*
X1950Y1229D03*
X1050Y1739D03*
X1050Y1339D03*
X820Y1399D03*
X820Y999D03*
X1570Y899D03*
X1570Y499D03*
X760Y909D03*
X760Y509D03*
X550Y929D03*
X550Y529D03*
X2200Y1279D03*
X2200Y879D03*
X2050Y929D03*
X2050Y529D03*
X2320Y1649D03*
X2320Y1249D03*
G54D15*
X1280Y1679D03*
X1280Y1381D03*
X1140Y619D03*
X930Y829D03*
X1140Y1179D03*
X930Y968D03*
X1480Y829D03*
X1270Y618D03*
X1480Y969D03*
X1270Y1179D03*
G54D14*
X1960Y1819D03*
X1860Y1819D03*
G54D16*
X1960Y1819D03*
G54D17*
X1540Y1209D03*
X1590Y1209D03*
X1640Y1209D03*
X1690Y1209D03*
X1690Y1415D03*
X1640Y1415D03*
X1590Y1415D03*
X1540Y1415D03*
G54D18*
X441Y1209D02*
X393Y1168D01*
D02*
X439Y2003D02*
X441Y1209D01*
D02*
X540Y1209D02*
X539Y2003D01*
D02*
X392Y1069D02*
X540Y1209D01*
D02*
X280Y1459D02*
X180Y1519D01*
D02*
X280Y1310D02*
X280Y1459D01*
D02*
X180Y1519D02*
X180Y1829D01*
D02*
X180Y1829D02*
X272Y2079D01*
D02*
X272Y2079D02*
X315Y2114D01*
D02*
X345Y1266D02*
X280Y1310D01*
G54D19*
D02*
X180Y1958D02*
X98Y1855D01*
D02*
X239Y2109D02*
X180Y1958D01*
D02*
X301Y2189D02*
X239Y2109D01*
D02*
X1989Y2188D02*
X301Y2189D01*
D02*
X2022Y2152D02*
X1989Y2188D01*
G54D18*
D02*
X82Y1610D02*
X82Y1804D01*
D02*
X260Y1610D02*
X260Y1804D01*
G54D19*
D02*
X328Y2005D02*
X272Y1864D01*
D02*
X1140Y1610D02*
X740Y1148D01*
D02*
X260Y510D02*
X973Y124D01*
D02*
X260Y788D02*
X260Y510D01*
D02*
X740Y1148D02*
X532Y1019D01*
D02*
X1180Y1939D02*
X1140Y1610D01*
D02*
X532Y1019D02*
X260Y788D01*
D02*
X1192Y2088D02*
X1180Y1939D01*
D02*
X1221Y2116D02*
X1192Y2088D01*
G54D18*
D02*
X2312Y2088D02*
X2264Y2117D01*
D02*
X2320Y1677D02*
X2312Y2088D01*
D02*
X1944Y272D02*
X1939Y698D01*
D02*
X2092Y839D02*
X2306Y1224D01*
D02*
X1939Y698D02*
X2092Y839D01*
D02*
X2132Y1708D02*
X2047Y2004D01*
D02*
X2053Y957D02*
X2132Y1708D01*
D02*
X2097Y272D02*
X2056Y501D01*
D02*
X2181Y272D02*
X2199Y850D01*
G54D19*
D02*
X2200Y1939D02*
X2180Y2088D01*
D02*
X2180Y2088D02*
X2155Y2115D01*
D02*
X2200Y1302D02*
X2200Y1939D01*
G54D18*
D02*
X370Y722D02*
X532Y907D01*
D02*
X379Y589D02*
X523Y538D01*
D02*
X772Y1079D02*
X574Y945D01*
D02*
X1109Y1170D02*
X772Y1079D01*
D02*
X1173Y1179D02*
X1238Y1179D01*
D02*
X1173Y619D02*
X1238Y618D01*
D02*
X930Y862D02*
X930Y936D01*
D02*
X1480Y861D02*
X1480Y937D01*
D02*
X672Y599D02*
X575Y543D01*
D02*
X1108Y617D02*
X672Y599D01*
D02*
X369Y2133D02*
X409Y2133D01*
D02*
X292Y1168D02*
X349Y1227D01*
D02*
X349Y970D02*
X292Y1028D01*
D02*
X440Y999D02*
X349Y970D01*
D02*
X292Y1028D02*
X292Y1168D01*
D02*
X801Y1378D02*
X440Y999D01*
D02*
X1034Y1715D02*
X836Y1422D01*
D02*
X776Y933D02*
X805Y975D01*
D02*
X899Y977D02*
X848Y991D01*
D02*
X1548Y881D02*
X1506Y848D01*
D02*
X1592Y1088D02*
X961Y974D01*
D02*
X1591Y1171D02*
X1592Y1088D01*
D02*
X1540Y1159D02*
X1540Y1171D01*
D02*
X1077Y1329D02*
X1540Y1159D01*
D02*
X1684Y1415D02*
X1647Y1415D01*
G54D19*
D02*
X1800Y1979D02*
X1780Y2079D01*
D02*
X1780Y2079D02*
X1821Y2117D01*
D02*
X1852Y1840D02*
X1800Y1979D01*
G54D18*
D02*
X1249Y1375D02*
X1079Y1344D01*
D02*
X1312Y1686D02*
X1833Y1812D01*
D02*
X1938Y1655D02*
X1873Y1793D01*
D02*
X1697Y1418D02*
X2049Y1598D01*
D02*
X2049Y1598D02*
X1971Y1792D01*
D02*
X1690Y1247D02*
X1690Y1377D01*
D02*
X1922Y1227D02*
X1697Y1209D01*
D02*
X1640Y1019D02*
X1511Y978D01*
D02*
X1640Y1171D02*
X1640Y1019D01*
G54D20*
X1311Y1649D02*
X1249Y1649D01*
X1249Y1711D01*
X1311Y1711D01*
X1311Y1649D01*
D02*
X1097Y618D02*
X1141Y662D01*
X1185Y618D01*
X1141Y574D01*
X1097Y618D01*
D02*
X1141Y1136D02*
X1097Y1179D01*
X1141Y1223D01*
X1185Y1179D01*
X1141Y1136D01*
D02*
X1481Y786D02*
X1437Y829D01*
X1481Y873D01*
X1525Y829D01*
X1481Y786D01*
D02*
X1437Y968D02*
X1481Y1012D01*
X1525Y968D01*
X1481Y924D01*
X1437Y968D01*
D02*
G04 End of Copper1*
M02*