; NON-PLATED HOLES START AT T1
; THROUGH (PLATED) HOLES START AT T100
M48
INCH
T1C0.125984
T100C0.040000
T101C0.015748
T102C0.035000
T103C0.042000
T104C0.051181
T105C0.025000
T106C0.038000
%
T1
X024304Y020798
X024304Y001398
X001403Y020798
X001503Y001398
T100
X000823Y018358
X000823Y015798
X002603Y018358
X002603Y015798
T101
X014760Y014641
T102
X007603Y005098
X019604Y018198
X019504Y016298
X005503Y005298
X015704Y008998
X019504Y012298
X008203Y009998
X010504Y017398
X022004Y012798
X022004Y008798
X023204Y016498
X007603Y009098
X005503Y009298
X020504Y005298
X020504Y009298
X010504Y013398
X018604Y018198
X023204Y012498
X015704Y004998
X008203Y013998
T103
X014804Y008298
X012804Y016798
X011404Y006198
X011404Y011798
X009296Y008306
X014804Y009698
X012696Y011806
X009296Y009691
X012696Y006191
X012804Y013818
T104
X010004Y001098
X003003Y004098
X010004Y004098
X006003Y004098
X004003Y001098
T105
X020230Y002498
X021016Y002498
X021804Y002498
X019442Y002498
T106
X003503Y006998
X012386Y020345
X012386Y021345
X017386Y020345
X007386Y021345
X011386Y020345
X022386Y021345
X006386Y020345
X009386Y020345
X003703Y011498
X018386Y020345
X003703Y010498
X014386Y020345
X015386Y021345
X020386Y020345
X013386Y021345
X003503Y005998
X008386Y021345
X004386Y021345
X019386Y020345
X018386Y021345
X005386Y020345
X019386Y021345
X004386Y020345
X021386Y020345
X015386Y020345
X011386Y021345
X022386Y020345
X020386Y021345
X008386Y020345
X006386Y021345
X007386Y020345
X010386Y020345
X014386Y021345
X005386Y021345
X003703Y012498
X021386Y021345
X010386Y021345
X003703Y013498
X009386Y021345
X003386Y021345
X003386Y020345
X013386Y020345
X016386Y021345
X016386Y020345
X017386Y021345
T00
M30
