G04 MADE WITH FRITZING*
G04 WWW.FRITZING.ORG*
G04 DOUBLE SIDED*
G04 HOLES PLATED*
G04 CONTOUR ON CENTER OF CONTOUR VECTOR*
%ASAXBY*%
%FSLAX23Y23*%
%MOIN*%
%OFA0B0*%
%SFA1.0B1.0*%
%ADD10C,0.010000*%
%ADD11R,0.001000X0.001000*%
%LNSILK0*%
G90*
G70*
G54D10*
X289Y2183D02*
X2289Y2183D01*
D02*
X2289Y2183D02*
X2289Y1983D01*
D02*
X2289Y1983D02*
X289Y1983D01*
D02*
X289Y1983D02*
X289Y2183D01*
G54D11*
X187Y2186D02*
X205Y2186D01*
X229Y2186D02*
X231Y2186D01*
X187Y2185D02*
X206Y2185D01*
X228Y2185D02*
X232Y2185D01*
X321Y2185D02*
X322Y2185D01*
X187Y2184D02*
X207Y2184D01*
X227Y2184D02*
X233Y2184D01*
X320Y2184D02*
X323Y2184D01*
X187Y2183D02*
X207Y2183D01*
X227Y2183D02*
X233Y2183D01*
X319Y2183D02*
X324Y2183D01*
X187Y2182D02*
X207Y2182D01*
X227Y2182D02*
X233Y2182D01*
X318Y2182D02*
X324Y2182D01*
X187Y2181D02*
X206Y2181D01*
X227Y2181D02*
X233Y2181D01*
X317Y2181D02*
X323Y2181D01*
X187Y2180D02*
X205Y2180D01*
X227Y2180D02*
X233Y2180D01*
X316Y2180D02*
X322Y2180D01*
X187Y2179D02*
X193Y2179D01*
X227Y2179D02*
X233Y2179D01*
X315Y2179D02*
X321Y2179D01*
X187Y2178D02*
X193Y2178D01*
X227Y2178D02*
X233Y2178D01*
X314Y2178D02*
X320Y2178D01*
X187Y2177D02*
X193Y2177D01*
X227Y2177D02*
X233Y2177D01*
X313Y2177D02*
X319Y2177D01*
X187Y2176D02*
X193Y2176D01*
X227Y2176D02*
X233Y2176D01*
X312Y2176D02*
X318Y2176D01*
X187Y2175D02*
X193Y2175D01*
X227Y2175D02*
X233Y2175D01*
X311Y2175D02*
X317Y2175D01*
X187Y2174D02*
X193Y2174D01*
X227Y2174D02*
X233Y2174D01*
X310Y2174D02*
X316Y2174D01*
X187Y2173D02*
X193Y2173D01*
X227Y2173D02*
X233Y2173D01*
X309Y2173D02*
X315Y2173D01*
X187Y2172D02*
X193Y2172D01*
X227Y2172D02*
X233Y2172D01*
X308Y2172D02*
X314Y2172D01*
X187Y2171D02*
X193Y2171D01*
X227Y2171D02*
X233Y2171D01*
X307Y2171D02*
X313Y2171D01*
X187Y2170D02*
X193Y2170D01*
X227Y2170D02*
X233Y2170D01*
X306Y2170D02*
X312Y2170D01*
X187Y2169D02*
X193Y2169D01*
X227Y2169D02*
X233Y2169D01*
X305Y2169D02*
X311Y2169D01*
X187Y2168D02*
X193Y2168D01*
X227Y2168D02*
X233Y2168D01*
X304Y2168D02*
X310Y2168D01*
X187Y2167D02*
X193Y2167D01*
X227Y2167D02*
X233Y2167D01*
X303Y2167D02*
X309Y2167D01*
X187Y2166D02*
X193Y2166D01*
X227Y2166D02*
X233Y2166D01*
X302Y2166D02*
X308Y2166D01*
X187Y2165D02*
X193Y2165D01*
X227Y2165D02*
X233Y2165D01*
X301Y2165D02*
X306Y2165D01*
X187Y2164D02*
X193Y2164D01*
X227Y2164D02*
X233Y2164D01*
X300Y2164D02*
X306Y2164D01*
X187Y2163D02*
X193Y2163D01*
X227Y2163D02*
X233Y2163D01*
X299Y2163D02*
X305Y2163D01*
X187Y2162D02*
X193Y2162D01*
X227Y2162D02*
X233Y2162D01*
X298Y2162D02*
X304Y2162D01*
X187Y2161D02*
X193Y2161D01*
X227Y2161D02*
X233Y2161D01*
X297Y2161D02*
X303Y2161D01*
X187Y2160D02*
X193Y2160D01*
X227Y2160D02*
X233Y2160D01*
X296Y2160D02*
X302Y2160D01*
X187Y2159D02*
X193Y2159D01*
X227Y2159D02*
X233Y2159D01*
X295Y2159D02*
X301Y2159D01*
X187Y2158D02*
X193Y2158D01*
X227Y2158D02*
X233Y2158D01*
X294Y2158D02*
X300Y2158D01*
X176Y2157D02*
X176Y2157D01*
X187Y2157D02*
X193Y2157D01*
X227Y2157D02*
X233Y2157D01*
X250Y2157D02*
X251Y2157D01*
X293Y2157D02*
X299Y2157D01*
X174Y2156D02*
X178Y2156D01*
X187Y2156D02*
X193Y2156D01*
X227Y2156D02*
X233Y2156D01*
X249Y2156D02*
X253Y2156D01*
X292Y2156D02*
X298Y2156D01*
X174Y2155D02*
X179Y2155D01*
X187Y2155D02*
X193Y2155D01*
X227Y2155D02*
X233Y2155D01*
X248Y2155D02*
X253Y2155D01*
X291Y2155D02*
X297Y2155D01*
X173Y2154D02*
X179Y2154D01*
X187Y2154D02*
X193Y2154D01*
X227Y2154D02*
X233Y2154D01*
X248Y2154D02*
X254Y2154D01*
X290Y2154D02*
X296Y2154D01*
X173Y2153D02*
X179Y2153D01*
X187Y2153D02*
X193Y2153D01*
X227Y2153D02*
X233Y2153D01*
X248Y2153D02*
X254Y2153D01*
X289Y2153D02*
X295Y2153D01*
X173Y2152D02*
X179Y2152D01*
X187Y2152D02*
X193Y2152D01*
X227Y2152D02*
X233Y2152D01*
X248Y2152D02*
X254Y2152D01*
X288Y2152D02*
X294Y2152D01*
X173Y2151D02*
X179Y2151D01*
X187Y2151D02*
X193Y2151D01*
X227Y2151D02*
X233Y2151D01*
X248Y2151D02*
X254Y2151D01*
X287Y2151D02*
X293Y2151D01*
X173Y2150D02*
X179Y2150D01*
X187Y2150D02*
X193Y2150D01*
X227Y2150D02*
X233Y2150D01*
X248Y2150D02*
X254Y2150D01*
X288Y2150D02*
X292Y2150D01*
X173Y2149D02*
X179Y2149D01*
X187Y2149D02*
X193Y2149D01*
X227Y2149D02*
X233Y2149D01*
X248Y2149D02*
X254Y2149D01*
X289Y2149D02*
X291Y2149D01*
X173Y2148D02*
X179Y2148D01*
X187Y2148D02*
X193Y2148D01*
X227Y2148D02*
X233Y2148D01*
X248Y2148D02*
X254Y2148D01*
X290Y2148D02*
X290Y2148D01*
X173Y2147D02*
X179Y2147D01*
X187Y2147D02*
X193Y2147D01*
X227Y2147D02*
X233Y2147D01*
X248Y2147D02*
X254Y2147D01*
X173Y2146D02*
X179Y2146D01*
X187Y2146D02*
X193Y2146D01*
X227Y2146D02*
X233Y2146D01*
X248Y2146D02*
X254Y2146D01*
X173Y2145D02*
X179Y2145D01*
X187Y2145D02*
X193Y2145D01*
X227Y2145D02*
X233Y2145D01*
X248Y2145D02*
X254Y2145D01*
X173Y2144D02*
X179Y2144D01*
X187Y2144D02*
X193Y2144D01*
X227Y2144D02*
X233Y2144D01*
X248Y2144D02*
X254Y2144D01*
X173Y2143D02*
X179Y2143D01*
X187Y2143D02*
X193Y2143D01*
X227Y2143D02*
X233Y2143D01*
X248Y2143D02*
X254Y2143D01*
X173Y2142D02*
X179Y2142D01*
X187Y2142D02*
X193Y2142D01*
X227Y2142D02*
X233Y2142D01*
X247Y2142D02*
X254Y2142D01*
X173Y2141D02*
X179Y2141D01*
X187Y2141D02*
X193Y2141D01*
X227Y2141D02*
X234Y2141D01*
X247Y2141D02*
X253Y2141D01*
X173Y2140D02*
X179Y2140D01*
X187Y2140D02*
X193Y2140D01*
X227Y2140D02*
X235Y2140D01*
X246Y2140D02*
X253Y2140D01*
X173Y2139D02*
X205Y2139D01*
X228Y2139D02*
X253Y2139D01*
X174Y2138D02*
X206Y2138D01*
X228Y2138D02*
X252Y2138D01*
X176Y2137D02*
X207Y2137D01*
X229Y2137D02*
X252Y2137D01*
X178Y2136D02*
X207Y2136D01*
X230Y2136D02*
X251Y2136D01*
X179Y2135D02*
X207Y2135D01*
X231Y2135D02*
X250Y2135D01*
X181Y2134D02*
X206Y2134D01*
X232Y2134D02*
X249Y2134D01*
X182Y2133D02*
X205Y2133D01*
X234Y2133D02*
X246Y2133D01*
D02*
G04 End of Silk0*
M02*