G04 MADE WITH FRITZING*
G04 WWW.FRITZING.ORG*
G04 DOUBLE SIDED*
G04 HOLES PLATED*
G04 CONTOUR ON CENTER OF CONTOUR VECTOR*
%ASAXBY*%
%FSLAX23Y23*%
%MOIN*%
%OFA0B0*%
%SFA1.0B1.0*%
%ADD10C,0.075000*%
%ADD11C,0.078000*%
%ADD12C,0.074000*%
%ADD13C,0.071181*%
%ADD14C,0.065000*%
%ADD15C,0.082000*%
%ADD16C,0.039370*%
%ADD17R,0.075000X0.075000*%
%ADD18C,0.016000*%
%ADD19C,0.024000*%
%ADD20C,0.012000*%
%ADD21C,0.020000*%
%LNCOPPER0*%
G90*
G70*
G54D10*
X2555Y2106D03*
G54D11*
X339Y2135D03*
X439Y2135D03*
X539Y2135D03*
X639Y2135D03*
X739Y2135D03*
X839Y2135D03*
X939Y2135D03*
X1039Y2135D03*
X1139Y2135D03*
X1239Y2135D03*
X1339Y2135D03*
X1439Y2135D03*
X1539Y2135D03*
X1639Y2135D03*
X1739Y2135D03*
X1839Y2135D03*
X1939Y2135D03*
X2039Y2135D03*
X2139Y2135D03*
X2239Y2135D03*
X339Y2135D03*
X439Y2135D03*
X539Y2135D03*
X639Y2135D03*
X739Y2135D03*
X839Y2135D03*
X939Y2135D03*
X1039Y2135D03*
X1139Y2135D03*
X1239Y2135D03*
X1339Y2135D03*
X1439Y2135D03*
X1539Y2135D03*
X1639Y2135D03*
X1739Y2135D03*
X1839Y2135D03*
X1939Y2135D03*
X2039Y2135D03*
X2139Y2135D03*
X2239Y2135D03*
X2239Y2035D03*
X2139Y2035D03*
X2039Y2035D03*
X1939Y2035D03*
X1839Y2035D03*
X1739Y2035D03*
X1639Y2035D03*
X1539Y2035D03*
X1439Y2035D03*
X1339Y2035D03*
X1239Y2035D03*
X1139Y2035D03*
X1039Y2035D03*
X939Y2035D03*
X839Y2035D03*
X739Y2035D03*
X639Y2035D03*
X539Y2035D03*
X439Y2035D03*
X339Y2035D03*
X339Y2135D03*
X439Y2135D03*
X539Y2135D03*
X639Y2135D03*
X739Y2135D03*
X839Y2135D03*
X939Y2135D03*
X1039Y2135D03*
X1139Y2135D03*
X1239Y2135D03*
X1339Y2135D03*
X1439Y2135D03*
X1539Y2135D03*
X1639Y2135D03*
X1739Y2135D03*
X1839Y2135D03*
X1939Y2135D03*
X2039Y2135D03*
X2139Y2135D03*
X2239Y2135D03*
X339Y2135D03*
X439Y2135D03*
X539Y2135D03*
X639Y2135D03*
X739Y2135D03*
X839Y2135D03*
X939Y2135D03*
X1039Y2135D03*
X1139Y2135D03*
X1239Y2135D03*
X1339Y2135D03*
X1439Y2135D03*
X1539Y2135D03*
X1639Y2135D03*
X1739Y2135D03*
X1839Y2135D03*
X1939Y2135D03*
X2039Y2135D03*
X2139Y2135D03*
X2239Y2135D03*
X2239Y2035D03*
X2139Y2035D03*
X2039Y2035D03*
X1939Y2035D03*
X1839Y2035D03*
X1739Y2035D03*
X1639Y2035D03*
X1539Y2035D03*
X1439Y2035D03*
X1339Y2035D03*
X1239Y2035D03*
X1139Y2035D03*
X1039Y2035D03*
X939Y2035D03*
X839Y2035D03*
X739Y2035D03*
X639Y2035D03*
X539Y2035D03*
X439Y2035D03*
X339Y2035D03*
X350Y700D03*
X350Y600D03*
X370Y1350D03*
X370Y1250D03*
X370Y1150D03*
X370Y1050D03*
G54D12*
X260Y1836D03*
X260Y1580D03*
X82Y1836D03*
X82Y1580D03*
G54D13*
X400Y110D03*
X1000Y110D03*
X1000Y410D03*
X300Y410D03*
X600Y410D03*
G54D14*
X1944Y250D03*
X2023Y250D03*
X2102Y250D03*
X2180Y250D03*
G54D10*
X1950Y1630D03*
X1950Y1230D03*
X1050Y1740D03*
X1050Y1340D03*
X820Y1400D03*
X820Y1000D03*
X1570Y900D03*
X1570Y500D03*
X760Y910D03*
X760Y510D03*
X550Y930D03*
X550Y530D03*
X2200Y1280D03*
X2200Y880D03*
X2050Y930D03*
X2050Y530D03*
X2320Y1650D03*
X2320Y1250D03*
G54D15*
X1280Y1680D03*
X1280Y1382D03*
X1140Y620D03*
X930Y831D03*
X1140Y1180D03*
X930Y969D03*
X1480Y830D03*
X1270Y619D03*
X1480Y970D03*
X1270Y1181D03*
G54D10*
X1960Y1820D03*
X1860Y1820D03*
G54D16*
X1476Y1464D03*
G54D17*
X1960Y1820D03*
G54D18*
X580Y2190D02*
X553Y2154D01*
D02*
X891Y2190D02*
X580Y2190D01*
D02*
X923Y2153D02*
X891Y2190D01*
D02*
X1691Y2190D02*
X1723Y2153D01*
D02*
X980Y2190D02*
X1691Y2190D01*
D02*
X953Y2154D02*
X980Y2190D01*
G54D19*
D02*
X2031Y1729D02*
X1978Y1797D01*
D02*
X2040Y1210D02*
X2031Y1729D01*
D02*
X1891Y920D02*
X2040Y1210D01*
G54D18*
D02*
X980Y2190D02*
X953Y2154D01*
D02*
X1191Y2190D02*
X980Y2190D01*
D02*
X1223Y2153D02*
X1191Y2190D01*
G54D20*
D02*
X891Y2090D02*
X921Y2118D01*
D02*
X791Y2079D02*
X891Y2090D01*
D02*
X757Y2050D02*
X791Y2079D01*
D02*
X1691Y2089D02*
X1721Y2118D01*
D02*
X1591Y2079D02*
X1691Y2089D01*
D02*
X1557Y2050D02*
X1591Y2079D01*
G54D18*
D02*
X1781Y2189D02*
X1754Y2154D01*
D02*
X1891Y2189D02*
X1781Y2189D01*
D02*
X1922Y2153D02*
X1891Y2189D01*
G54D19*
D02*
X787Y499D02*
X967Y424D01*
D02*
X600Y1159D02*
X754Y538D01*
D02*
X394Y1331D02*
X600Y1159D01*
D02*
X385Y1376D02*
X724Y2008D01*
D02*
X1712Y920D02*
X1580Y527D01*
D02*
X1891Y920D02*
X1712Y920D01*
D02*
X2018Y273D02*
X1891Y920D01*
D02*
X1542Y495D02*
X1037Y416D01*
D02*
X2180Y1960D02*
X1985Y1835D01*
D02*
X2220Y2011D02*
X2180Y1960D01*
D02*
X1210Y1588D02*
X1459Y1472D01*
D02*
X1071Y1720D02*
X1210Y1588D01*
G36*
X152Y2171D02*
X152Y2151D01*
X160Y2151D01*
X160Y2149D01*
X166Y2149D01*
X166Y2147D01*
X170Y2147D01*
X170Y2145D01*
X174Y2145D01*
X174Y2143D01*
X178Y2143D01*
X178Y2141D01*
X182Y2141D01*
X182Y2139D01*
X184Y2139D01*
X184Y2137D01*
X186Y2137D01*
X186Y2135D01*
X190Y2135D01*
X190Y2133D01*
X192Y2133D01*
X192Y2131D01*
X194Y2131D01*
X194Y2129D01*
X196Y2129D01*
X196Y2125D01*
X198Y2125D01*
X198Y2123D01*
X200Y2123D01*
X200Y2121D01*
X202Y2121D01*
X202Y2117D01*
X204Y2117D01*
X204Y2113D01*
X206Y2113D01*
X206Y2109D01*
X208Y2109D01*
X208Y2105D01*
X210Y2105D01*
X210Y2097D01*
X212Y2097D01*
X212Y2087D01*
X214Y2087D01*
X214Y2073D01*
X212Y2073D01*
X212Y2063D01*
X210Y2063D01*
X210Y2055D01*
X208Y2055D01*
X208Y2051D01*
X206Y2051D01*
X206Y2047D01*
X204Y2047D01*
X204Y2043D01*
X202Y2043D01*
X202Y2039D01*
X200Y2039D01*
X200Y2037D01*
X198Y2037D01*
X198Y2033D01*
X196Y2033D01*
X196Y2031D01*
X194Y2031D01*
X194Y2029D01*
X192Y2029D01*
X192Y2027D01*
X190Y2027D01*
X190Y2025D01*
X188Y2025D01*
X188Y2023D01*
X184Y2023D01*
X184Y2021D01*
X182Y2021D01*
X182Y2019D01*
X178Y2019D01*
X178Y2017D01*
X176Y2017D01*
X176Y2015D01*
X172Y2015D01*
X172Y2013D01*
X166Y2013D01*
X166Y2011D01*
X160Y2011D01*
X160Y2009D01*
X152Y2009D01*
X152Y2007D01*
X298Y2007D01*
X298Y2009D01*
X296Y2009D01*
X296Y2013D01*
X294Y2013D01*
X294Y2017D01*
X292Y2017D01*
X292Y2023D01*
X290Y2023D01*
X290Y2045D01*
X292Y2045D01*
X292Y2051D01*
X294Y2051D01*
X294Y2057D01*
X296Y2057D01*
X296Y2059D01*
X298Y2059D01*
X298Y2063D01*
X300Y2063D01*
X300Y2065D01*
X302Y2065D01*
X302Y2067D01*
X304Y2067D01*
X304Y2069D01*
X306Y2069D01*
X306Y2071D01*
X308Y2071D01*
X308Y2073D01*
X310Y2073D01*
X310Y2075D01*
X312Y2075D01*
X312Y2095D01*
X308Y2095D01*
X308Y2097D01*
X306Y2097D01*
X306Y2099D01*
X304Y2099D01*
X304Y2101D01*
X302Y2101D01*
X302Y2103D01*
X300Y2103D01*
X300Y2107D01*
X298Y2107D01*
X298Y2109D01*
X296Y2109D01*
X296Y2113D01*
X294Y2113D01*
X294Y2117D01*
X292Y2117D01*
X292Y2123D01*
X290Y2123D01*
X290Y2145D01*
X292Y2145D01*
X292Y2151D01*
X294Y2151D01*
X294Y2171D01*
X152Y2171D01*
G37*
D02*
G36*
X2284Y2171D02*
X2284Y2149D01*
X2286Y2149D01*
X2286Y2141D01*
X2288Y2141D01*
X2288Y2127D01*
X2286Y2127D01*
X2286Y2119D01*
X2284Y2119D01*
X2284Y2115D01*
X2282Y2115D01*
X2282Y2111D01*
X2280Y2111D01*
X2280Y2107D01*
X2278Y2107D01*
X2278Y2105D01*
X2276Y2105D01*
X2276Y2101D01*
X2274Y2101D01*
X2274Y2099D01*
X2270Y2099D01*
X2270Y2097D01*
X2268Y2097D01*
X2268Y2095D01*
X2266Y2095D01*
X2266Y2075D01*
X2268Y2075D01*
X2268Y2073D01*
X2270Y2073D01*
X2270Y2071D01*
X2272Y2071D01*
X2272Y2069D01*
X2274Y2069D01*
X2274Y2067D01*
X2276Y2067D01*
X2276Y2065D01*
X2278Y2065D01*
X2278Y2063D01*
X2280Y2063D01*
X2280Y2059D01*
X2282Y2059D01*
X2282Y2055D01*
X2284Y2055D01*
X2284Y2049D01*
X2286Y2049D01*
X2286Y2041D01*
X2288Y2041D01*
X2288Y2027D01*
X2286Y2027D01*
X2286Y2019D01*
X2284Y2019D01*
X2284Y2015D01*
X2282Y2015D01*
X2282Y2011D01*
X2280Y2011D01*
X2280Y2007D01*
X2418Y2007D01*
X2418Y2009D01*
X2410Y2009D01*
X2410Y2011D01*
X2404Y2011D01*
X2404Y2013D01*
X2400Y2013D01*
X2400Y2015D01*
X2396Y2015D01*
X2396Y2017D01*
X2392Y2017D01*
X2392Y2019D01*
X2388Y2019D01*
X2388Y2021D01*
X2386Y2021D01*
X2386Y2023D01*
X2384Y2023D01*
X2384Y2025D01*
X2382Y2025D01*
X2382Y2027D01*
X2380Y2027D01*
X2380Y2029D01*
X2378Y2029D01*
X2378Y2031D01*
X2376Y2031D01*
X2376Y2033D01*
X2374Y2033D01*
X2374Y2035D01*
X2372Y2035D01*
X2372Y2037D01*
X2370Y2037D01*
X2370Y2041D01*
X2368Y2041D01*
X2368Y2045D01*
X2366Y2045D01*
X2366Y2049D01*
X2364Y2049D01*
X2364Y2053D01*
X2362Y2053D01*
X2362Y2057D01*
X2360Y2057D01*
X2360Y2065D01*
X2358Y2065D01*
X2358Y2095D01*
X2360Y2095D01*
X2360Y2101D01*
X2362Y2101D01*
X2362Y2107D01*
X2364Y2107D01*
X2364Y2111D01*
X2366Y2111D01*
X2366Y2115D01*
X2368Y2115D01*
X2368Y2119D01*
X2370Y2119D01*
X2370Y2123D01*
X2372Y2123D01*
X2372Y2125D01*
X2374Y2125D01*
X2374Y2127D01*
X2376Y2127D01*
X2376Y2129D01*
X2378Y2129D01*
X2378Y2131D01*
X2380Y2131D01*
X2380Y2133D01*
X2382Y2133D01*
X2382Y2135D01*
X2384Y2135D01*
X2384Y2137D01*
X2386Y2137D01*
X2386Y2139D01*
X2390Y2139D01*
X2390Y2141D01*
X2392Y2141D01*
X2392Y2143D01*
X2396Y2143D01*
X2396Y2145D01*
X2400Y2145D01*
X2400Y2147D01*
X2404Y2147D01*
X2404Y2149D01*
X2410Y2149D01*
X2410Y2151D01*
X2420Y2151D01*
X2420Y2171D01*
X2284Y2171D01*
G37*
D02*
G36*
X2440Y2171D02*
X2440Y2151D01*
X2450Y2151D01*
X2450Y2149D01*
X2456Y2149D01*
X2456Y2147D01*
X2460Y2147D01*
X2460Y2145D01*
X2464Y2145D01*
X2464Y2143D01*
X2468Y2143D01*
X2468Y2141D01*
X2472Y2141D01*
X2472Y2139D01*
X2474Y2139D01*
X2474Y2137D01*
X2478Y2137D01*
X2478Y2135D01*
X2480Y2135D01*
X2480Y2133D01*
X2482Y2133D01*
X2482Y2131D01*
X2484Y2131D01*
X2484Y2129D01*
X2486Y2129D01*
X2486Y2125D01*
X2488Y2125D01*
X2488Y2123D01*
X2490Y2123D01*
X2490Y2121D01*
X2492Y2121D01*
X2492Y2117D01*
X2494Y2117D01*
X2494Y2113D01*
X2496Y2113D01*
X2496Y2109D01*
X2498Y2109D01*
X2498Y2105D01*
X2500Y2105D01*
X2500Y2097D01*
X2502Y2097D01*
X2502Y2087D01*
X2504Y2087D01*
X2504Y2073D01*
X2502Y2073D01*
X2502Y2063D01*
X2500Y2063D01*
X2500Y2055D01*
X2498Y2055D01*
X2498Y2051D01*
X2496Y2051D01*
X2496Y2047D01*
X2494Y2047D01*
X2494Y2043D01*
X2492Y2043D01*
X2492Y2039D01*
X2490Y2039D01*
X2490Y2037D01*
X2488Y2037D01*
X2488Y2033D01*
X2486Y2033D01*
X2486Y2031D01*
X2484Y2031D01*
X2484Y2029D01*
X2482Y2029D01*
X2482Y2027D01*
X2480Y2027D01*
X2480Y2025D01*
X2478Y2025D01*
X2478Y2023D01*
X2474Y2023D01*
X2474Y2021D01*
X2472Y2021D01*
X2472Y2019D01*
X2468Y2019D01*
X2468Y2017D01*
X2466Y2017D01*
X2466Y2015D01*
X2462Y2015D01*
X2462Y2013D01*
X2456Y2013D01*
X2456Y2011D01*
X2450Y2011D01*
X2450Y2009D01*
X2442Y2009D01*
X2442Y2007D01*
X3314Y2007D01*
X3314Y2067D01*
X3312Y2067D01*
X3312Y2079D01*
X3310Y2079D01*
X3310Y2087D01*
X3308Y2087D01*
X3308Y2093D01*
X3306Y2093D01*
X3306Y2097D01*
X3304Y2097D01*
X3304Y2103D01*
X3302Y2103D01*
X3302Y2107D01*
X3300Y2107D01*
X3300Y2111D01*
X3298Y2111D01*
X3298Y2113D01*
X3296Y2113D01*
X3296Y2117D01*
X3294Y2117D01*
X3294Y2119D01*
X3292Y2119D01*
X3292Y2123D01*
X3290Y2123D01*
X3290Y2125D01*
X3288Y2125D01*
X3288Y2127D01*
X3286Y2127D01*
X3286Y2129D01*
X3284Y2129D01*
X3284Y2133D01*
X3282Y2133D01*
X3282Y2135D01*
X3280Y2135D01*
X3280Y2137D01*
X3278Y2137D01*
X3278Y2139D01*
X3276Y2139D01*
X3276Y2141D01*
X3272Y2141D01*
X3272Y2143D01*
X3270Y2143D01*
X3270Y2145D01*
X3268Y2145D01*
X3268Y2147D01*
X3266Y2147D01*
X3266Y2149D01*
X3262Y2149D01*
X3262Y2151D01*
X3260Y2151D01*
X3260Y2153D01*
X3256Y2153D01*
X3256Y2155D01*
X3254Y2155D01*
X3254Y2157D01*
X3250Y2157D01*
X3250Y2159D01*
X3246Y2159D01*
X3246Y2161D01*
X3240Y2161D01*
X3240Y2163D01*
X3236Y2163D01*
X3236Y2165D01*
X3230Y2165D01*
X3230Y2167D01*
X3222Y2167D01*
X3222Y2169D01*
X3210Y2169D01*
X3210Y2171D01*
X2440Y2171D01*
G37*
D02*
G36*
X48Y2071D02*
X48Y2007D01*
X128Y2007D01*
X128Y2009D01*
X120Y2009D01*
X120Y2011D01*
X114Y2011D01*
X114Y2013D01*
X110Y2013D01*
X110Y2015D01*
X106Y2015D01*
X106Y2017D01*
X102Y2017D01*
X102Y2019D01*
X98Y2019D01*
X98Y2021D01*
X96Y2021D01*
X96Y2023D01*
X94Y2023D01*
X94Y2025D01*
X92Y2025D01*
X92Y2027D01*
X90Y2027D01*
X90Y2029D01*
X88Y2029D01*
X88Y2031D01*
X86Y2031D01*
X86Y2033D01*
X84Y2033D01*
X84Y2035D01*
X82Y2035D01*
X82Y2037D01*
X80Y2037D01*
X80Y2041D01*
X78Y2041D01*
X78Y2045D01*
X76Y2045D01*
X76Y2049D01*
X74Y2049D01*
X74Y2053D01*
X72Y2053D01*
X72Y2057D01*
X70Y2057D01*
X70Y2065D01*
X68Y2065D01*
X68Y2071D01*
X48Y2071D01*
G37*
D02*
G36*
X48Y2007D02*
X48Y2005D01*
X300Y2005D01*
X300Y2007D01*
X48Y2007D01*
G37*
D02*
G36*
X48Y2007D02*
X48Y2005D01*
X300Y2005D01*
X300Y2007D01*
X48Y2007D01*
G37*
D02*
G36*
X378Y2007D02*
X378Y2005D01*
X376Y2005D01*
X376Y2001D01*
X374Y2001D01*
X374Y1999D01*
X370Y1999D01*
X370Y1997D01*
X368Y1997D01*
X368Y1995D01*
X366Y1995D01*
X366Y1993D01*
X362Y1993D01*
X362Y1991D01*
X358Y1991D01*
X358Y1989D01*
X354Y1989D01*
X354Y1987D01*
X344Y1987D01*
X344Y1985D01*
X432Y1985D01*
X432Y1987D01*
X424Y1987D01*
X424Y1989D01*
X418Y1989D01*
X418Y1991D01*
X414Y1991D01*
X414Y1993D01*
X412Y1993D01*
X412Y1995D01*
X408Y1995D01*
X408Y1997D01*
X406Y1997D01*
X406Y1999D01*
X404Y1999D01*
X404Y2001D01*
X402Y2001D01*
X402Y2003D01*
X400Y2003D01*
X400Y2007D01*
X378Y2007D01*
G37*
D02*
G36*
X478Y2007D02*
X478Y2005D01*
X476Y2005D01*
X476Y2001D01*
X474Y2001D01*
X474Y1999D01*
X470Y1999D01*
X470Y1997D01*
X468Y1997D01*
X468Y1995D01*
X466Y1995D01*
X466Y1993D01*
X462Y1993D01*
X462Y1991D01*
X458Y1991D01*
X458Y1989D01*
X454Y1989D01*
X454Y1987D01*
X444Y1987D01*
X444Y1985D01*
X532Y1985D01*
X532Y1987D01*
X524Y1987D01*
X524Y1989D01*
X518Y1989D01*
X518Y1991D01*
X514Y1991D01*
X514Y1993D01*
X512Y1993D01*
X512Y1995D01*
X508Y1995D01*
X508Y1997D01*
X506Y1997D01*
X506Y1999D01*
X504Y1999D01*
X504Y2001D01*
X502Y2001D01*
X502Y2003D01*
X500Y2003D01*
X500Y2007D01*
X478Y2007D01*
G37*
D02*
G36*
X578Y2007D02*
X578Y2005D01*
X576Y2005D01*
X576Y2001D01*
X574Y2001D01*
X574Y1999D01*
X570Y1999D01*
X570Y1997D01*
X568Y1997D01*
X568Y1995D01*
X566Y1995D01*
X566Y1993D01*
X562Y1993D01*
X562Y1991D01*
X558Y1991D01*
X558Y1989D01*
X554Y1989D01*
X554Y1987D01*
X544Y1987D01*
X544Y1985D01*
X632Y1985D01*
X632Y1987D01*
X624Y1987D01*
X624Y1989D01*
X618Y1989D01*
X618Y1991D01*
X614Y1991D01*
X614Y1993D01*
X612Y1993D01*
X612Y1995D01*
X608Y1995D01*
X608Y1997D01*
X606Y1997D01*
X606Y1999D01*
X604Y1999D01*
X604Y2001D01*
X602Y2001D01*
X602Y2003D01*
X600Y2003D01*
X600Y2007D01*
X578Y2007D01*
G37*
D02*
G36*
X678Y2007D02*
X678Y2005D01*
X676Y2005D01*
X676Y2001D01*
X674Y2001D01*
X674Y1999D01*
X670Y1999D01*
X670Y1997D01*
X668Y1997D01*
X668Y1995D01*
X666Y1995D01*
X666Y1993D01*
X662Y1993D01*
X662Y1991D01*
X658Y1991D01*
X658Y1989D01*
X654Y1989D01*
X654Y1987D01*
X644Y1987D01*
X644Y1985D01*
X732Y1985D01*
X732Y1987D01*
X724Y1987D01*
X724Y1989D01*
X718Y1989D01*
X718Y1991D01*
X714Y1991D01*
X714Y1993D01*
X712Y1993D01*
X712Y1995D01*
X708Y1995D01*
X708Y1997D01*
X706Y1997D01*
X706Y1999D01*
X704Y1999D01*
X704Y2001D01*
X702Y2001D01*
X702Y2003D01*
X700Y2003D01*
X700Y2007D01*
X678Y2007D01*
G37*
D02*
G36*
X778Y2007D02*
X778Y2005D01*
X776Y2005D01*
X776Y2001D01*
X774Y2001D01*
X774Y1999D01*
X770Y1999D01*
X770Y1997D01*
X768Y1997D01*
X768Y1995D01*
X766Y1995D01*
X766Y1993D01*
X762Y1993D01*
X762Y1991D01*
X758Y1991D01*
X758Y1989D01*
X754Y1989D01*
X754Y1987D01*
X744Y1987D01*
X744Y1985D01*
X832Y1985D01*
X832Y1987D01*
X824Y1987D01*
X824Y1989D01*
X818Y1989D01*
X818Y1991D01*
X814Y1991D01*
X814Y1993D01*
X812Y1993D01*
X812Y1995D01*
X808Y1995D01*
X808Y1997D01*
X806Y1997D01*
X806Y1999D01*
X804Y1999D01*
X804Y2001D01*
X802Y2001D01*
X802Y2003D01*
X800Y2003D01*
X800Y2007D01*
X778Y2007D01*
G37*
D02*
G36*
X878Y2007D02*
X878Y2005D01*
X876Y2005D01*
X876Y2001D01*
X874Y2001D01*
X874Y1999D01*
X870Y1999D01*
X870Y1997D01*
X868Y1997D01*
X868Y1995D01*
X866Y1995D01*
X866Y1993D01*
X862Y1993D01*
X862Y1991D01*
X858Y1991D01*
X858Y1989D01*
X854Y1989D01*
X854Y1987D01*
X844Y1987D01*
X844Y1985D01*
X932Y1985D01*
X932Y1987D01*
X924Y1987D01*
X924Y1989D01*
X918Y1989D01*
X918Y1991D01*
X914Y1991D01*
X914Y1993D01*
X912Y1993D01*
X912Y1995D01*
X908Y1995D01*
X908Y1997D01*
X906Y1997D01*
X906Y1999D01*
X904Y1999D01*
X904Y2001D01*
X902Y2001D01*
X902Y2003D01*
X900Y2003D01*
X900Y2007D01*
X878Y2007D01*
G37*
D02*
G36*
X978Y2007D02*
X978Y2005D01*
X976Y2005D01*
X976Y2001D01*
X974Y2001D01*
X974Y1999D01*
X970Y1999D01*
X970Y1997D01*
X968Y1997D01*
X968Y1995D01*
X966Y1995D01*
X966Y1993D01*
X962Y1993D01*
X962Y1991D01*
X958Y1991D01*
X958Y1989D01*
X954Y1989D01*
X954Y1987D01*
X944Y1987D01*
X944Y1985D01*
X1032Y1985D01*
X1032Y1987D01*
X1024Y1987D01*
X1024Y1989D01*
X1018Y1989D01*
X1018Y1991D01*
X1014Y1991D01*
X1014Y1993D01*
X1012Y1993D01*
X1012Y1995D01*
X1008Y1995D01*
X1008Y1997D01*
X1006Y1997D01*
X1006Y1999D01*
X1004Y1999D01*
X1004Y2001D01*
X1002Y2001D01*
X1002Y2003D01*
X1000Y2003D01*
X1000Y2007D01*
X978Y2007D01*
G37*
D02*
G36*
X1078Y2007D02*
X1078Y2005D01*
X1076Y2005D01*
X1076Y2001D01*
X1074Y2001D01*
X1074Y1999D01*
X1070Y1999D01*
X1070Y1997D01*
X1068Y1997D01*
X1068Y1995D01*
X1066Y1995D01*
X1066Y1993D01*
X1062Y1993D01*
X1062Y1991D01*
X1058Y1991D01*
X1058Y1989D01*
X1054Y1989D01*
X1054Y1987D01*
X1044Y1987D01*
X1044Y1985D01*
X1132Y1985D01*
X1132Y1987D01*
X1124Y1987D01*
X1124Y1989D01*
X1118Y1989D01*
X1118Y1991D01*
X1114Y1991D01*
X1114Y1993D01*
X1112Y1993D01*
X1112Y1995D01*
X1108Y1995D01*
X1108Y1997D01*
X1106Y1997D01*
X1106Y1999D01*
X1104Y1999D01*
X1104Y2001D01*
X1102Y2001D01*
X1102Y2003D01*
X1100Y2003D01*
X1100Y2007D01*
X1078Y2007D01*
G37*
D02*
G36*
X1178Y2007D02*
X1178Y2005D01*
X1176Y2005D01*
X1176Y2001D01*
X1174Y2001D01*
X1174Y1999D01*
X1170Y1999D01*
X1170Y1997D01*
X1168Y1997D01*
X1168Y1995D01*
X1166Y1995D01*
X1166Y1993D01*
X1162Y1993D01*
X1162Y1991D01*
X1158Y1991D01*
X1158Y1989D01*
X1154Y1989D01*
X1154Y1987D01*
X1144Y1987D01*
X1144Y1985D01*
X1232Y1985D01*
X1232Y1987D01*
X1224Y1987D01*
X1224Y1989D01*
X1218Y1989D01*
X1218Y1991D01*
X1214Y1991D01*
X1214Y1993D01*
X1212Y1993D01*
X1212Y1995D01*
X1208Y1995D01*
X1208Y1997D01*
X1206Y1997D01*
X1206Y1999D01*
X1204Y1999D01*
X1204Y2001D01*
X1202Y2001D01*
X1202Y2003D01*
X1200Y2003D01*
X1200Y2007D01*
X1178Y2007D01*
G37*
D02*
G36*
X1278Y2007D02*
X1278Y2005D01*
X1276Y2005D01*
X1276Y2001D01*
X1274Y2001D01*
X1274Y1999D01*
X1270Y1999D01*
X1270Y1997D01*
X1268Y1997D01*
X1268Y1995D01*
X1266Y1995D01*
X1266Y1993D01*
X1262Y1993D01*
X1262Y1991D01*
X1258Y1991D01*
X1258Y1989D01*
X1254Y1989D01*
X1254Y1987D01*
X1244Y1987D01*
X1244Y1985D01*
X1332Y1985D01*
X1332Y1987D01*
X1324Y1987D01*
X1324Y1989D01*
X1318Y1989D01*
X1318Y1991D01*
X1314Y1991D01*
X1314Y1993D01*
X1312Y1993D01*
X1312Y1995D01*
X1308Y1995D01*
X1308Y1997D01*
X1306Y1997D01*
X1306Y1999D01*
X1304Y1999D01*
X1304Y2001D01*
X1302Y2001D01*
X1302Y2003D01*
X1300Y2003D01*
X1300Y2007D01*
X1278Y2007D01*
G37*
D02*
G36*
X1378Y2007D02*
X1378Y2005D01*
X1376Y2005D01*
X1376Y2001D01*
X1374Y2001D01*
X1374Y1999D01*
X1370Y1999D01*
X1370Y1997D01*
X1368Y1997D01*
X1368Y1995D01*
X1366Y1995D01*
X1366Y1993D01*
X1362Y1993D01*
X1362Y1991D01*
X1358Y1991D01*
X1358Y1989D01*
X1354Y1989D01*
X1354Y1987D01*
X1344Y1987D01*
X1344Y1985D01*
X1432Y1985D01*
X1432Y1987D01*
X1424Y1987D01*
X1424Y1989D01*
X1418Y1989D01*
X1418Y1991D01*
X1414Y1991D01*
X1414Y1993D01*
X1412Y1993D01*
X1412Y1995D01*
X1408Y1995D01*
X1408Y1997D01*
X1406Y1997D01*
X1406Y1999D01*
X1404Y1999D01*
X1404Y2001D01*
X1402Y2001D01*
X1402Y2003D01*
X1400Y2003D01*
X1400Y2007D01*
X1378Y2007D01*
G37*
D02*
G36*
X1478Y2007D02*
X1478Y2005D01*
X1476Y2005D01*
X1476Y2001D01*
X1474Y2001D01*
X1474Y1999D01*
X1470Y1999D01*
X1470Y1997D01*
X1468Y1997D01*
X1468Y1995D01*
X1466Y1995D01*
X1466Y1993D01*
X1462Y1993D01*
X1462Y1991D01*
X1458Y1991D01*
X1458Y1989D01*
X1454Y1989D01*
X1454Y1987D01*
X1444Y1987D01*
X1444Y1985D01*
X1532Y1985D01*
X1532Y1987D01*
X1524Y1987D01*
X1524Y1989D01*
X1518Y1989D01*
X1518Y1991D01*
X1514Y1991D01*
X1514Y1993D01*
X1512Y1993D01*
X1512Y1995D01*
X1508Y1995D01*
X1508Y1997D01*
X1506Y1997D01*
X1506Y1999D01*
X1504Y1999D01*
X1504Y2001D01*
X1502Y2001D01*
X1502Y2003D01*
X1500Y2003D01*
X1500Y2007D01*
X1478Y2007D01*
G37*
D02*
G36*
X1578Y2007D02*
X1578Y2005D01*
X1576Y2005D01*
X1576Y2001D01*
X1574Y2001D01*
X1574Y1999D01*
X1570Y1999D01*
X1570Y1997D01*
X1568Y1997D01*
X1568Y1995D01*
X1566Y1995D01*
X1566Y1993D01*
X1562Y1993D01*
X1562Y1991D01*
X1558Y1991D01*
X1558Y1989D01*
X1554Y1989D01*
X1554Y1987D01*
X1544Y1987D01*
X1544Y1985D01*
X1632Y1985D01*
X1632Y1987D01*
X1624Y1987D01*
X1624Y1989D01*
X1618Y1989D01*
X1618Y1991D01*
X1614Y1991D01*
X1614Y1993D01*
X1612Y1993D01*
X1612Y1995D01*
X1608Y1995D01*
X1608Y1997D01*
X1606Y1997D01*
X1606Y1999D01*
X1604Y1999D01*
X1604Y2001D01*
X1602Y2001D01*
X1602Y2003D01*
X1600Y2003D01*
X1600Y2007D01*
X1578Y2007D01*
G37*
D02*
G36*
X1678Y2007D02*
X1678Y2005D01*
X1676Y2005D01*
X1676Y2001D01*
X1674Y2001D01*
X1674Y1999D01*
X1670Y1999D01*
X1670Y1997D01*
X1668Y1997D01*
X1668Y1995D01*
X1666Y1995D01*
X1666Y1993D01*
X1662Y1993D01*
X1662Y1991D01*
X1658Y1991D01*
X1658Y1989D01*
X1654Y1989D01*
X1654Y1987D01*
X1644Y1987D01*
X1644Y1985D01*
X1732Y1985D01*
X1732Y1987D01*
X1724Y1987D01*
X1724Y1989D01*
X1718Y1989D01*
X1718Y1991D01*
X1714Y1991D01*
X1714Y1993D01*
X1712Y1993D01*
X1712Y1995D01*
X1708Y1995D01*
X1708Y1997D01*
X1706Y1997D01*
X1706Y1999D01*
X1704Y1999D01*
X1704Y2001D01*
X1702Y2001D01*
X1702Y2003D01*
X1700Y2003D01*
X1700Y2007D01*
X1678Y2007D01*
G37*
D02*
G36*
X1778Y2007D02*
X1778Y2005D01*
X1776Y2005D01*
X1776Y2001D01*
X1774Y2001D01*
X1774Y1999D01*
X1770Y1999D01*
X1770Y1997D01*
X1768Y1997D01*
X1768Y1995D01*
X1766Y1995D01*
X1766Y1993D01*
X1762Y1993D01*
X1762Y1991D01*
X1758Y1991D01*
X1758Y1989D01*
X1754Y1989D01*
X1754Y1987D01*
X1744Y1987D01*
X1744Y1985D01*
X1832Y1985D01*
X1832Y1987D01*
X1824Y1987D01*
X1824Y1989D01*
X1818Y1989D01*
X1818Y1991D01*
X1814Y1991D01*
X1814Y1993D01*
X1812Y1993D01*
X1812Y1995D01*
X1808Y1995D01*
X1808Y1997D01*
X1806Y1997D01*
X1806Y1999D01*
X1804Y1999D01*
X1804Y2001D01*
X1802Y2001D01*
X1802Y2003D01*
X1800Y2003D01*
X1800Y2007D01*
X1778Y2007D01*
G37*
D02*
G36*
X1878Y2007D02*
X1878Y2005D01*
X1876Y2005D01*
X1876Y2001D01*
X1874Y2001D01*
X1874Y1999D01*
X1870Y1999D01*
X1870Y1997D01*
X1868Y1997D01*
X1868Y1995D01*
X1866Y1995D01*
X1866Y1993D01*
X1862Y1993D01*
X1862Y1991D01*
X1858Y1991D01*
X1858Y1989D01*
X1854Y1989D01*
X1854Y1987D01*
X1844Y1987D01*
X1844Y1985D01*
X1932Y1985D01*
X1932Y1987D01*
X1924Y1987D01*
X1924Y1989D01*
X1918Y1989D01*
X1918Y1991D01*
X1914Y1991D01*
X1914Y1993D01*
X1912Y1993D01*
X1912Y1995D01*
X1908Y1995D01*
X1908Y1997D01*
X1906Y1997D01*
X1906Y1999D01*
X1904Y1999D01*
X1904Y2001D01*
X1902Y2001D01*
X1902Y2003D01*
X1900Y2003D01*
X1900Y2007D01*
X1878Y2007D01*
G37*
D02*
G36*
X1978Y2007D02*
X1978Y2005D01*
X1976Y2005D01*
X1976Y2001D01*
X1974Y2001D01*
X1974Y1999D01*
X1970Y1999D01*
X1970Y1997D01*
X1968Y1997D01*
X1968Y1995D01*
X1966Y1995D01*
X1966Y1993D01*
X1962Y1993D01*
X1962Y1991D01*
X1958Y1991D01*
X1958Y1989D01*
X1954Y1989D01*
X1954Y1987D01*
X1944Y1987D01*
X1944Y1985D01*
X2032Y1985D01*
X2032Y1987D01*
X2024Y1987D01*
X2024Y1989D01*
X2018Y1989D01*
X2018Y1991D01*
X2014Y1991D01*
X2014Y1993D01*
X2012Y1993D01*
X2012Y1995D01*
X2008Y1995D01*
X2008Y1997D01*
X2006Y1997D01*
X2006Y1999D01*
X2004Y1999D01*
X2004Y2001D01*
X2002Y2001D01*
X2002Y2003D01*
X2000Y2003D01*
X2000Y2007D01*
X1978Y2007D01*
G37*
D02*
G36*
X2078Y2007D02*
X2078Y2005D01*
X2076Y2005D01*
X2076Y2001D01*
X2074Y2001D01*
X2074Y1999D01*
X2070Y1999D01*
X2070Y1997D01*
X2068Y1997D01*
X2068Y1995D01*
X2066Y1995D01*
X2066Y1993D01*
X2062Y1993D01*
X2062Y1991D01*
X2058Y1991D01*
X2058Y1989D01*
X2054Y1989D01*
X2054Y1987D01*
X2044Y1987D01*
X2044Y1985D01*
X2132Y1985D01*
X2132Y1987D01*
X2124Y1987D01*
X2124Y1989D01*
X2118Y1989D01*
X2118Y1991D01*
X2114Y1991D01*
X2114Y1993D01*
X2112Y1993D01*
X2112Y1995D01*
X2108Y1995D01*
X2108Y1997D01*
X2106Y1997D01*
X2106Y1999D01*
X2104Y1999D01*
X2104Y2001D01*
X2102Y2001D01*
X2102Y2003D01*
X2100Y2003D01*
X2100Y2007D01*
X2078Y2007D01*
G37*
D02*
G36*
X2178Y2007D02*
X2178Y2005D01*
X2176Y2005D01*
X2176Y2001D01*
X2174Y2001D01*
X2174Y1999D01*
X2170Y1999D01*
X2170Y1997D01*
X2168Y1997D01*
X2168Y1995D01*
X2166Y1995D01*
X2166Y1993D01*
X2162Y1993D01*
X2162Y1991D01*
X2158Y1991D01*
X2158Y1989D01*
X2154Y1989D01*
X2154Y1987D01*
X2144Y1987D01*
X2144Y1985D01*
X2232Y1985D01*
X2232Y1987D01*
X2224Y1987D01*
X2224Y1989D01*
X2218Y1989D01*
X2218Y1991D01*
X2214Y1991D01*
X2214Y1993D01*
X2212Y1993D01*
X2212Y1995D01*
X2208Y1995D01*
X2208Y1997D01*
X2206Y1997D01*
X2206Y1999D01*
X2204Y1999D01*
X2204Y2001D01*
X2202Y2001D01*
X2202Y2003D01*
X2200Y2003D01*
X2200Y2007D01*
X2178Y2007D01*
G37*
D02*
G36*
X2278Y2007D02*
X2278Y2005D01*
X3314Y2005D01*
X3314Y2007D01*
X2278Y2007D01*
G37*
D02*
G36*
X2278Y2007D02*
X2278Y2005D01*
X3314Y2005D01*
X3314Y2007D01*
X2278Y2007D01*
G37*
D02*
G36*
X48Y2005D02*
X48Y1985D01*
X332Y1985D01*
X332Y1987D01*
X324Y1987D01*
X324Y1989D01*
X318Y1989D01*
X318Y1991D01*
X314Y1991D01*
X314Y1993D01*
X312Y1993D01*
X312Y1995D01*
X308Y1995D01*
X308Y1997D01*
X306Y1997D01*
X306Y1999D01*
X304Y1999D01*
X304Y2001D01*
X302Y2001D01*
X302Y2003D01*
X300Y2003D01*
X300Y2005D01*
X48Y2005D01*
G37*
D02*
G36*
X2276Y2005D02*
X2276Y2001D01*
X2274Y2001D01*
X2274Y1999D01*
X2270Y1999D01*
X2270Y1997D01*
X2268Y1997D01*
X2268Y1995D01*
X2266Y1995D01*
X2266Y1993D01*
X2262Y1993D01*
X2262Y1991D01*
X2258Y1991D01*
X2258Y1989D01*
X2254Y1989D01*
X2254Y1987D01*
X2244Y1987D01*
X2244Y1985D01*
X3314Y1985D01*
X3314Y2005D01*
X2276Y2005D01*
G37*
D02*
G36*
X48Y1985D02*
X48Y1983D01*
X3314Y1983D01*
X3314Y1985D01*
X48Y1985D01*
G37*
D02*
G36*
X48Y1985D02*
X48Y1983D01*
X3314Y1983D01*
X3314Y1985D01*
X48Y1985D01*
G37*
D02*
G36*
X48Y1985D02*
X48Y1983D01*
X3314Y1983D01*
X3314Y1985D01*
X48Y1985D01*
G37*
D02*
G36*
X48Y1985D02*
X48Y1983D01*
X3314Y1983D01*
X3314Y1985D01*
X48Y1985D01*
G37*
D02*
G36*
X48Y1985D02*
X48Y1983D01*
X3314Y1983D01*
X3314Y1985D01*
X48Y1985D01*
G37*
D02*
G36*
X48Y1985D02*
X48Y1983D01*
X3314Y1983D01*
X3314Y1985D01*
X48Y1985D01*
G37*
D02*
G36*
X48Y1985D02*
X48Y1983D01*
X3314Y1983D01*
X3314Y1985D01*
X48Y1985D01*
G37*
D02*
G36*
X48Y1985D02*
X48Y1983D01*
X3314Y1983D01*
X3314Y1985D01*
X48Y1985D01*
G37*
D02*
G36*
X48Y1985D02*
X48Y1983D01*
X3314Y1983D01*
X3314Y1985D01*
X48Y1985D01*
G37*
D02*
G36*
X48Y1985D02*
X48Y1983D01*
X3314Y1983D01*
X3314Y1985D01*
X48Y1985D01*
G37*
D02*
G36*
X48Y1985D02*
X48Y1983D01*
X3314Y1983D01*
X3314Y1985D01*
X48Y1985D01*
G37*
D02*
G36*
X48Y1985D02*
X48Y1983D01*
X3314Y1983D01*
X3314Y1985D01*
X48Y1985D01*
G37*
D02*
G36*
X48Y1985D02*
X48Y1983D01*
X3314Y1983D01*
X3314Y1985D01*
X48Y1985D01*
G37*
D02*
G36*
X48Y1985D02*
X48Y1983D01*
X3314Y1983D01*
X3314Y1985D01*
X48Y1985D01*
G37*
D02*
G36*
X48Y1985D02*
X48Y1983D01*
X3314Y1983D01*
X3314Y1985D01*
X48Y1985D01*
G37*
D02*
G36*
X48Y1985D02*
X48Y1983D01*
X3314Y1983D01*
X3314Y1985D01*
X48Y1985D01*
G37*
D02*
G36*
X48Y1985D02*
X48Y1983D01*
X3314Y1983D01*
X3314Y1985D01*
X48Y1985D01*
G37*
D02*
G36*
X48Y1985D02*
X48Y1983D01*
X3314Y1983D01*
X3314Y1985D01*
X48Y1985D01*
G37*
D02*
G36*
X48Y1985D02*
X48Y1983D01*
X3314Y1983D01*
X3314Y1985D01*
X48Y1985D01*
G37*
D02*
G36*
X48Y1985D02*
X48Y1983D01*
X3314Y1983D01*
X3314Y1985D01*
X48Y1985D01*
G37*
D02*
G36*
X48Y1985D02*
X48Y1983D01*
X3314Y1983D01*
X3314Y1985D01*
X48Y1985D01*
G37*
D02*
G36*
X48Y1983D02*
X48Y1883D01*
X268Y1883D01*
X268Y1881D01*
X276Y1881D01*
X276Y1879D01*
X280Y1879D01*
X280Y1877D01*
X284Y1877D01*
X284Y1875D01*
X288Y1875D01*
X288Y1873D01*
X290Y1873D01*
X290Y1871D01*
X292Y1871D01*
X292Y1869D01*
X294Y1869D01*
X294Y1867D01*
X2008Y1867D01*
X2008Y1773D01*
X3314Y1773D01*
X3314Y1983D01*
X48Y1983D01*
G37*
D02*
G36*
X48Y1883D02*
X48Y1881D01*
X74Y1881D01*
X74Y1883D01*
X48Y1883D01*
G37*
D02*
G36*
X90Y1883D02*
X90Y1881D01*
X98Y1881D01*
X98Y1879D01*
X102Y1879D01*
X102Y1877D01*
X106Y1877D01*
X106Y1875D01*
X110Y1875D01*
X110Y1873D01*
X112Y1873D01*
X112Y1871D01*
X114Y1871D01*
X114Y1869D01*
X116Y1869D01*
X116Y1867D01*
X118Y1867D01*
X118Y1865D01*
X120Y1865D01*
X120Y1863D01*
X122Y1863D01*
X122Y1859D01*
X124Y1859D01*
X124Y1855D01*
X126Y1855D01*
X126Y1849D01*
X128Y1849D01*
X128Y1841D01*
X130Y1841D01*
X130Y1831D01*
X128Y1831D01*
X128Y1821D01*
X126Y1821D01*
X126Y1817D01*
X124Y1817D01*
X124Y1813D01*
X122Y1813D01*
X122Y1809D01*
X120Y1809D01*
X120Y1807D01*
X118Y1807D01*
X118Y1805D01*
X116Y1805D01*
X116Y1803D01*
X114Y1803D01*
X114Y1801D01*
X112Y1801D01*
X112Y1799D01*
X110Y1799D01*
X110Y1797D01*
X106Y1797D01*
X106Y1795D01*
X104Y1795D01*
X104Y1793D01*
X98Y1793D01*
X98Y1791D01*
X92Y1791D01*
X92Y1789D01*
X250Y1789D01*
X250Y1791D01*
X244Y1791D01*
X244Y1793D01*
X240Y1793D01*
X240Y1795D01*
X236Y1795D01*
X236Y1797D01*
X232Y1797D01*
X232Y1799D01*
X230Y1799D01*
X230Y1801D01*
X228Y1801D01*
X228Y1803D01*
X226Y1803D01*
X226Y1805D01*
X224Y1805D01*
X224Y1807D01*
X222Y1807D01*
X222Y1811D01*
X220Y1811D01*
X220Y1815D01*
X218Y1815D01*
X218Y1817D01*
X216Y1817D01*
X216Y1825D01*
X214Y1825D01*
X214Y1847D01*
X216Y1847D01*
X216Y1853D01*
X218Y1853D01*
X218Y1857D01*
X220Y1857D01*
X220Y1861D01*
X222Y1861D01*
X222Y1863D01*
X224Y1863D01*
X224Y1867D01*
X226Y1867D01*
X226Y1869D01*
X228Y1869D01*
X228Y1871D01*
X230Y1871D01*
X230Y1873D01*
X234Y1873D01*
X234Y1875D01*
X236Y1875D01*
X236Y1877D01*
X240Y1877D01*
X240Y1879D01*
X244Y1879D01*
X244Y1881D01*
X252Y1881D01*
X252Y1883D01*
X90Y1883D01*
G37*
D02*
G36*
X296Y1867D02*
X296Y1865D01*
X298Y1865D01*
X298Y1863D01*
X300Y1863D01*
X300Y1859D01*
X302Y1859D01*
X302Y1855D01*
X304Y1855D01*
X304Y1849D01*
X306Y1849D01*
X306Y1841D01*
X308Y1841D01*
X308Y1831D01*
X306Y1831D01*
X306Y1821D01*
X304Y1821D01*
X304Y1817D01*
X302Y1817D01*
X302Y1813D01*
X300Y1813D01*
X300Y1809D01*
X298Y1809D01*
X298Y1807D01*
X296Y1807D01*
X296Y1805D01*
X294Y1805D01*
X294Y1803D01*
X292Y1803D01*
X292Y1801D01*
X290Y1801D01*
X290Y1799D01*
X288Y1799D01*
X288Y1797D01*
X284Y1797D01*
X284Y1795D01*
X282Y1795D01*
X282Y1793D01*
X276Y1793D01*
X276Y1791D01*
X270Y1791D01*
X270Y1789D01*
X1824Y1789D01*
X1824Y1791D01*
X1822Y1791D01*
X1822Y1793D01*
X1820Y1793D01*
X1820Y1797D01*
X1818Y1797D01*
X1818Y1801D01*
X1816Y1801D01*
X1816Y1807D01*
X1814Y1807D01*
X1814Y1819D01*
X1812Y1819D01*
X1812Y1821D01*
X1814Y1821D01*
X1814Y1833D01*
X1816Y1833D01*
X1816Y1839D01*
X1818Y1839D01*
X1818Y1843D01*
X1820Y1843D01*
X1820Y1847D01*
X1822Y1847D01*
X1822Y1849D01*
X1824Y1849D01*
X1824Y1851D01*
X1826Y1851D01*
X1826Y1853D01*
X1828Y1853D01*
X1828Y1855D01*
X1830Y1855D01*
X1830Y1857D01*
X1832Y1857D01*
X1832Y1859D01*
X1836Y1859D01*
X1836Y1861D01*
X1838Y1861D01*
X1838Y1863D01*
X1844Y1863D01*
X1844Y1865D01*
X1850Y1865D01*
X1850Y1867D01*
X296Y1867D01*
G37*
D02*
G36*
X1872Y1867D02*
X1872Y1865D01*
X1878Y1865D01*
X1878Y1863D01*
X1882Y1863D01*
X1882Y1861D01*
X1886Y1861D01*
X1886Y1859D01*
X1888Y1859D01*
X1888Y1857D01*
X1890Y1857D01*
X1890Y1855D01*
X1912Y1855D01*
X1912Y1867D01*
X1872Y1867D01*
G37*
D02*
G36*
X48Y1791D02*
X48Y1789D01*
X72Y1789D01*
X72Y1791D01*
X48Y1791D01*
G37*
D02*
G36*
X48Y1789D02*
X48Y1787D01*
X1826Y1787D01*
X1826Y1789D01*
X48Y1789D01*
G37*
D02*
G36*
X48Y1789D02*
X48Y1787D01*
X1826Y1787D01*
X1826Y1789D01*
X48Y1789D01*
G37*
D02*
G36*
X48Y1789D02*
X48Y1787D01*
X1826Y1787D01*
X1826Y1789D01*
X48Y1789D01*
G37*
D02*
G36*
X48Y1787D02*
X48Y1627D01*
X268Y1627D01*
X268Y1625D01*
X276Y1625D01*
X276Y1623D01*
X280Y1623D01*
X280Y1621D01*
X284Y1621D01*
X284Y1619D01*
X288Y1619D01*
X288Y1617D01*
X290Y1617D01*
X290Y1615D01*
X292Y1615D01*
X292Y1613D01*
X294Y1613D01*
X294Y1611D01*
X296Y1611D01*
X296Y1609D01*
X298Y1609D01*
X298Y1607D01*
X300Y1607D01*
X300Y1603D01*
X302Y1603D01*
X302Y1599D01*
X304Y1599D01*
X304Y1593D01*
X306Y1593D01*
X306Y1585D01*
X308Y1585D01*
X308Y1575D01*
X306Y1575D01*
X306Y1565D01*
X304Y1565D01*
X304Y1561D01*
X302Y1561D01*
X302Y1557D01*
X300Y1557D01*
X300Y1553D01*
X298Y1553D01*
X298Y1551D01*
X296Y1551D01*
X296Y1549D01*
X294Y1549D01*
X294Y1547D01*
X292Y1547D01*
X292Y1545D01*
X290Y1545D01*
X290Y1543D01*
X288Y1543D01*
X288Y1541D01*
X284Y1541D01*
X284Y1539D01*
X282Y1539D01*
X282Y1537D01*
X276Y1537D01*
X276Y1535D01*
X270Y1535D01*
X270Y1533D01*
X1274Y1533D01*
X1274Y1535D01*
X1270Y1535D01*
X1270Y1537D01*
X1266Y1537D01*
X1266Y1539D01*
X1262Y1539D01*
X1262Y1541D01*
X1256Y1541D01*
X1256Y1543D01*
X1252Y1543D01*
X1252Y1545D01*
X1248Y1545D01*
X1248Y1547D01*
X1244Y1547D01*
X1244Y1549D01*
X1240Y1549D01*
X1240Y1551D01*
X1236Y1551D01*
X1236Y1553D01*
X1232Y1553D01*
X1232Y1555D01*
X1226Y1555D01*
X1226Y1557D01*
X1222Y1557D01*
X1222Y1559D01*
X1218Y1559D01*
X1218Y1561D01*
X1214Y1561D01*
X1214Y1563D01*
X1210Y1563D01*
X1210Y1565D01*
X1206Y1565D01*
X1206Y1567D01*
X1202Y1567D01*
X1202Y1569D01*
X1198Y1569D01*
X1198Y1571D01*
X1194Y1571D01*
X1194Y1573D01*
X1192Y1573D01*
X1192Y1575D01*
X1190Y1575D01*
X1190Y1577D01*
X1188Y1577D01*
X1188Y1579D01*
X1186Y1579D01*
X1186Y1581D01*
X1184Y1581D01*
X1184Y1583D01*
X1182Y1583D01*
X1182Y1585D01*
X1180Y1585D01*
X1180Y1587D01*
X1178Y1587D01*
X1178Y1589D01*
X1176Y1589D01*
X1176Y1591D01*
X1174Y1591D01*
X1174Y1593D01*
X1172Y1593D01*
X1172Y1595D01*
X1170Y1595D01*
X1170Y1597D01*
X1168Y1597D01*
X1168Y1599D01*
X1166Y1599D01*
X1166Y1601D01*
X1164Y1601D01*
X1164Y1603D01*
X1162Y1603D01*
X1162Y1605D01*
X1160Y1605D01*
X1160Y1607D01*
X1156Y1607D01*
X1156Y1609D01*
X1154Y1609D01*
X1154Y1611D01*
X1152Y1611D01*
X1152Y1613D01*
X1150Y1613D01*
X1150Y1615D01*
X1148Y1615D01*
X1148Y1617D01*
X1146Y1617D01*
X1146Y1619D01*
X1144Y1619D01*
X1144Y1621D01*
X1142Y1621D01*
X1142Y1623D01*
X1140Y1623D01*
X1140Y1625D01*
X1138Y1625D01*
X1138Y1627D01*
X1136Y1627D01*
X1136Y1629D01*
X1134Y1629D01*
X1134Y1631D01*
X1132Y1631D01*
X1132Y1633D01*
X1130Y1633D01*
X1130Y1635D01*
X1128Y1635D01*
X1128Y1637D01*
X1126Y1637D01*
X1126Y1639D01*
X1124Y1639D01*
X1124Y1641D01*
X1122Y1641D01*
X1122Y1643D01*
X1120Y1643D01*
X1120Y1645D01*
X1118Y1645D01*
X1118Y1647D01*
X1114Y1647D01*
X1114Y1649D01*
X1112Y1649D01*
X1112Y1651D01*
X1110Y1651D01*
X1110Y1653D01*
X1108Y1653D01*
X1108Y1655D01*
X1106Y1655D01*
X1106Y1657D01*
X1104Y1657D01*
X1104Y1659D01*
X1102Y1659D01*
X1102Y1661D01*
X1100Y1661D01*
X1100Y1663D01*
X1098Y1663D01*
X1098Y1665D01*
X1096Y1665D01*
X1096Y1667D01*
X1094Y1667D01*
X1094Y1669D01*
X1092Y1669D01*
X1092Y1671D01*
X1090Y1671D01*
X1090Y1673D01*
X1088Y1673D01*
X1088Y1675D01*
X1086Y1675D01*
X1086Y1677D01*
X1084Y1677D01*
X1084Y1679D01*
X1082Y1679D01*
X1082Y1681D01*
X1080Y1681D01*
X1080Y1683D01*
X1078Y1683D01*
X1078Y1685D01*
X1076Y1685D01*
X1076Y1687D01*
X1072Y1687D01*
X1072Y1689D01*
X1070Y1689D01*
X1070Y1691D01*
X1068Y1691D01*
X1068Y1693D01*
X1040Y1693D01*
X1040Y1695D01*
X1032Y1695D01*
X1032Y1697D01*
X1028Y1697D01*
X1028Y1699D01*
X1024Y1699D01*
X1024Y1701D01*
X1022Y1701D01*
X1022Y1703D01*
X1020Y1703D01*
X1020Y1705D01*
X1018Y1705D01*
X1018Y1707D01*
X1016Y1707D01*
X1016Y1709D01*
X1014Y1709D01*
X1014Y1711D01*
X1012Y1711D01*
X1012Y1713D01*
X1010Y1713D01*
X1010Y1717D01*
X1008Y1717D01*
X1008Y1721D01*
X1006Y1721D01*
X1006Y1727D01*
X1004Y1727D01*
X1004Y1739D01*
X1002Y1739D01*
X1002Y1741D01*
X1004Y1741D01*
X1004Y1753D01*
X1006Y1753D01*
X1006Y1759D01*
X1008Y1759D01*
X1008Y1763D01*
X1010Y1763D01*
X1010Y1767D01*
X1012Y1767D01*
X1012Y1769D01*
X1014Y1769D01*
X1014Y1771D01*
X1016Y1771D01*
X1016Y1773D01*
X1018Y1773D01*
X1018Y1775D01*
X1020Y1775D01*
X1020Y1777D01*
X1022Y1777D01*
X1022Y1779D01*
X1026Y1779D01*
X1026Y1781D01*
X1028Y1781D01*
X1028Y1783D01*
X1034Y1783D01*
X1034Y1785D01*
X1040Y1785D01*
X1040Y1787D01*
X48Y1787D01*
G37*
D02*
G36*
X1062Y1787D02*
X1062Y1785D01*
X1068Y1785D01*
X1068Y1783D01*
X1072Y1783D01*
X1072Y1781D01*
X1076Y1781D01*
X1076Y1779D01*
X1078Y1779D01*
X1078Y1777D01*
X1080Y1777D01*
X1080Y1775D01*
X1084Y1775D01*
X1084Y1773D01*
X1850Y1773D01*
X1850Y1775D01*
X1842Y1775D01*
X1842Y1777D01*
X1838Y1777D01*
X1838Y1779D01*
X1834Y1779D01*
X1834Y1781D01*
X1832Y1781D01*
X1832Y1783D01*
X1830Y1783D01*
X1830Y1785D01*
X1828Y1785D01*
X1828Y1787D01*
X1062Y1787D01*
G37*
D02*
G36*
X1892Y1785D02*
X1892Y1783D01*
X1888Y1783D01*
X1888Y1781D01*
X1886Y1781D01*
X1886Y1779D01*
X1882Y1779D01*
X1882Y1777D01*
X1878Y1777D01*
X1878Y1775D01*
X1872Y1775D01*
X1872Y1773D01*
X1912Y1773D01*
X1912Y1785D01*
X1892Y1785D01*
G37*
D02*
G36*
X1086Y1773D02*
X1086Y1771D01*
X3314Y1771D01*
X3314Y1773D01*
X1086Y1773D01*
G37*
D02*
G36*
X1086Y1773D02*
X1086Y1771D01*
X3314Y1771D01*
X3314Y1773D01*
X1086Y1773D01*
G37*
D02*
G36*
X1086Y1773D02*
X1086Y1771D01*
X3314Y1771D01*
X3314Y1773D01*
X1086Y1773D01*
G37*
D02*
G36*
X1086Y1771D02*
X1086Y1769D01*
X1088Y1769D01*
X1088Y1767D01*
X1090Y1767D01*
X1090Y1765D01*
X1092Y1765D01*
X1092Y1761D01*
X1094Y1761D01*
X1094Y1755D01*
X1096Y1755D01*
X1096Y1749D01*
X1098Y1749D01*
X1098Y1731D01*
X1332Y1731D01*
X1332Y1697D01*
X2332Y1697D01*
X2332Y1695D01*
X2338Y1695D01*
X2338Y1693D01*
X2342Y1693D01*
X2342Y1691D01*
X2346Y1691D01*
X2346Y1689D01*
X2348Y1689D01*
X2348Y1687D01*
X2350Y1687D01*
X2350Y1685D01*
X2354Y1685D01*
X2354Y1683D01*
X2356Y1683D01*
X2356Y1679D01*
X2358Y1679D01*
X2358Y1677D01*
X2360Y1677D01*
X2360Y1675D01*
X2362Y1675D01*
X2362Y1671D01*
X2364Y1671D01*
X2364Y1665D01*
X2366Y1665D01*
X2366Y1659D01*
X2368Y1659D01*
X2368Y1641D01*
X2366Y1641D01*
X2366Y1635D01*
X2364Y1635D01*
X2364Y1629D01*
X2362Y1629D01*
X2362Y1625D01*
X2360Y1625D01*
X2360Y1623D01*
X2358Y1623D01*
X2358Y1621D01*
X2356Y1621D01*
X2356Y1617D01*
X2354Y1617D01*
X2354Y1615D01*
X2352Y1615D01*
X2352Y1613D01*
X2348Y1613D01*
X2348Y1611D01*
X2346Y1611D01*
X2346Y1609D01*
X2342Y1609D01*
X2342Y1607D01*
X2338Y1607D01*
X2338Y1605D01*
X2332Y1605D01*
X2332Y1603D01*
X3314Y1603D01*
X3314Y1771D01*
X1086Y1771D01*
G37*
D02*
G36*
X1098Y1731D02*
X1098Y1723D01*
X1102Y1723D01*
X1102Y1721D01*
X1104Y1721D01*
X1104Y1719D01*
X1106Y1719D01*
X1106Y1717D01*
X1108Y1717D01*
X1108Y1715D01*
X1110Y1715D01*
X1110Y1713D01*
X1112Y1713D01*
X1112Y1711D01*
X1114Y1711D01*
X1114Y1709D01*
X1116Y1709D01*
X1116Y1707D01*
X1118Y1707D01*
X1118Y1705D01*
X1120Y1705D01*
X1120Y1703D01*
X1122Y1703D01*
X1122Y1701D01*
X1124Y1701D01*
X1124Y1699D01*
X1126Y1699D01*
X1126Y1697D01*
X1128Y1697D01*
X1128Y1695D01*
X1130Y1695D01*
X1130Y1693D01*
X1132Y1693D01*
X1132Y1691D01*
X1134Y1691D01*
X1134Y1689D01*
X1136Y1689D01*
X1136Y1687D01*
X1138Y1687D01*
X1138Y1685D01*
X1140Y1685D01*
X1140Y1683D01*
X1144Y1683D01*
X1144Y1681D01*
X1146Y1681D01*
X1146Y1679D01*
X1148Y1679D01*
X1148Y1677D01*
X1150Y1677D01*
X1150Y1675D01*
X1152Y1675D01*
X1152Y1673D01*
X1154Y1673D01*
X1154Y1671D01*
X1156Y1671D01*
X1156Y1669D01*
X1158Y1669D01*
X1158Y1667D01*
X1160Y1667D01*
X1160Y1665D01*
X1162Y1665D01*
X1162Y1663D01*
X1164Y1663D01*
X1164Y1661D01*
X1166Y1661D01*
X1166Y1659D01*
X1168Y1659D01*
X1168Y1657D01*
X1170Y1657D01*
X1170Y1655D01*
X1172Y1655D01*
X1172Y1653D01*
X1174Y1653D01*
X1174Y1651D01*
X1176Y1651D01*
X1176Y1649D01*
X1178Y1649D01*
X1178Y1647D01*
X1180Y1647D01*
X1180Y1645D01*
X1182Y1645D01*
X1182Y1643D01*
X1186Y1643D01*
X1186Y1641D01*
X1188Y1641D01*
X1188Y1639D01*
X1190Y1639D01*
X1190Y1637D01*
X1192Y1637D01*
X1192Y1635D01*
X1194Y1635D01*
X1194Y1633D01*
X1196Y1633D01*
X1196Y1631D01*
X1198Y1631D01*
X1198Y1629D01*
X1230Y1629D01*
X1230Y1731D01*
X1098Y1731D01*
G37*
D02*
G36*
X1332Y1697D02*
X1332Y1677D01*
X1962Y1677D01*
X1962Y1675D01*
X1968Y1675D01*
X1968Y1673D01*
X1972Y1673D01*
X1972Y1671D01*
X1976Y1671D01*
X1976Y1669D01*
X1978Y1669D01*
X1978Y1667D01*
X1980Y1667D01*
X1980Y1665D01*
X1984Y1665D01*
X1984Y1663D01*
X1986Y1663D01*
X1986Y1659D01*
X1988Y1659D01*
X1988Y1657D01*
X1990Y1657D01*
X1990Y1655D01*
X1992Y1655D01*
X1992Y1651D01*
X1994Y1651D01*
X1994Y1645D01*
X1996Y1645D01*
X1996Y1639D01*
X1998Y1639D01*
X1998Y1621D01*
X1996Y1621D01*
X1996Y1615D01*
X1994Y1615D01*
X1994Y1609D01*
X1992Y1609D01*
X1992Y1605D01*
X1990Y1605D01*
X1990Y1603D01*
X2310Y1603D01*
X2310Y1605D01*
X2302Y1605D01*
X2302Y1607D01*
X2298Y1607D01*
X2298Y1609D01*
X2294Y1609D01*
X2294Y1611D01*
X2292Y1611D01*
X2292Y1613D01*
X2290Y1613D01*
X2290Y1615D01*
X2288Y1615D01*
X2288Y1617D01*
X2286Y1617D01*
X2286Y1619D01*
X2284Y1619D01*
X2284Y1621D01*
X2282Y1621D01*
X2282Y1623D01*
X2280Y1623D01*
X2280Y1627D01*
X2278Y1627D01*
X2278Y1631D01*
X2276Y1631D01*
X2276Y1637D01*
X2274Y1637D01*
X2274Y1649D01*
X2272Y1649D01*
X2272Y1651D01*
X2274Y1651D01*
X2274Y1663D01*
X2276Y1663D01*
X2276Y1669D01*
X2278Y1669D01*
X2278Y1673D01*
X2280Y1673D01*
X2280Y1677D01*
X2282Y1677D01*
X2282Y1679D01*
X2284Y1679D01*
X2284Y1681D01*
X2286Y1681D01*
X2286Y1683D01*
X2288Y1683D01*
X2288Y1685D01*
X2290Y1685D01*
X2290Y1687D01*
X2292Y1687D01*
X2292Y1689D01*
X2296Y1689D01*
X2296Y1691D01*
X2298Y1691D01*
X2298Y1693D01*
X2304Y1693D01*
X2304Y1695D01*
X2310Y1695D01*
X2310Y1697D01*
X1332Y1697D01*
G37*
D02*
G36*
X1332Y1677D02*
X1332Y1631D01*
X1330Y1631D01*
X1330Y1629D01*
X1902Y1629D01*
X1902Y1631D01*
X1904Y1631D01*
X1904Y1643D01*
X1906Y1643D01*
X1906Y1649D01*
X1908Y1649D01*
X1908Y1653D01*
X1910Y1653D01*
X1910Y1657D01*
X1912Y1657D01*
X1912Y1659D01*
X1914Y1659D01*
X1914Y1661D01*
X1916Y1661D01*
X1916Y1663D01*
X1918Y1663D01*
X1918Y1665D01*
X1920Y1665D01*
X1920Y1667D01*
X1922Y1667D01*
X1922Y1669D01*
X1926Y1669D01*
X1926Y1671D01*
X1928Y1671D01*
X1928Y1673D01*
X1934Y1673D01*
X1934Y1675D01*
X1940Y1675D01*
X1940Y1677D01*
X1332Y1677D01*
G37*
D02*
G36*
X1200Y1629D02*
X1200Y1627D01*
X1904Y1627D01*
X1904Y1629D01*
X1200Y1629D01*
G37*
D02*
G36*
X1200Y1629D02*
X1200Y1627D01*
X1904Y1627D01*
X1904Y1629D01*
X1200Y1629D01*
G37*
D02*
G36*
X48Y1627D02*
X48Y1625D01*
X74Y1625D01*
X74Y1627D01*
X48Y1627D01*
G37*
D02*
G36*
X90Y1627D02*
X90Y1625D01*
X98Y1625D01*
X98Y1623D01*
X102Y1623D01*
X102Y1621D01*
X106Y1621D01*
X106Y1619D01*
X110Y1619D01*
X110Y1617D01*
X112Y1617D01*
X112Y1615D01*
X114Y1615D01*
X114Y1613D01*
X116Y1613D01*
X116Y1611D01*
X118Y1611D01*
X118Y1609D01*
X120Y1609D01*
X120Y1607D01*
X122Y1607D01*
X122Y1603D01*
X124Y1603D01*
X124Y1599D01*
X126Y1599D01*
X126Y1593D01*
X128Y1593D01*
X128Y1585D01*
X130Y1585D01*
X130Y1575D01*
X128Y1575D01*
X128Y1565D01*
X126Y1565D01*
X126Y1561D01*
X124Y1561D01*
X124Y1557D01*
X122Y1557D01*
X122Y1553D01*
X120Y1553D01*
X120Y1551D01*
X118Y1551D01*
X118Y1549D01*
X116Y1549D01*
X116Y1547D01*
X114Y1547D01*
X114Y1545D01*
X112Y1545D01*
X112Y1543D01*
X110Y1543D01*
X110Y1541D01*
X106Y1541D01*
X106Y1539D01*
X104Y1539D01*
X104Y1537D01*
X98Y1537D01*
X98Y1535D01*
X92Y1535D01*
X92Y1533D01*
X250Y1533D01*
X250Y1535D01*
X244Y1535D01*
X244Y1537D01*
X240Y1537D01*
X240Y1539D01*
X236Y1539D01*
X236Y1541D01*
X232Y1541D01*
X232Y1543D01*
X230Y1543D01*
X230Y1545D01*
X228Y1545D01*
X228Y1547D01*
X226Y1547D01*
X226Y1549D01*
X224Y1549D01*
X224Y1551D01*
X222Y1551D01*
X222Y1555D01*
X220Y1555D01*
X220Y1559D01*
X218Y1559D01*
X218Y1561D01*
X216Y1561D01*
X216Y1569D01*
X214Y1569D01*
X214Y1591D01*
X216Y1591D01*
X216Y1597D01*
X218Y1597D01*
X218Y1601D01*
X220Y1601D01*
X220Y1605D01*
X222Y1605D01*
X222Y1607D01*
X224Y1607D01*
X224Y1611D01*
X226Y1611D01*
X226Y1613D01*
X228Y1613D01*
X228Y1615D01*
X230Y1615D01*
X230Y1617D01*
X234Y1617D01*
X234Y1619D01*
X236Y1619D01*
X236Y1621D01*
X240Y1621D01*
X240Y1623D01*
X244Y1623D01*
X244Y1625D01*
X252Y1625D01*
X252Y1627D01*
X90Y1627D01*
G37*
D02*
G36*
X1202Y1627D02*
X1202Y1625D01*
X1204Y1625D01*
X1204Y1623D01*
X1206Y1623D01*
X1206Y1621D01*
X1208Y1621D01*
X1208Y1619D01*
X1210Y1619D01*
X1210Y1617D01*
X1212Y1617D01*
X1212Y1615D01*
X1214Y1615D01*
X1214Y1613D01*
X1216Y1613D01*
X1216Y1611D01*
X1218Y1611D01*
X1218Y1609D01*
X1220Y1609D01*
X1220Y1607D01*
X1224Y1607D01*
X1224Y1605D01*
X1228Y1605D01*
X1228Y1603D01*
X1232Y1603D01*
X1232Y1601D01*
X1236Y1601D01*
X1236Y1599D01*
X1240Y1599D01*
X1240Y1597D01*
X1246Y1597D01*
X1246Y1595D01*
X1250Y1595D01*
X1250Y1593D01*
X1254Y1593D01*
X1254Y1591D01*
X1258Y1591D01*
X1258Y1589D01*
X1262Y1589D01*
X1262Y1587D01*
X1266Y1587D01*
X1266Y1585D01*
X1270Y1585D01*
X1270Y1583D01*
X1940Y1583D01*
X1940Y1585D01*
X1932Y1585D01*
X1932Y1587D01*
X1928Y1587D01*
X1928Y1589D01*
X1924Y1589D01*
X1924Y1591D01*
X1922Y1591D01*
X1922Y1593D01*
X1920Y1593D01*
X1920Y1595D01*
X1918Y1595D01*
X1918Y1597D01*
X1916Y1597D01*
X1916Y1599D01*
X1914Y1599D01*
X1914Y1601D01*
X1912Y1601D01*
X1912Y1603D01*
X1910Y1603D01*
X1910Y1607D01*
X1908Y1607D01*
X1908Y1611D01*
X1906Y1611D01*
X1906Y1617D01*
X1904Y1617D01*
X1904Y1627D01*
X1202Y1627D01*
G37*
D02*
G36*
X1988Y1603D02*
X1988Y1601D01*
X3314Y1601D01*
X3314Y1603D01*
X1988Y1603D01*
G37*
D02*
G36*
X1988Y1603D02*
X1988Y1601D01*
X3314Y1601D01*
X3314Y1603D01*
X1988Y1603D01*
G37*
D02*
G36*
X1986Y1601D02*
X1986Y1597D01*
X1984Y1597D01*
X1984Y1595D01*
X1982Y1595D01*
X1982Y1593D01*
X1978Y1593D01*
X1978Y1591D01*
X1976Y1591D01*
X1976Y1589D01*
X1972Y1589D01*
X1972Y1587D01*
X1968Y1587D01*
X1968Y1585D01*
X1962Y1585D01*
X1962Y1583D01*
X3314Y1583D01*
X3314Y1601D01*
X1986Y1601D01*
G37*
D02*
G36*
X1276Y1583D02*
X1276Y1581D01*
X3314Y1581D01*
X3314Y1583D01*
X1276Y1583D01*
G37*
D02*
G36*
X1276Y1583D02*
X1276Y1581D01*
X3314Y1581D01*
X3314Y1583D01*
X1276Y1583D01*
G37*
D02*
G36*
X1280Y1581D02*
X1280Y1579D01*
X1284Y1579D01*
X1284Y1577D01*
X1288Y1577D01*
X1288Y1575D01*
X1292Y1575D01*
X1292Y1573D01*
X1296Y1573D01*
X1296Y1571D01*
X1300Y1571D01*
X1300Y1569D01*
X1306Y1569D01*
X1306Y1567D01*
X1310Y1567D01*
X1310Y1565D01*
X1314Y1565D01*
X1314Y1563D01*
X1318Y1563D01*
X1318Y1561D01*
X1322Y1561D01*
X1322Y1559D01*
X1326Y1559D01*
X1326Y1557D01*
X1330Y1557D01*
X1330Y1555D01*
X1336Y1555D01*
X1336Y1553D01*
X1340Y1553D01*
X1340Y1551D01*
X1344Y1551D01*
X1344Y1549D01*
X1348Y1549D01*
X1348Y1547D01*
X1352Y1547D01*
X1352Y1545D01*
X1356Y1545D01*
X1356Y1543D01*
X1360Y1543D01*
X1360Y1541D01*
X1366Y1541D01*
X1366Y1539D01*
X1370Y1539D01*
X1370Y1537D01*
X1374Y1537D01*
X1374Y1535D01*
X1378Y1535D01*
X1378Y1533D01*
X1382Y1533D01*
X1382Y1531D01*
X1386Y1531D01*
X1386Y1529D01*
X1392Y1529D01*
X1392Y1527D01*
X1396Y1527D01*
X1396Y1525D01*
X1400Y1525D01*
X1400Y1523D01*
X1404Y1523D01*
X1404Y1521D01*
X1408Y1521D01*
X1408Y1519D01*
X1412Y1519D01*
X1412Y1517D01*
X1416Y1517D01*
X1416Y1515D01*
X1422Y1515D01*
X1422Y1513D01*
X1426Y1513D01*
X1426Y1511D01*
X1430Y1511D01*
X1430Y1509D01*
X1434Y1509D01*
X1434Y1507D01*
X1438Y1507D01*
X1438Y1505D01*
X1442Y1505D01*
X1442Y1503D01*
X1446Y1503D01*
X1446Y1501D01*
X1452Y1501D01*
X1452Y1499D01*
X1456Y1499D01*
X1456Y1497D01*
X1460Y1497D01*
X1460Y1495D01*
X1464Y1495D01*
X1464Y1493D01*
X1486Y1493D01*
X1486Y1491D01*
X1490Y1491D01*
X1490Y1489D01*
X1494Y1489D01*
X1494Y1487D01*
X1496Y1487D01*
X1496Y1485D01*
X1498Y1485D01*
X1498Y1483D01*
X1500Y1483D01*
X1500Y1479D01*
X1502Y1479D01*
X1502Y1477D01*
X1504Y1477D01*
X1504Y1469D01*
X1506Y1469D01*
X1506Y1459D01*
X1504Y1459D01*
X1504Y1451D01*
X1502Y1451D01*
X1502Y1449D01*
X1500Y1449D01*
X1500Y1445D01*
X1498Y1445D01*
X1498Y1443D01*
X1496Y1443D01*
X1496Y1441D01*
X1494Y1441D01*
X1494Y1439D01*
X1490Y1439D01*
X1490Y1437D01*
X1484Y1437D01*
X1484Y1435D01*
X3314Y1435D01*
X3314Y1581D01*
X1280Y1581D01*
G37*
D02*
G36*
X48Y1535D02*
X48Y1533D01*
X72Y1533D01*
X72Y1535D01*
X48Y1535D01*
G37*
D02*
G36*
X48Y1533D02*
X48Y1531D01*
X1278Y1531D01*
X1278Y1533D01*
X48Y1533D01*
G37*
D02*
G36*
X48Y1533D02*
X48Y1531D01*
X1278Y1531D01*
X1278Y1533D01*
X48Y1533D01*
G37*
D02*
G36*
X48Y1533D02*
X48Y1531D01*
X1278Y1531D01*
X1278Y1533D01*
X48Y1533D01*
G37*
D02*
G36*
X48Y1531D02*
X48Y1447D01*
X832Y1447D01*
X832Y1445D01*
X838Y1445D01*
X838Y1443D01*
X842Y1443D01*
X842Y1441D01*
X846Y1441D01*
X846Y1439D01*
X848Y1439D01*
X848Y1437D01*
X850Y1437D01*
X850Y1435D01*
X1468Y1435D01*
X1468Y1437D01*
X1462Y1437D01*
X1462Y1439D01*
X1458Y1439D01*
X1458Y1441D01*
X1456Y1441D01*
X1456Y1443D01*
X1454Y1443D01*
X1454Y1445D01*
X1452Y1445D01*
X1452Y1449D01*
X1450Y1449D01*
X1450Y1451D01*
X1448Y1451D01*
X1448Y1453D01*
X1446Y1453D01*
X1446Y1455D01*
X1442Y1455D01*
X1442Y1457D01*
X1438Y1457D01*
X1438Y1459D01*
X1432Y1459D01*
X1432Y1461D01*
X1428Y1461D01*
X1428Y1463D01*
X1424Y1463D01*
X1424Y1465D01*
X1420Y1465D01*
X1420Y1467D01*
X1416Y1467D01*
X1416Y1469D01*
X1412Y1469D01*
X1412Y1471D01*
X1406Y1471D01*
X1406Y1473D01*
X1402Y1473D01*
X1402Y1475D01*
X1398Y1475D01*
X1398Y1477D01*
X1394Y1477D01*
X1394Y1479D01*
X1390Y1479D01*
X1390Y1481D01*
X1386Y1481D01*
X1386Y1483D01*
X1382Y1483D01*
X1382Y1485D01*
X1376Y1485D01*
X1376Y1487D01*
X1372Y1487D01*
X1372Y1489D01*
X1368Y1489D01*
X1368Y1491D01*
X1364Y1491D01*
X1364Y1493D01*
X1360Y1493D01*
X1360Y1495D01*
X1356Y1495D01*
X1356Y1497D01*
X1352Y1497D01*
X1352Y1499D01*
X1346Y1499D01*
X1346Y1501D01*
X1342Y1501D01*
X1342Y1503D01*
X1338Y1503D01*
X1338Y1505D01*
X1334Y1505D01*
X1334Y1507D01*
X1330Y1507D01*
X1330Y1509D01*
X1326Y1509D01*
X1326Y1511D01*
X1322Y1511D01*
X1322Y1513D01*
X1316Y1513D01*
X1316Y1515D01*
X1312Y1515D01*
X1312Y1517D01*
X1308Y1517D01*
X1308Y1519D01*
X1304Y1519D01*
X1304Y1521D01*
X1300Y1521D01*
X1300Y1523D01*
X1296Y1523D01*
X1296Y1525D01*
X1292Y1525D01*
X1292Y1527D01*
X1286Y1527D01*
X1286Y1529D01*
X1282Y1529D01*
X1282Y1531D01*
X48Y1531D01*
G37*
D02*
G36*
X48Y1447D02*
X48Y1399D01*
X378Y1399D01*
X378Y1397D01*
X386Y1397D01*
X386Y1395D01*
X392Y1395D01*
X392Y1393D01*
X394Y1393D01*
X394Y1391D01*
X398Y1391D01*
X398Y1389D01*
X400Y1389D01*
X400Y1387D01*
X404Y1387D01*
X404Y1385D01*
X406Y1385D01*
X406Y1383D01*
X408Y1383D01*
X408Y1379D01*
X410Y1379D01*
X410Y1377D01*
X412Y1377D01*
X412Y1373D01*
X414Y1373D01*
X414Y1369D01*
X416Y1369D01*
X416Y1365D01*
X418Y1365D01*
X418Y1355D01*
X420Y1355D01*
X420Y1353D01*
X810Y1353D01*
X810Y1355D01*
X802Y1355D01*
X802Y1357D01*
X798Y1357D01*
X798Y1359D01*
X794Y1359D01*
X794Y1361D01*
X792Y1361D01*
X792Y1363D01*
X790Y1363D01*
X790Y1365D01*
X788Y1365D01*
X788Y1367D01*
X786Y1367D01*
X786Y1369D01*
X784Y1369D01*
X784Y1371D01*
X782Y1371D01*
X782Y1373D01*
X780Y1373D01*
X780Y1377D01*
X778Y1377D01*
X778Y1381D01*
X776Y1381D01*
X776Y1387D01*
X774Y1387D01*
X774Y1399D01*
X772Y1399D01*
X772Y1401D01*
X774Y1401D01*
X774Y1413D01*
X776Y1413D01*
X776Y1419D01*
X778Y1419D01*
X778Y1423D01*
X780Y1423D01*
X780Y1427D01*
X782Y1427D01*
X782Y1429D01*
X784Y1429D01*
X784Y1431D01*
X786Y1431D01*
X786Y1433D01*
X788Y1433D01*
X788Y1435D01*
X790Y1435D01*
X790Y1437D01*
X792Y1437D01*
X792Y1439D01*
X796Y1439D01*
X796Y1441D01*
X798Y1441D01*
X798Y1443D01*
X804Y1443D01*
X804Y1445D01*
X810Y1445D01*
X810Y1447D01*
X48Y1447D01*
G37*
D02*
G36*
X854Y1435D02*
X854Y1433D01*
X3314Y1433D01*
X3314Y1435D01*
X854Y1435D01*
G37*
D02*
G36*
X854Y1435D02*
X854Y1433D01*
X3314Y1433D01*
X3314Y1435D01*
X854Y1435D01*
G37*
D02*
G36*
X856Y1433D02*
X856Y1429D01*
X858Y1429D01*
X858Y1427D01*
X860Y1427D01*
X860Y1425D01*
X862Y1425D01*
X862Y1421D01*
X864Y1421D01*
X864Y1415D01*
X866Y1415D01*
X866Y1409D01*
X868Y1409D01*
X868Y1391D01*
X866Y1391D01*
X866Y1387D01*
X1062Y1387D01*
X1062Y1385D01*
X1068Y1385D01*
X1068Y1383D01*
X1072Y1383D01*
X1072Y1381D01*
X1076Y1381D01*
X1076Y1379D01*
X1078Y1379D01*
X1078Y1377D01*
X1080Y1377D01*
X1080Y1375D01*
X1084Y1375D01*
X1084Y1373D01*
X1086Y1373D01*
X1086Y1369D01*
X1088Y1369D01*
X1088Y1367D01*
X1090Y1367D01*
X1090Y1365D01*
X1092Y1365D01*
X1092Y1361D01*
X1094Y1361D01*
X1094Y1355D01*
X1096Y1355D01*
X1096Y1349D01*
X1098Y1349D01*
X1098Y1331D01*
X1270Y1331D01*
X1270Y1333D01*
X1264Y1333D01*
X1264Y1335D01*
X1258Y1335D01*
X1258Y1337D01*
X1254Y1337D01*
X1254Y1339D01*
X1252Y1339D01*
X1252Y1341D01*
X1250Y1341D01*
X1250Y1343D01*
X1246Y1343D01*
X1246Y1345D01*
X1244Y1345D01*
X1244Y1347D01*
X1242Y1347D01*
X1242Y1349D01*
X1240Y1349D01*
X1240Y1353D01*
X1238Y1353D01*
X1238Y1355D01*
X1236Y1355D01*
X1236Y1359D01*
X1234Y1359D01*
X1234Y1363D01*
X1232Y1363D01*
X1232Y1369D01*
X1230Y1369D01*
X1230Y1395D01*
X1232Y1395D01*
X1232Y1401D01*
X1234Y1401D01*
X1234Y1405D01*
X1236Y1405D01*
X1236Y1409D01*
X1238Y1409D01*
X1238Y1411D01*
X1240Y1411D01*
X1240Y1413D01*
X1242Y1413D01*
X1242Y1417D01*
X1244Y1417D01*
X1244Y1419D01*
X1246Y1419D01*
X1246Y1421D01*
X1250Y1421D01*
X1250Y1423D01*
X1252Y1423D01*
X1252Y1425D01*
X1256Y1425D01*
X1256Y1427D01*
X1258Y1427D01*
X1258Y1429D01*
X1264Y1429D01*
X1264Y1431D01*
X1272Y1431D01*
X1272Y1433D01*
X856Y1433D01*
G37*
D02*
G36*
X1290Y1433D02*
X1290Y1431D01*
X1298Y1431D01*
X1298Y1429D01*
X1302Y1429D01*
X1302Y1427D01*
X1306Y1427D01*
X1306Y1425D01*
X1308Y1425D01*
X1308Y1423D01*
X1312Y1423D01*
X1312Y1421D01*
X1314Y1421D01*
X1314Y1419D01*
X1316Y1419D01*
X1316Y1417D01*
X1318Y1417D01*
X1318Y1415D01*
X1320Y1415D01*
X1320Y1413D01*
X1322Y1413D01*
X1322Y1409D01*
X1324Y1409D01*
X1324Y1407D01*
X1326Y1407D01*
X1326Y1403D01*
X1328Y1403D01*
X1328Y1397D01*
X1330Y1397D01*
X1330Y1387D01*
X1332Y1387D01*
X1332Y1377D01*
X1330Y1377D01*
X1330Y1367D01*
X1328Y1367D01*
X1328Y1361D01*
X1326Y1361D01*
X1326Y1357D01*
X1324Y1357D01*
X1324Y1355D01*
X1322Y1355D01*
X1322Y1351D01*
X1320Y1351D01*
X1320Y1349D01*
X1318Y1349D01*
X1318Y1347D01*
X1316Y1347D01*
X1316Y1345D01*
X1314Y1345D01*
X1314Y1343D01*
X1312Y1343D01*
X1312Y1341D01*
X1310Y1341D01*
X1310Y1339D01*
X1306Y1339D01*
X1306Y1337D01*
X1302Y1337D01*
X1302Y1335D01*
X1298Y1335D01*
X1298Y1333D01*
X1290Y1333D01*
X1290Y1331D01*
X3314Y1331D01*
X3314Y1433D01*
X1290Y1433D01*
G37*
D02*
G36*
X48Y1399D02*
X48Y1001D01*
X360Y1001D01*
X360Y1003D01*
X354Y1003D01*
X354Y1005D01*
X350Y1005D01*
X350Y1007D01*
X346Y1007D01*
X346Y1009D01*
X342Y1009D01*
X342Y1011D01*
X340Y1011D01*
X340Y1013D01*
X338Y1013D01*
X338Y1015D01*
X336Y1015D01*
X336Y1017D01*
X334Y1017D01*
X334Y1019D01*
X332Y1019D01*
X332Y1021D01*
X330Y1021D01*
X330Y1025D01*
X328Y1025D01*
X328Y1027D01*
X326Y1027D01*
X326Y1031D01*
X324Y1031D01*
X324Y1039D01*
X322Y1039D01*
X322Y1061D01*
X324Y1061D01*
X324Y1069D01*
X326Y1069D01*
X326Y1073D01*
X328Y1073D01*
X328Y1075D01*
X330Y1075D01*
X330Y1079D01*
X332Y1079D01*
X332Y1081D01*
X334Y1081D01*
X334Y1083D01*
X336Y1083D01*
X336Y1085D01*
X338Y1085D01*
X338Y1087D01*
X340Y1087D01*
X340Y1089D01*
X342Y1089D01*
X342Y1111D01*
X340Y1111D01*
X340Y1113D01*
X338Y1113D01*
X338Y1115D01*
X336Y1115D01*
X336Y1117D01*
X334Y1117D01*
X334Y1119D01*
X332Y1119D01*
X332Y1121D01*
X330Y1121D01*
X330Y1125D01*
X328Y1125D01*
X328Y1127D01*
X326Y1127D01*
X326Y1131D01*
X324Y1131D01*
X324Y1139D01*
X322Y1139D01*
X322Y1161D01*
X324Y1161D01*
X324Y1169D01*
X326Y1169D01*
X326Y1173D01*
X328Y1173D01*
X328Y1175D01*
X330Y1175D01*
X330Y1179D01*
X332Y1179D01*
X332Y1181D01*
X334Y1181D01*
X334Y1183D01*
X336Y1183D01*
X336Y1185D01*
X338Y1185D01*
X338Y1187D01*
X340Y1187D01*
X340Y1189D01*
X342Y1189D01*
X342Y1211D01*
X340Y1211D01*
X340Y1213D01*
X338Y1213D01*
X338Y1215D01*
X336Y1215D01*
X336Y1217D01*
X334Y1217D01*
X334Y1219D01*
X332Y1219D01*
X332Y1221D01*
X330Y1221D01*
X330Y1225D01*
X328Y1225D01*
X328Y1227D01*
X326Y1227D01*
X326Y1231D01*
X324Y1231D01*
X324Y1239D01*
X322Y1239D01*
X322Y1261D01*
X324Y1261D01*
X324Y1269D01*
X326Y1269D01*
X326Y1273D01*
X328Y1273D01*
X328Y1275D01*
X330Y1275D01*
X330Y1279D01*
X332Y1279D01*
X332Y1281D01*
X334Y1281D01*
X334Y1283D01*
X336Y1283D01*
X336Y1285D01*
X338Y1285D01*
X338Y1287D01*
X340Y1287D01*
X340Y1289D01*
X342Y1289D01*
X342Y1311D01*
X340Y1311D01*
X340Y1313D01*
X338Y1313D01*
X338Y1315D01*
X336Y1315D01*
X336Y1317D01*
X334Y1317D01*
X334Y1319D01*
X332Y1319D01*
X332Y1321D01*
X330Y1321D01*
X330Y1325D01*
X328Y1325D01*
X328Y1327D01*
X326Y1327D01*
X326Y1331D01*
X324Y1331D01*
X324Y1339D01*
X322Y1339D01*
X322Y1361D01*
X324Y1361D01*
X324Y1369D01*
X326Y1369D01*
X326Y1373D01*
X328Y1373D01*
X328Y1375D01*
X330Y1375D01*
X330Y1379D01*
X332Y1379D01*
X332Y1381D01*
X334Y1381D01*
X334Y1383D01*
X336Y1383D01*
X336Y1385D01*
X338Y1385D01*
X338Y1387D01*
X340Y1387D01*
X340Y1389D01*
X342Y1389D01*
X342Y1391D01*
X346Y1391D01*
X346Y1393D01*
X350Y1393D01*
X350Y1395D01*
X354Y1395D01*
X354Y1397D01*
X362Y1397D01*
X362Y1399D01*
X48Y1399D01*
G37*
D02*
G36*
X866Y1387D02*
X866Y1385D01*
X864Y1385D01*
X864Y1379D01*
X862Y1379D01*
X862Y1375D01*
X860Y1375D01*
X860Y1373D01*
X858Y1373D01*
X858Y1371D01*
X856Y1371D01*
X856Y1367D01*
X854Y1367D01*
X854Y1365D01*
X852Y1365D01*
X852Y1363D01*
X848Y1363D01*
X848Y1361D01*
X846Y1361D01*
X846Y1359D01*
X842Y1359D01*
X842Y1357D01*
X838Y1357D01*
X838Y1355D01*
X832Y1355D01*
X832Y1353D01*
X1006Y1353D01*
X1006Y1359D01*
X1008Y1359D01*
X1008Y1363D01*
X1010Y1363D01*
X1010Y1367D01*
X1012Y1367D01*
X1012Y1369D01*
X1014Y1369D01*
X1014Y1371D01*
X1016Y1371D01*
X1016Y1373D01*
X1018Y1373D01*
X1018Y1375D01*
X1020Y1375D01*
X1020Y1377D01*
X1022Y1377D01*
X1022Y1379D01*
X1026Y1379D01*
X1026Y1381D01*
X1028Y1381D01*
X1028Y1383D01*
X1034Y1383D01*
X1034Y1385D01*
X1040Y1385D01*
X1040Y1387D01*
X866Y1387D01*
G37*
D02*
G36*
X420Y1353D02*
X420Y1351D01*
X1004Y1351D01*
X1004Y1353D01*
X420Y1353D01*
G37*
D02*
G36*
X420Y1353D02*
X420Y1351D01*
X1004Y1351D01*
X1004Y1353D01*
X420Y1353D01*
G37*
D02*
G36*
X420Y1351D02*
X420Y1345D01*
X418Y1345D01*
X418Y1335D01*
X416Y1335D01*
X416Y1329D01*
X414Y1329D01*
X414Y1327D01*
X412Y1327D01*
X412Y1323D01*
X410Y1323D01*
X410Y1321D01*
X408Y1321D01*
X408Y1317D01*
X406Y1317D01*
X406Y1315D01*
X404Y1315D01*
X404Y1313D01*
X402Y1313D01*
X402Y1311D01*
X398Y1311D01*
X398Y1293D01*
X1040Y1293D01*
X1040Y1295D01*
X1032Y1295D01*
X1032Y1297D01*
X1028Y1297D01*
X1028Y1299D01*
X1024Y1299D01*
X1024Y1301D01*
X1022Y1301D01*
X1022Y1303D01*
X1020Y1303D01*
X1020Y1305D01*
X1018Y1305D01*
X1018Y1307D01*
X1016Y1307D01*
X1016Y1309D01*
X1014Y1309D01*
X1014Y1311D01*
X1012Y1311D01*
X1012Y1313D01*
X1010Y1313D01*
X1010Y1317D01*
X1008Y1317D01*
X1008Y1321D01*
X1006Y1321D01*
X1006Y1327D01*
X1004Y1327D01*
X1004Y1339D01*
X1002Y1339D01*
X1002Y1341D01*
X1004Y1341D01*
X1004Y1351D01*
X420Y1351D01*
G37*
D02*
G36*
X1096Y1331D02*
X1096Y1329D01*
X3314Y1329D01*
X3314Y1331D01*
X1096Y1331D01*
G37*
D02*
G36*
X1096Y1331D02*
X1096Y1329D01*
X3314Y1329D01*
X3314Y1331D01*
X1096Y1331D01*
G37*
D02*
G36*
X1096Y1329D02*
X1096Y1327D01*
X2212Y1327D01*
X2212Y1325D01*
X2218Y1325D01*
X2218Y1323D01*
X2222Y1323D01*
X2222Y1321D01*
X2226Y1321D01*
X2226Y1319D01*
X2228Y1319D01*
X2228Y1317D01*
X2230Y1317D01*
X2230Y1315D01*
X2234Y1315D01*
X2234Y1313D01*
X2236Y1313D01*
X2236Y1309D01*
X2238Y1309D01*
X2238Y1307D01*
X2240Y1307D01*
X2240Y1305D01*
X2242Y1305D01*
X2242Y1301D01*
X2244Y1301D01*
X2244Y1297D01*
X2332Y1297D01*
X2332Y1295D01*
X2338Y1295D01*
X2338Y1293D01*
X2342Y1293D01*
X2342Y1291D01*
X2346Y1291D01*
X2346Y1289D01*
X2348Y1289D01*
X2348Y1287D01*
X2350Y1287D01*
X2350Y1285D01*
X2354Y1285D01*
X2354Y1283D01*
X2356Y1283D01*
X2356Y1279D01*
X2358Y1279D01*
X2358Y1277D01*
X2360Y1277D01*
X2360Y1275D01*
X2362Y1275D01*
X2362Y1271D01*
X2364Y1271D01*
X2364Y1265D01*
X2366Y1265D01*
X2366Y1259D01*
X2368Y1259D01*
X2368Y1241D01*
X2366Y1241D01*
X2366Y1235D01*
X2364Y1235D01*
X2364Y1229D01*
X2362Y1229D01*
X2362Y1225D01*
X2360Y1225D01*
X2360Y1223D01*
X2358Y1223D01*
X2358Y1221D01*
X2356Y1221D01*
X2356Y1217D01*
X2354Y1217D01*
X2354Y1215D01*
X2352Y1215D01*
X2352Y1213D01*
X2348Y1213D01*
X2348Y1211D01*
X2346Y1211D01*
X2346Y1209D01*
X2342Y1209D01*
X2342Y1207D01*
X2338Y1207D01*
X2338Y1205D01*
X2332Y1205D01*
X2332Y1203D01*
X3314Y1203D01*
X3314Y1329D01*
X1096Y1329D01*
G37*
D02*
G36*
X1096Y1327D02*
X1096Y1325D01*
X1094Y1325D01*
X1094Y1319D01*
X1092Y1319D01*
X1092Y1315D01*
X1090Y1315D01*
X1090Y1313D01*
X1088Y1313D01*
X1088Y1311D01*
X1086Y1311D01*
X1086Y1307D01*
X1084Y1307D01*
X1084Y1305D01*
X1082Y1305D01*
X1082Y1303D01*
X1078Y1303D01*
X1078Y1301D01*
X1076Y1301D01*
X1076Y1299D01*
X1072Y1299D01*
X1072Y1297D01*
X1068Y1297D01*
X1068Y1295D01*
X1062Y1295D01*
X1062Y1293D01*
X2156Y1293D01*
X2156Y1299D01*
X2158Y1299D01*
X2158Y1303D01*
X2160Y1303D01*
X2160Y1307D01*
X2162Y1307D01*
X2162Y1309D01*
X2164Y1309D01*
X2164Y1311D01*
X2166Y1311D01*
X2166Y1313D01*
X2168Y1313D01*
X2168Y1315D01*
X2170Y1315D01*
X2170Y1317D01*
X2172Y1317D01*
X2172Y1319D01*
X2176Y1319D01*
X2176Y1321D01*
X2178Y1321D01*
X2178Y1323D01*
X2184Y1323D01*
X2184Y1325D01*
X2190Y1325D01*
X2190Y1327D01*
X1096Y1327D01*
G37*
D02*
G36*
X2244Y1297D02*
X2244Y1295D01*
X2246Y1295D01*
X2246Y1289D01*
X2248Y1289D01*
X2248Y1271D01*
X2246Y1271D01*
X2246Y1265D01*
X2244Y1265D01*
X2244Y1259D01*
X2242Y1259D01*
X2242Y1255D01*
X2240Y1255D01*
X2240Y1253D01*
X2238Y1253D01*
X2238Y1251D01*
X2236Y1251D01*
X2236Y1247D01*
X2234Y1247D01*
X2234Y1245D01*
X2232Y1245D01*
X2232Y1243D01*
X2228Y1243D01*
X2228Y1241D01*
X2226Y1241D01*
X2226Y1239D01*
X2222Y1239D01*
X2222Y1237D01*
X2218Y1237D01*
X2218Y1235D01*
X2212Y1235D01*
X2212Y1233D01*
X2276Y1233D01*
X2276Y1237D01*
X2274Y1237D01*
X2274Y1249D01*
X2272Y1249D01*
X2272Y1251D01*
X2274Y1251D01*
X2274Y1263D01*
X2276Y1263D01*
X2276Y1269D01*
X2278Y1269D01*
X2278Y1273D01*
X2280Y1273D01*
X2280Y1277D01*
X2282Y1277D01*
X2282Y1279D01*
X2284Y1279D01*
X2284Y1281D01*
X2286Y1281D01*
X2286Y1283D01*
X2288Y1283D01*
X2288Y1285D01*
X2290Y1285D01*
X2290Y1287D01*
X2292Y1287D01*
X2292Y1289D01*
X2296Y1289D01*
X2296Y1291D01*
X2298Y1291D01*
X2298Y1293D01*
X2304Y1293D01*
X2304Y1295D01*
X2310Y1295D01*
X2310Y1297D01*
X2244Y1297D01*
G37*
D02*
G36*
X398Y1293D02*
X398Y1291D01*
X2154Y1291D01*
X2154Y1293D01*
X398Y1293D01*
G37*
D02*
G36*
X398Y1293D02*
X398Y1291D01*
X2154Y1291D01*
X2154Y1293D01*
X398Y1293D01*
G37*
D02*
G36*
X398Y1291D02*
X398Y1289D01*
X400Y1289D01*
X400Y1287D01*
X404Y1287D01*
X404Y1285D01*
X406Y1285D01*
X406Y1283D01*
X408Y1283D01*
X408Y1279D01*
X410Y1279D01*
X410Y1277D01*
X1962Y1277D01*
X1962Y1275D01*
X1968Y1275D01*
X1968Y1273D01*
X1972Y1273D01*
X1972Y1271D01*
X1976Y1271D01*
X1976Y1269D01*
X1978Y1269D01*
X1978Y1267D01*
X1980Y1267D01*
X1980Y1265D01*
X1984Y1265D01*
X1984Y1263D01*
X1986Y1263D01*
X1986Y1259D01*
X1988Y1259D01*
X1988Y1257D01*
X1990Y1257D01*
X1990Y1255D01*
X1992Y1255D01*
X1992Y1251D01*
X1994Y1251D01*
X1994Y1245D01*
X1996Y1245D01*
X1996Y1239D01*
X1998Y1239D01*
X1998Y1233D01*
X2190Y1233D01*
X2190Y1235D01*
X2182Y1235D01*
X2182Y1237D01*
X2178Y1237D01*
X2178Y1239D01*
X2174Y1239D01*
X2174Y1241D01*
X2172Y1241D01*
X2172Y1243D01*
X2170Y1243D01*
X2170Y1245D01*
X2168Y1245D01*
X2168Y1247D01*
X2166Y1247D01*
X2166Y1249D01*
X2164Y1249D01*
X2164Y1251D01*
X2162Y1251D01*
X2162Y1253D01*
X2160Y1253D01*
X2160Y1257D01*
X2158Y1257D01*
X2158Y1261D01*
X2156Y1261D01*
X2156Y1267D01*
X2154Y1267D01*
X2154Y1279D01*
X2152Y1279D01*
X2152Y1281D01*
X2154Y1281D01*
X2154Y1291D01*
X398Y1291D01*
G37*
D02*
G36*
X412Y1277D02*
X412Y1273D01*
X414Y1273D01*
X414Y1269D01*
X416Y1269D01*
X416Y1265D01*
X418Y1265D01*
X418Y1255D01*
X420Y1255D01*
X420Y1253D01*
X1142Y1253D01*
X1142Y1251D01*
X1144Y1251D01*
X1144Y1249D01*
X1146Y1249D01*
X1146Y1247D01*
X1148Y1247D01*
X1148Y1245D01*
X1150Y1245D01*
X1150Y1243D01*
X1152Y1243D01*
X1152Y1241D01*
X1154Y1241D01*
X1154Y1239D01*
X1156Y1239D01*
X1156Y1237D01*
X1158Y1237D01*
X1158Y1235D01*
X1160Y1235D01*
X1160Y1233D01*
X1162Y1233D01*
X1162Y1231D01*
X1282Y1231D01*
X1282Y1229D01*
X1288Y1229D01*
X1288Y1227D01*
X1292Y1227D01*
X1292Y1225D01*
X1296Y1225D01*
X1296Y1223D01*
X1300Y1223D01*
X1300Y1221D01*
X1302Y1221D01*
X1302Y1219D01*
X1304Y1219D01*
X1304Y1217D01*
X1306Y1217D01*
X1306Y1215D01*
X1308Y1215D01*
X1308Y1213D01*
X1310Y1213D01*
X1310Y1211D01*
X1312Y1211D01*
X1312Y1207D01*
X1314Y1207D01*
X1314Y1203D01*
X1316Y1203D01*
X1316Y1199D01*
X1318Y1199D01*
X1318Y1193D01*
X1320Y1193D01*
X1320Y1183D01*
X1940Y1183D01*
X1940Y1185D01*
X1932Y1185D01*
X1932Y1187D01*
X1928Y1187D01*
X1928Y1189D01*
X1924Y1189D01*
X1924Y1191D01*
X1922Y1191D01*
X1922Y1193D01*
X1920Y1193D01*
X1920Y1195D01*
X1918Y1195D01*
X1918Y1197D01*
X1916Y1197D01*
X1916Y1199D01*
X1914Y1199D01*
X1914Y1201D01*
X1912Y1201D01*
X1912Y1203D01*
X1910Y1203D01*
X1910Y1207D01*
X1908Y1207D01*
X1908Y1211D01*
X1906Y1211D01*
X1906Y1217D01*
X1904Y1217D01*
X1904Y1229D01*
X1902Y1229D01*
X1902Y1231D01*
X1904Y1231D01*
X1904Y1243D01*
X1906Y1243D01*
X1906Y1249D01*
X1908Y1249D01*
X1908Y1253D01*
X1910Y1253D01*
X1910Y1257D01*
X1912Y1257D01*
X1912Y1259D01*
X1914Y1259D01*
X1914Y1261D01*
X1916Y1261D01*
X1916Y1263D01*
X1918Y1263D01*
X1918Y1265D01*
X1920Y1265D01*
X1920Y1267D01*
X1922Y1267D01*
X1922Y1269D01*
X1926Y1269D01*
X1926Y1271D01*
X1928Y1271D01*
X1928Y1273D01*
X1934Y1273D01*
X1934Y1275D01*
X1940Y1275D01*
X1940Y1277D01*
X412Y1277D01*
G37*
D02*
G36*
X420Y1253D02*
X420Y1245D01*
X418Y1245D01*
X418Y1235D01*
X416Y1235D01*
X416Y1229D01*
X414Y1229D01*
X414Y1227D01*
X412Y1227D01*
X412Y1223D01*
X410Y1223D01*
X410Y1221D01*
X408Y1221D01*
X408Y1217D01*
X406Y1217D01*
X406Y1215D01*
X404Y1215D01*
X404Y1213D01*
X402Y1213D01*
X402Y1211D01*
X398Y1211D01*
X398Y1189D01*
X400Y1189D01*
X400Y1187D01*
X404Y1187D01*
X404Y1185D01*
X406Y1185D01*
X406Y1183D01*
X408Y1183D01*
X408Y1179D01*
X410Y1179D01*
X410Y1177D01*
X412Y1177D01*
X412Y1173D01*
X414Y1173D01*
X414Y1169D01*
X416Y1169D01*
X416Y1165D01*
X418Y1165D01*
X418Y1155D01*
X420Y1155D01*
X420Y1145D01*
X418Y1145D01*
X418Y1135D01*
X416Y1135D01*
X416Y1129D01*
X414Y1129D01*
X414Y1127D01*
X412Y1127D01*
X412Y1123D01*
X410Y1123D01*
X410Y1121D01*
X408Y1121D01*
X408Y1117D01*
X406Y1117D01*
X406Y1115D01*
X404Y1115D01*
X404Y1113D01*
X402Y1113D01*
X402Y1111D01*
X398Y1111D01*
X398Y1109D01*
X1140Y1109D01*
X1140Y1111D01*
X1138Y1111D01*
X1138Y1113D01*
X1136Y1113D01*
X1136Y1115D01*
X1134Y1115D01*
X1134Y1117D01*
X1132Y1117D01*
X1132Y1119D01*
X1130Y1119D01*
X1130Y1121D01*
X1128Y1121D01*
X1128Y1123D01*
X1126Y1123D01*
X1126Y1125D01*
X1124Y1125D01*
X1124Y1127D01*
X1122Y1127D01*
X1122Y1129D01*
X1120Y1129D01*
X1120Y1131D01*
X1118Y1131D01*
X1118Y1133D01*
X1116Y1133D01*
X1116Y1135D01*
X1114Y1135D01*
X1114Y1137D01*
X1112Y1137D01*
X1112Y1139D01*
X1108Y1139D01*
X1108Y1141D01*
X1106Y1141D01*
X1106Y1143D01*
X1104Y1143D01*
X1104Y1145D01*
X1102Y1145D01*
X1102Y1147D01*
X1100Y1147D01*
X1100Y1151D01*
X1098Y1151D01*
X1098Y1153D01*
X1096Y1153D01*
X1096Y1155D01*
X1094Y1155D01*
X1094Y1157D01*
X1092Y1157D01*
X1092Y1159D01*
X1090Y1159D01*
X1090Y1161D01*
X1088Y1161D01*
X1088Y1163D01*
X1086Y1163D01*
X1086Y1165D01*
X1084Y1165D01*
X1084Y1167D01*
X1082Y1167D01*
X1082Y1169D01*
X1080Y1169D01*
X1080Y1171D01*
X1078Y1171D01*
X1078Y1173D01*
X1076Y1173D01*
X1076Y1175D01*
X1074Y1175D01*
X1074Y1177D01*
X1072Y1177D01*
X1072Y1179D01*
X1070Y1179D01*
X1070Y1183D01*
X1072Y1183D01*
X1072Y1185D01*
X1074Y1185D01*
X1074Y1187D01*
X1076Y1187D01*
X1076Y1189D01*
X1078Y1189D01*
X1078Y1191D01*
X1080Y1191D01*
X1080Y1193D01*
X1082Y1193D01*
X1082Y1195D01*
X1084Y1195D01*
X1084Y1197D01*
X1086Y1197D01*
X1086Y1199D01*
X1088Y1199D01*
X1088Y1201D01*
X1090Y1201D01*
X1090Y1203D01*
X1092Y1203D01*
X1092Y1205D01*
X1094Y1205D01*
X1094Y1207D01*
X1096Y1207D01*
X1096Y1209D01*
X1098Y1209D01*
X1098Y1211D01*
X1100Y1211D01*
X1100Y1213D01*
X1102Y1213D01*
X1102Y1215D01*
X1104Y1215D01*
X1104Y1217D01*
X1106Y1217D01*
X1106Y1219D01*
X1108Y1219D01*
X1108Y1221D01*
X1110Y1221D01*
X1110Y1223D01*
X1112Y1223D01*
X1112Y1225D01*
X1114Y1225D01*
X1114Y1227D01*
X1116Y1227D01*
X1116Y1229D01*
X1118Y1229D01*
X1118Y1231D01*
X1120Y1231D01*
X1120Y1233D01*
X1122Y1233D01*
X1122Y1235D01*
X1124Y1235D01*
X1124Y1237D01*
X1126Y1237D01*
X1126Y1239D01*
X1128Y1239D01*
X1128Y1241D01*
X1130Y1241D01*
X1130Y1243D01*
X1132Y1243D01*
X1132Y1245D01*
X1134Y1245D01*
X1134Y1247D01*
X1136Y1247D01*
X1136Y1249D01*
X1138Y1249D01*
X1138Y1251D01*
X1140Y1251D01*
X1140Y1253D01*
X420Y1253D01*
G37*
D02*
G36*
X1998Y1233D02*
X1998Y1231D01*
X2276Y1231D01*
X2276Y1233D01*
X1998Y1233D01*
G37*
D02*
G36*
X1998Y1233D02*
X1998Y1231D01*
X2276Y1231D01*
X2276Y1233D01*
X1998Y1233D01*
G37*
D02*
G36*
X1164Y1231D02*
X1164Y1229D01*
X1166Y1229D01*
X1166Y1227D01*
X1168Y1227D01*
X1168Y1225D01*
X1170Y1225D01*
X1170Y1223D01*
X1172Y1223D01*
X1172Y1221D01*
X1174Y1221D01*
X1174Y1219D01*
X1176Y1219D01*
X1176Y1217D01*
X1178Y1217D01*
X1178Y1215D01*
X1180Y1215D01*
X1180Y1213D01*
X1182Y1213D01*
X1182Y1211D01*
X1184Y1211D01*
X1184Y1209D01*
X1186Y1209D01*
X1186Y1207D01*
X1188Y1207D01*
X1188Y1205D01*
X1190Y1205D01*
X1190Y1203D01*
X1192Y1203D01*
X1192Y1201D01*
X1194Y1201D01*
X1194Y1199D01*
X1196Y1199D01*
X1196Y1197D01*
X1198Y1197D01*
X1198Y1195D01*
X1200Y1195D01*
X1200Y1193D01*
X1220Y1193D01*
X1220Y1195D01*
X1222Y1195D01*
X1222Y1201D01*
X1224Y1201D01*
X1224Y1205D01*
X1226Y1205D01*
X1226Y1209D01*
X1228Y1209D01*
X1228Y1211D01*
X1230Y1211D01*
X1230Y1213D01*
X1232Y1213D01*
X1232Y1215D01*
X1234Y1215D01*
X1234Y1217D01*
X1236Y1217D01*
X1236Y1219D01*
X1238Y1219D01*
X1238Y1221D01*
X1240Y1221D01*
X1240Y1223D01*
X1244Y1223D01*
X1244Y1225D01*
X1246Y1225D01*
X1246Y1227D01*
X1250Y1227D01*
X1250Y1229D01*
X1258Y1229D01*
X1258Y1231D01*
X1164Y1231D01*
G37*
D02*
G36*
X1998Y1231D02*
X1998Y1221D01*
X1996Y1221D01*
X1996Y1215D01*
X1994Y1215D01*
X1994Y1209D01*
X1992Y1209D01*
X1992Y1205D01*
X1990Y1205D01*
X1990Y1203D01*
X2310Y1203D01*
X2310Y1205D01*
X2302Y1205D01*
X2302Y1207D01*
X2298Y1207D01*
X2298Y1209D01*
X2294Y1209D01*
X2294Y1211D01*
X2292Y1211D01*
X2292Y1213D01*
X2290Y1213D01*
X2290Y1215D01*
X2288Y1215D01*
X2288Y1217D01*
X2286Y1217D01*
X2286Y1219D01*
X2284Y1219D01*
X2284Y1221D01*
X2282Y1221D01*
X2282Y1223D01*
X2280Y1223D01*
X2280Y1227D01*
X2278Y1227D01*
X2278Y1231D01*
X1998Y1231D01*
G37*
D02*
G36*
X1988Y1203D02*
X1988Y1201D01*
X3314Y1201D01*
X3314Y1203D01*
X1988Y1203D01*
G37*
D02*
G36*
X1988Y1203D02*
X1988Y1201D01*
X3314Y1201D01*
X3314Y1203D01*
X1988Y1203D01*
G37*
D02*
G36*
X1986Y1201D02*
X1986Y1197D01*
X1984Y1197D01*
X1984Y1195D01*
X1982Y1195D01*
X1982Y1193D01*
X1978Y1193D01*
X1978Y1191D01*
X1976Y1191D01*
X1976Y1189D01*
X1972Y1189D01*
X1972Y1187D01*
X1968Y1187D01*
X1968Y1185D01*
X1962Y1185D01*
X1962Y1183D01*
X3314Y1183D01*
X3314Y1201D01*
X1986Y1201D01*
G37*
D02*
G36*
X1320Y1183D02*
X1320Y1181D01*
X3314Y1181D01*
X3314Y1183D01*
X1320Y1183D01*
G37*
D02*
G36*
X1320Y1183D02*
X1320Y1181D01*
X3314Y1181D01*
X3314Y1183D01*
X1320Y1183D01*
G37*
D02*
G36*
X1320Y1181D02*
X1320Y1169D01*
X1318Y1169D01*
X1318Y1161D01*
X1316Y1161D01*
X1316Y1157D01*
X1314Y1157D01*
X1314Y1153D01*
X1312Y1153D01*
X1312Y1151D01*
X1310Y1151D01*
X1310Y1149D01*
X1308Y1149D01*
X1308Y1145D01*
X1306Y1145D01*
X1306Y1143D01*
X1302Y1143D01*
X1302Y1141D01*
X1300Y1141D01*
X1300Y1139D01*
X1298Y1139D01*
X1298Y1137D01*
X1294Y1137D01*
X1294Y1135D01*
X1290Y1135D01*
X1290Y1133D01*
X1284Y1133D01*
X1284Y1131D01*
X1274Y1131D01*
X1274Y1129D01*
X3314Y1129D01*
X3314Y1181D01*
X1320Y1181D01*
G37*
D02*
G36*
X1200Y1169D02*
X1200Y1167D01*
X1198Y1167D01*
X1198Y1165D01*
X1196Y1165D01*
X1196Y1163D01*
X1194Y1163D01*
X1194Y1161D01*
X1192Y1161D01*
X1192Y1159D01*
X1190Y1159D01*
X1190Y1157D01*
X1188Y1157D01*
X1188Y1155D01*
X1186Y1155D01*
X1186Y1153D01*
X1184Y1153D01*
X1184Y1151D01*
X1182Y1151D01*
X1182Y1149D01*
X1180Y1149D01*
X1180Y1147D01*
X1178Y1147D01*
X1178Y1145D01*
X1176Y1145D01*
X1176Y1143D01*
X1174Y1143D01*
X1174Y1141D01*
X1172Y1141D01*
X1172Y1139D01*
X1170Y1139D01*
X1170Y1137D01*
X1168Y1137D01*
X1168Y1135D01*
X1166Y1135D01*
X1166Y1133D01*
X1164Y1133D01*
X1164Y1131D01*
X1162Y1131D01*
X1162Y1129D01*
X1266Y1129D01*
X1266Y1131D01*
X1256Y1131D01*
X1256Y1133D01*
X1250Y1133D01*
X1250Y1135D01*
X1246Y1135D01*
X1246Y1137D01*
X1242Y1137D01*
X1242Y1139D01*
X1240Y1139D01*
X1240Y1141D01*
X1236Y1141D01*
X1236Y1143D01*
X1234Y1143D01*
X1234Y1145D01*
X1232Y1145D01*
X1232Y1147D01*
X1230Y1147D01*
X1230Y1151D01*
X1228Y1151D01*
X1228Y1153D01*
X1226Y1153D01*
X1226Y1157D01*
X1224Y1157D01*
X1224Y1161D01*
X1222Y1161D01*
X1222Y1167D01*
X1220Y1167D01*
X1220Y1169D01*
X1200Y1169D01*
G37*
D02*
G36*
X1160Y1129D02*
X1160Y1127D01*
X3314Y1127D01*
X3314Y1129D01*
X1160Y1129D01*
G37*
D02*
G36*
X1160Y1129D02*
X1160Y1127D01*
X3314Y1127D01*
X3314Y1129D01*
X1160Y1129D01*
G37*
D02*
G36*
X1158Y1127D02*
X1158Y1125D01*
X1156Y1125D01*
X1156Y1123D01*
X1154Y1123D01*
X1154Y1121D01*
X1152Y1121D01*
X1152Y1119D01*
X1150Y1119D01*
X1150Y1117D01*
X1148Y1117D01*
X1148Y1115D01*
X1146Y1115D01*
X1146Y1113D01*
X1144Y1113D01*
X1144Y1111D01*
X1142Y1111D01*
X1142Y1109D01*
X3314Y1109D01*
X3314Y1127D01*
X1158Y1127D01*
G37*
D02*
G36*
X398Y1109D02*
X398Y1107D01*
X3314Y1107D01*
X3314Y1109D01*
X398Y1109D01*
G37*
D02*
G36*
X398Y1109D02*
X398Y1107D01*
X3314Y1107D01*
X3314Y1109D01*
X398Y1109D01*
G37*
D02*
G36*
X398Y1107D02*
X398Y1089D01*
X400Y1089D01*
X400Y1087D01*
X404Y1087D01*
X404Y1085D01*
X406Y1085D01*
X406Y1083D01*
X408Y1083D01*
X408Y1079D01*
X410Y1079D01*
X410Y1077D01*
X412Y1077D01*
X412Y1073D01*
X414Y1073D01*
X414Y1069D01*
X416Y1069D01*
X416Y1065D01*
X418Y1065D01*
X418Y1055D01*
X420Y1055D01*
X420Y1047D01*
X832Y1047D01*
X832Y1045D01*
X838Y1045D01*
X838Y1043D01*
X842Y1043D01*
X842Y1041D01*
X1482Y1041D01*
X1482Y1039D01*
X1484Y1039D01*
X1484Y1037D01*
X1486Y1037D01*
X1486Y1035D01*
X1488Y1035D01*
X1488Y1033D01*
X1490Y1033D01*
X1490Y1031D01*
X1492Y1031D01*
X1492Y1029D01*
X1494Y1029D01*
X1494Y1027D01*
X1496Y1027D01*
X1496Y1025D01*
X1498Y1025D01*
X1498Y1023D01*
X1500Y1023D01*
X1500Y1021D01*
X1502Y1021D01*
X1502Y1019D01*
X1504Y1019D01*
X1504Y1017D01*
X1506Y1017D01*
X1506Y1015D01*
X1508Y1015D01*
X1508Y1013D01*
X1510Y1013D01*
X1510Y1011D01*
X1512Y1011D01*
X1512Y1009D01*
X1514Y1009D01*
X1514Y1007D01*
X1516Y1007D01*
X1516Y1005D01*
X1518Y1005D01*
X1518Y1003D01*
X1520Y1003D01*
X1520Y1001D01*
X1522Y1001D01*
X1522Y999D01*
X1524Y999D01*
X1524Y997D01*
X1526Y997D01*
X1526Y995D01*
X1528Y995D01*
X1528Y993D01*
X1530Y993D01*
X1530Y991D01*
X1532Y991D01*
X1532Y989D01*
X1534Y989D01*
X1534Y987D01*
X1536Y987D01*
X1536Y985D01*
X1538Y985D01*
X1538Y983D01*
X1540Y983D01*
X1540Y981D01*
X1542Y981D01*
X1542Y979D01*
X1544Y979D01*
X1544Y977D01*
X2062Y977D01*
X2062Y975D01*
X2068Y975D01*
X2068Y973D01*
X2072Y973D01*
X2072Y971D01*
X2076Y971D01*
X2076Y969D01*
X2078Y969D01*
X2078Y967D01*
X2080Y967D01*
X2080Y965D01*
X2084Y965D01*
X2084Y963D01*
X2086Y963D01*
X2086Y959D01*
X2088Y959D01*
X2088Y957D01*
X2090Y957D01*
X2090Y955D01*
X2092Y955D01*
X2092Y951D01*
X2094Y951D01*
X2094Y945D01*
X2096Y945D01*
X2096Y939D01*
X2098Y939D01*
X2098Y927D01*
X2212Y927D01*
X2212Y925D01*
X2218Y925D01*
X2218Y923D01*
X2222Y923D01*
X2222Y921D01*
X2226Y921D01*
X2226Y919D01*
X2228Y919D01*
X2228Y917D01*
X2230Y917D01*
X2230Y915D01*
X2234Y915D01*
X2234Y913D01*
X2236Y913D01*
X2236Y909D01*
X2238Y909D01*
X2238Y907D01*
X2240Y907D01*
X2240Y905D01*
X2242Y905D01*
X2242Y901D01*
X2244Y901D01*
X2244Y895D01*
X2246Y895D01*
X2246Y889D01*
X2248Y889D01*
X2248Y871D01*
X2246Y871D01*
X2246Y865D01*
X2244Y865D01*
X2244Y859D01*
X2242Y859D01*
X2242Y855D01*
X2240Y855D01*
X2240Y853D01*
X2238Y853D01*
X2238Y851D01*
X2236Y851D01*
X2236Y847D01*
X2234Y847D01*
X2234Y845D01*
X2232Y845D01*
X2232Y843D01*
X2228Y843D01*
X2228Y841D01*
X2226Y841D01*
X2226Y839D01*
X2222Y839D01*
X2222Y837D01*
X2218Y837D01*
X2218Y835D01*
X2212Y835D01*
X2212Y833D01*
X3314Y833D01*
X3314Y1107D01*
X398Y1107D01*
G37*
D02*
G36*
X420Y1047D02*
X420Y1045D01*
X418Y1045D01*
X418Y1035D01*
X416Y1035D01*
X416Y1029D01*
X414Y1029D01*
X414Y1027D01*
X412Y1027D01*
X412Y1023D01*
X410Y1023D01*
X410Y1021D01*
X408Y1021D01*
X408Y1017D01*
X406Y1017D01*
X406Y1015D01*
X404Y1015D01*
X404Y1013D01*
X402Y1013D01*
X402Y1011D01*
X398Y1011D01*
X398Y1009D01*
X396Y1009D01*
X396Y1007D01*
X392Y1007D01*
X392Y1005D01*
X386Y1005D01*
X386Y1003D01*
X380Y1003D01*
X380Y1001D01*
X774Y1001D01*
X774Y1013D01*
X776Y1013D01*
X776Y1019D01*
X778Y1019D01*
X778Y1023D01*
X780Y1023D01*
X780Y1027D01*
X782Y1027D01*
X782Y1029D01*
X784Y1029D01*
X784Y1031D01*
X786Y1031D01*
X786Y1033D01*
X788Y1033D01*
X788Y1035D01*
X790Y1035D01*
X790Y1037D01*
X792Y1037D01*
X792Y1039D01*
X796Y1039D01*
X796Y1041D01*
X798Y1041D01*
X798Y1043D01*
X804Y1043D01*
X804Y1045D01*
X810Y1045D01*
X810Y1047D01*
X420Y1047D01*
G37*
D02*
G36*
X846Y1041D02*
X846Y1039D01*
X848Y1039D01*
X848Y1037D01*
X850Y1037D01*
X850Y1035D01*
X854Y1035D01*
X854Y1033D01*
X856Y1033D01*
X856Y1029D01*
X858Y1029D01*
X858Y1027D01*
X860Y1027D01*
X860Y1025D01*
X862Y1025D01*
X862Y1021D01*
X932Y1021D01*
X932Y1019D01*
X944Y1019D01*
X944Y1017D01*
X950Y1017D01*
X950Y1015D01*
X954Y1015D01*
X954Y1013D01*
X958Y1013D01*
X958Y1011D01*
X960Y1011D01*
X960Y1009D01*
X962Y1009D01*
X962Y1007D01*
X964Y1007D01*
X964Y1005D01*
X966Y1005D01*
X966Y1003D01*
X968Y1003D01*
X968Y1001D01*
X970Y1001D01*
X970Y999D01*
X972Y999D01*
X972Y995D01*
X974Y995D01*
X974Y993D01*
X976Y993D01*
X976Y989D01*
X978Y989D01*
X978Y981D01*
X980Y981D01*
X980Y957D01*
X978Y957D01*
X978Y951D01*
X976Y951D01*
X976Y945D01*
X974Y945D01*
X974Y943D01*
X972Y943D01*
X972Y939D01*
X970Y939D01*
X970Y937D01*
X968Y937D01*
X968Y935D01*
X966Y935D01*
X966Y933D01*
X964Y933D01*
X964Y931D01*
X962Y931D01*
X962Y929D01*
X960Y929D01*
X960Y927D01*
X956Y927D01*
X956Y925D01*
X954Y925D01*
X954Y923D01*
X950Y923D01*
X950Y921D01*
X942Y921D01*
X942Y919D01*
X1458Y919D01*
X1458Y921D01*
X1456Y921D01*
X1456Y923D01*
X1454Y923D01*
X1454Y925D01*
X1452Y925D01*
X1452Y927D01*
X1450Y927D01*
X1450Y929D01*
X1448Y929D01*
X1448Y931D01*
X1446Y931D01*
X1446Y933D01*
X1444Y933D01*
X1444Y935D01*
X1442Y935D01*
X1442Y937D01*
X1440Y937D01*
X1440Y939D01*
X1438Y939D01*
X1438Y941D01*
X1436Y941D01*
X1436Y943D01*
X1434Y943D01*
X1434Y945D01*
X1432Y945D01*
X1432Y947D01*
X1430Y947D01*
X1430Y949D01*
X1428Y949D01*
X1428Y951D01*
X1426Y951D01*
X1426Y953D01*
X1424Y953D01*
X1424Y955D01*
X1422Y955D01*
X1422Y957D01*
X1420Y957D01*
X1420Y959D01*
X1418Y959D01*
X1418Y961D01*
X1416Y961D01*
X1416Y963D01*
X1414Y963D01*
X1414Y965D01*
X1412Y965D01*
X1412Y967D01*
X1410Y967D01*
X1410Y971D01*
X1412Y971D01*
X1412Y973D01*
X1414Y973D01*
X1414Y975D01*
X1416Y975D01*
X1416Y977D01*
X1418Y977D01*
X1418Y979D01*
X1420Y979D01*
X1420Y981D01*
X1422Y981D01*
X1422Y983D01*
X1424Y983D01*
X1424Y985D01*
X1426Y985D01*
X1426Y987D01*
X1428Y987D01*
X1428Y989D01*
X1430Y989D01*
X1430Y991D01*
X1432Y991D01*
X1432Y993D01*
X1434Y993D01*
X1434Y995D01*
X1436Y995D01*
X1436Y997D01*
X1438Y997D01*
X1438Y999D01*
X1440Y999D01*
X1440Y1003D01*
X1442Y1003D01*
X1442Y1005D01*
X1444Y1005D01*
X1444Y1007D01*
X1446Y1007D01*
X1446Y1009D01*
X1450Y1009D01*
X1450Y1011D01*
X1452Y1011D01*
X1452Y1013D01*
X1454Y1013D01*
X1454Y1015D01*
X1456Y1015D01*
X1456Y1017D01*
X1458Y1017D01*
X1458Y1019D01*
X1460Y1019D01*
X1460Y1021D01*
X1462Y1021D01*
X1462Y1023D01*
X1464Y1023D01*
X1464Y1025D01*
X1466Y1025D01*
X1466Y1027D01*
X1468Y1027D01*
X1468Y1029D01*
X1470Y1029D01*
X1470Y1031D01*
X1472Y1031D01*
X1472Y1033D01*
X1474Y1033D01*
X1474Y1035D01*
X1476Y1035D01*
X1476Y1037D01*
X1478Y1037D01*
X1478Y1039D01*
X1480Y1039D01*
X1480Y1041D01*
X846Y1041D01*
G37*
D02*
G36*
X864Y1021D02*
X864Y1015D01*
X866Y1015D01*
X866Y1009D01*
X868Y1009D01*
X868Y997D01*
X888Y997D01*
X888Y999D01*
X890Y999D01*
X890Y1003D01*
X892Y1003D01*
X892Y1005D01*
X894Y1005D01*
X894Y1007D01*
X896Y1007D01*
X896Y1009D01*
X900Y1009D01*
X900Y1011D01*
X902Y1011D01*
X902Y1013D01*
X906Y1013D01*
X906Y1015D01*
X910Y1015D01*
X910Y1017D01*
X916Y1017D01*
X916Y1019D01*
X928Y1019D01*
X928Y1021D01*
X864Y1021D01*
G37*
D02*
G36*
X48Y1001D02*
X48Y999D01*
X772Y999D01*
X772Y1001D01*
X48Y1001D01*
G37*
D02*
G36*
X48Y1001D02*
X48Y999D01*
X772Y999D01*
X772Y1001D01*
X48Y1001D01*
G37*
D02*
G36*
X48Y999D02*
X48Y977D01*
X562Y977D01*
X562Y975D01*
X568Y975D01*
X568Y973D01*
X572Y973D01*
X572Y971D01*
X576Y971D01*
X576Y969D01*
X578Y969D01*
X578Y967D01*
X580Y967D01*
X580Y965D01*
X584Y965D01*
X584Y963D01*
X586Y963D01*
X586Y959D01*
X588Y959D01*
X588Y957D01*
X590Y957D01*
X590Y955D01*
X592Y955D01*
X592Y951D01*
X594Y951D01*
X594Y945D01*
X596Y945D01*
X596Y939D01*
X598Y939D01*
X598Y921D01*
X596Y921D01*
X596Y915D01*
X594Y915D01*
X594Y909D01*
X592Y909D01*
X592Y905D01*
X590Y905D01*
X590Y903D01*
X588Y903D01*
X588Y901D01*
X586Y901D01*
X586Y897D01*
X584Y897D01*
X584Y895D01*
X582Y895D01*
X582Y893D01*
X578Y893D01*
X578Y891D01*
X576Y891D01*
X576Y889D01*
X572Y889D01*
X572Y887D01*
X568Y887D01*
X568Y885D01*
X562Y885D01*
X562Y883D01*
X720Y883D01*
X720Y887D01*
X718Y887D01*
X718Y891D01*
X716Y891D01*
X716Y897D01*
X714Y897D01*
X714Y909D01*
X712Y909D01*
X712Y911D01*
X714Y911D01*
X714Y923D01*
X716Y923D01*
X716Y929D01*
X718Y929D01*
X718Y933D01*
X720Y933D01*
X720Y937D01*
X722Y937D01*
X722Y939D01*
X724Y939D01*
X724Y941D01*
X726Y941D01*
X726Y943D01*
X728Y943D01*
X728Y945D01*
X730Y945D01*
X730Y947D01*
X732Y947D01*
X732Y949D01*
X736Y949D01*
X736Y951D01*
X738Y951D01*
X738Y953D01*
X744Y953D01*
X744Y955D01*
X750Y955D01*
X750Y957D01*
X784Y957D01*
X784Y971D01*
X782Y971D01*
X782Y973D01*
X780Y973D01*
X780Y977D01*
X778Y977D01*
X778Y981D01*
X776Y981D01*
X776Y987D01*
X774Y987D01*
X774Y999D01*
X48Y999D01*
G37*
D02*
G36*
X48Y977D02*
X48Y883D01*
X538Y883D01*
X538Y885D01*
X532Y885D01*
X532Y887D01*
X528Y887D01*
X528Y889D01*
X524Y889D01*
X524Y891D01*
X522Y891D01*
X522Y893D01*
X520Y893D01*
X520Y895D01*
X518Y895D01*
X518Y897D01*
X516Y897D01*
X516Y899D01*
X514Y899D01*
X514Y901D01*
X512Y901D01*
X512Y903D01*
X510Y903D01*
X510Y907D01*
X508Y907D01*
X508Y911D01*
X506Y911D01*
X506Y917D01*
X504Y917D01*
X504Y929D01*
X502Y929D01*
X502Y931D01*
X504Y931D01*
X504Y943D01*
X506Y943D01*
X506Y949D01*
X508Y949D01*
X508Y953D01*
X510Y953D01*
X510Y957D01*
X512Y957D01*
X512Y959D01*
X514Y959D01*
X514Y961D01*
X516Y961D01*
X516Y963D01*
X518Y963D01*
X518Y965D01*
X520Y965D01*
X520Y967D01*
X522Y967D01*
X522Y969D01*
X526Y969D01*
X526Y971D01*
X528Y971D01*
X528Y973D01*
X534Y973D01*
X534Y975D01*
X540Y975D01*
X540Y977D01*
X48Y977D01*
G37*
D02*
G36*
X1546Y977D02*
X1546Y975D01*
X1548Y975D01*
X1548Y973D01*
X1550Y973D01*
X1550Y971D01*
X1552Y971D01*
X1552Y967D01*
X1550Y967D01*
X1550Y965D01*
X1548Y965D01*
X1548Y963D01*
X1546Y963D01*
X1546Y961D01*
X1544Y961D01*
X1544Y959D01*
X1542Y959D01*
X1542Y957D01*
X1540Y957D01*
X1540Y955D01*
X1538Y955D01*
X1538Y953D01*
X1536Y953D01*
X1536Y951D01*
X1534Y951D01*
X1534Y949D01*
X1532Y949D01*
X1532Y947D01*
X1582Y947D01*
X1582Y945D01*
X1588Y945D01*
X1588Y943D01*
X1592Y943D01*
X1592Y941D01*
X1596Y941D01*
X1596Y939D01*
X1598Y939D01*
X1598Y937D01*
X1600Y937D01*
X1600Y935D01*
X1604Y935D01*
X1604Y933D01*
X1606Y933D01*
X1606Y929D01*
X1608Y929D01*
X1608Y927D01*
X1610Y927D01*
X1610Y925D01*
X1612Y925D01*
X1612Y921D01*
X1614Y921D01*
X1614Y915D01*
X1616Y915D01*
X1616Y909D01*
X1618Y909D01*
X1618Y891D01*
X1616Y891D01*
X1616Y885D01*
X1614Y885D01*
X1614Y883D01*
X2038Y883D01*
X2038Y885D01*
X2032Y885D01*
X2032Y887D01*
X2028Y887D01*
X2028Y889D01*
X2024Y889D01*
X2024Y891D01*
X2022Y891D01*
X2022Y893D01*
X2020Y893D01*
X2020Y895D01*
X2018Y895D01*
X2018Y897D01*
X2016Y897D01*
X2016Y899D01*
X2014Y899D01*
X2014Y901D01*
X2012Y901D01*
X2012Y903D01*
X2010Y903D01*
X2010Y907D01*
X2008Y907D01*
X2008Y911D01*
X2006Y911D01*
X2006Y917D01*
X2004Y917D01*
X2004Y929D01*
X2002Y929D01*
X2002Y931D01*
X2004Y931D01*
X2004Y943D01*
X2006Y943D01*
X2006Y949D01*
X2008Y949D01*
X2008Y953D01*
X2010Y953D01*
X2010Y957D01*
X2012Y957D01*
X2012Y959D01*
X2014Y959D01*
X2014Y961D01*
X2016Y961D01*
X2016Y963D01*
X2018Y963D01*
X2018Y965D01*
X2020Y965D01*
X2020Y967D01*
X2022Y967D01*
X2022Y969D01*
X2026Y969D01*
X2026Y971D01*
X2028Y971D01*
X2028Y973D01*
X2034Y973D01*
X2034Y975D01*
X2040Y975D01*
X2040Y977D01*
X1546Y977D01*
G37*
D02*
G36*
X860Y975D02*
X860Y973D01*
X858Y973D01*
X858Y971D01*
X856Y971D01*
X856Y967D01*
X854Y967D01*
X854Y965D01*
X852Y965D01*
X852Y963D01*
X848Y963D01*
X848Y961D01*
X846Y961D01*
X846Y959D01*
X842Y959D01*
X842Y957D01*
X838Y957D01*
X838Y955D01*
X832Y955D01*
X832Y953D01*
X796Y953D01*
X796Y939D01*
X798Y939D01*
X798Y937D01*
X800Y937D01*
X800Y935D01*
X802Y935D01*
X802Y931D01*
X804Y931D01*
X804Y925D01*
X806Y925D01*
X806Y919D01*
X918Y919D01*
X918Y921D01*
X910Y921D01*
X910Y923D01*
X906Y923D01*
X906Y925D01*
X902Y925D01*
X902Y927D01*
X900Y927D01*
X900Y929D01*
X898Y929D01*
X898Y931D01*
X894Y931D01*
X894Y933D01*
X892Y933D01*
X892Y937D01*
X890Y937D01*
X890Y939D01*
X888Y939D01*
X888Y941D01*
X886Y941D01*
X886Y945D01*
X884Y945D01*
X884Y949D01*
X882Y949D01*
X882Y955D01*
X880Y955D01*
X880Y967D01*
X878Y967D01*
X878Y973D01*
X880Y973D01*
X880Y975D01*
X860Y975D01*
G37*
D02*
G36*
X1530Y947D02*
X1530Y945D01*
X1528Y945D01*
X1528Y943D01*
X1526Y943D01*
X1526Y941D01*
X1524Y941D01*
X1524Y939D01*
X1522Y939D01*
X1522Y937D01*
X1520Y937D01*
X1520Y935D01*
X1518Y935D01*
X1518Y933D01*
X1516Y933D01*
X1516Y931D01*
X1514Y931D01*
X1514Y929D01*
X1512Y929D01*
X1512Y927D01*
X1510Y927D01*
X1510Y925D01*
X1508Y925D01*
X1508Y923D01*
X1506Y923D01*
X1506Y921D01*
X1504Y921D01*
X1504Y919D01*
X1502Y919D01*
X1502Y917D01*
X1500Y917D01*
X1500Y915D01*
X1498Y915D01*
X1498Y913D01*
X1496Y913D01*
X1496Y911D01*
X1494Y911D01*
X1494Y889D01*
X1496Y889D01*
X1496Y887D01*
X1498Y887D01*
X1498Y885D01*
X1500Y885D01*
X1500Y883D01*
X1502Y883D01*
X1502Y881D01*
X1504Y881D01*
X1504Y879D01*
X1506Y879D01*
X1506Y877D01*
X1508Y877D01*
X1508Y875D01*
X1510Y875D01*
X1510Y873D01*
X1512Y873D01*
X1512Y871D01*
X1514Y871D01*
X1514Y869D01*
X1516Y869D01*
X1516Y867D01*
X1518Y867D01*
X1518Y865D01*
X1520Y865D01*
X1520Y863D01*
X1522Y863D01*
X1522Y861D01*
X1524Y861D01*
X1524Y859D01*
X1526Y859D01*
X1526Y857D01*
X1528Y857D01*
X1528Y855D01*
X1530Y855D01*
X1530Y853D01*
X1558Y853D01*
X1558Y855D01*
X1552Y855D01*
X1552Y857D01*
X1548Y857D01*
X1548Y859D01*
X1544Y859D01*
X1544Y861D01*
X1542Y861D01*
X1542Y863D01*
X1540Y863D01*
X1540Y865D01*
X1538Y865D01*
X1538Y867D01*
X1536Y867D01*
X1536Y869D01*
X1534Y869D01*
X1534Y871D01*
X1532Y871D01*
X1532Y873D01*
X1530Y873D01*
X1530Y877D01*
X1528Y877D01*
X1528Y881D01*
X1526Y881D01*
X1526Y887D01*
X1524Y887D01*
X1524Y899D01*
X1522Y899D01*
X1522Y901D01*
X1524Y901D01*
X1524Y913D01*
X1526Y913D01*
X1526Y919D01*
X1528Y919D01*
X1528Y923D01*
X1530Y923D01*
X1530Y927D01*
X1532Y927D01*
X1532Y929D01*
X1534Y929D01*
X1534Y931D01*
X1536Y931D01*
X1536Y933D01*
X1538Y933D01*
X1538Y935D01*
X1540Y935D01*
X1540Y937D01*
X1542Y937D01*
X1542Y939D01*
X1546Y939D01*
X1546Y941D01*
X1548Y941D01*
X1548Y943D01*
X1554Y943D01*
X1554Y945D01*
X1560Y945D01*
X1560Y947D01*
X1530Y947D01*
G37*
D02*
G36*
X2098Y927D02*
X2098Y921D01*
X2096Y921D01*
X2096Y915D01*
X2094Y915D01*
X2094Y909D01*
X2092Y909D01*
X2092Y905D01*
X2090Y905D01*
X2090Y903D01*
X2088Y903D01*
X2088Y901D01*
X2086Y901D01*
X2086Y897D01*
X2084Y897D01*
X2084Y895D01*
X2082Y895D01*
X2082Y893D01*
X2078Y893D01*
X2078Y891D01*
X2076Y891D01*
X2076Y889D01*
X2072Y889D01*
X2072Y887D01*
X2068Y887D01*
X2068Y885D01*
X2062Y885D01*
X2062Y883D01*
X2154Y883D01*
X2154Y893D01*
X2156Y893D01*
X2156Y899D01*
X2158Y899D01*
X2158Y903D01*
X2160Y903D01*
X2160Y907D01*
X2162Y907D01*
X2162Y909D01*
X2164Y909D01*
X2164Y911D01*
X2166Y911D01*
X2166Y913D01*
X2168Y913D01*
X2168Y915D01*
X2170Y915D01*
X2170Y917D01*
X2172Y917D01*
X2172Y919D01*
X2176Y919D01*
X2176Y921D01*
X2178Y921D01*
X2178Y923D01*
X2184Y923D01*
X2184Y925D01*
X2190Y925D01*
X2190Y927D01*
X2098Y927D01*
G37*
D02*
G36*
X808Y919D02*
X808Y917D01*
X1460Y917D01*
X1460Y919D01*
X808Y919D01*
G37*
D02*
G36*
X808Y919D02*
X808Y917D01*
X1460Y917D01*
X1460Y919D01*
X808Y919D01*
G37*
D02*
G36*
X808Y917D02*
X808Y901D01*
X806Y901D01*
X806Y895D01*
X804Y895D01*
X804Y889D01*
X802Y889D01*
X802Y885D01*
X800Y885D01*
X800Y883D01*
X798Y883D01*
X798Y881D01*
X942Y881D01*
X942Y879D01*
X948Y879D01*
X948Y877D01*
X952Y877D01*
X952Y875D01*
X956Y875D01*
X956Y873D01*
X960Y873D01*
X960Y871D01*
X962Y871D01*
X962Y869D01*
X964Y869D01*
X964Y867D01*
X966Y867D01*
X966Y865D01*
X968Y865D01*
X968Y863D01*
X970Y863D01*
X970Y861D01*
X972Y861D01*
X972Y857D01*
X974Y857D01*
X974Y853D01*
X976Y853D01*
X976Y849D01*
X978Y849D01*
X978Y843D01*
X980Y843D01*
X980Y819D01*
X978Y819D01*
X978Y811D01*
X976Y811D01*
X976Y807D01*
X974Y807D01*
X974Y803D01*
X972Y803D01*
X972Y801D01*
X970Y801D01*
X970Y799D01*
X968Y799D01*
X968Y795D01*
X966Y795D01*
X966Y793D01*
X962Y793D01*
X962Y791D01*
X960Y791D01*
X960Y789D01*
X958Y789D01*
X958Y787D01*
X954Y787D01*
X954Y785D01*
X950Y785D01*
X950Y783D01*
X944Y783D01*
X944Y781D01*
X934Y781D01*
X934Y779D01*
X1460Y779D01*
X1460Y781D01*
X1458Y781D01*
X1458Y783D01*
X1456Y783D01*
X1456Y785D01*
X1454Y785D01*
X1454Y787D01*
X1452Y787D01*
X1452Y789D01*
X1448Y789D01*
X1448Y791D01*
X1446Y791D01*
X1446Y793D01*
X1444Y793D01*
X1444Y795D01*
X1442Y795D01*
X1442Y797D01*
X1440Y797D01*
X1440Y801D01*
X1438Y801D01*
X1438Y803D01*
X1436Y803D01*
X1436Y805D01*
X1434Y805D01*
X1434Y807D01*
X1432Y807D01*
X1432Y809D01*
X1430Y809D01*
X1430Y811D01*
X1428Y811D01*
X1428Y813D01*
X1426Y813D01*
X1426Y815D01*
X1424Y815D01*
X1424Y817D01*
X1422Y817D01*
X1422Y819D01*
X1420Y819D01*
X1420Y821D01*
X1418Y821D01*
X1418Y823D01*
X1416Y823D01*
X1416Y825D01*
X1414Y825D01*
X1414Y827D01*
X1412Y827D01*
X1412Y829D01*
X1410Y829D01*
X1410Y833D01*
X1412Y833D01*
X1412Y835D01*
X1414Y835D01*
X1414Y837D01*
X1416Y837D01*
X1416Y839D01*
X1418Y839D01*
X1418Y841D01*
X1420Y841D01*
X1420Y843D01*
X1422Y843D01*
X1422Y845D01*
X1424Y845D01*
X1424Y847D01*
X1426Y847D01*
X1426Y849D01*
X1428Y849D01*
X1428Y851D01*
X1430Y851D01*
X1430Y853D01*
X1432Y853D01*
X1432Y855D01*
X1434Y855D01*
X1434Y857D01*
X1436Y857D01*
X1436Y859D01*
X1438Y859D01*
X1438Y861D01*
X1440Y861D01*
X1440Y863D01*
X1442Y863D01*
X1442Y865D01*
X1444Y865D01*
X1444Y867D01*
X1446Y867D01*
X1446Y869D01*
X1448Y869D01*
X1448Y871D01*
X1450Y871D01*
X1450Y873D01*
X1452Y873D01*
X1452Y875D01*
X1454Y875D01*
X1454Y877D01*
X1456Y877D01*
X1456Y879D01*
X1458Y879D01*
X1458Y881D01*
X1460Y881D01*
X1460Y883D01*
X1462Y883D01*
X1462Y885D01*
X1464Y885D01*
X1464Y887D01*
X1466Y887D01*
X1466Y889D01*
X1468Y889D01*
X1468Y911D01*
X1466Y911D01*
X1466Y913D01*
X1464Y913D01*
X1464Y915D01*
X1462Y915D01*
X1462Y917D01*
X808Y917D01*
G37*
D02*
G36*
X48Y883D02*
X48Y881D01*
X722Y881D01*
X722Y883D01*
X48Y883D01*
G37*
D02*
G36*
X48Y883D02*
X48Y881D01*
X722Y881D01*
X722Y883D01*
X48Y883D01*
G37*
D02*
G36*
X1614Y883D02*
X1614Y881D01*
X2154Y881D01*
X2154Y883D01*
X1614Y883D01*
G37*
D02*
G36*
X1614Y883D02*
X1614Y881D01*
X2154Y881D01*
X2154Y883D01*
X1614Y883D01*
G37*
D02*
G36*
X48Y881D02*
X48Y863D01*
X748Y863D01*
X748Y865D01*
X742Y865D01*
X742Y867D01*
X738Y867D01*
X738Y869D01*
X734Y869D01*
X734Y871D01*
X732Y871D01*
X732Y873D01*
X730Y873D01*
X730Y875D01*
X728Y875D01*
X728Y877D01*
X726Y877D01*
X726Y879D01*
X724Y879D01*
X724Y881D01*
X48Y881D01*
G37*
D02*
G36*
X796Y881D02*
X796Y877D01*
X794Y877D01*
X794Y875D01*
X792Y875D01*
X792Y873D01*
X788Y873D01*
X788Y871D01*
X786Y871D01*
X786Y869D01*
X782Y869D01*
X782Y867D01*
X778Y867D01*
X778Y865D01*
X772Y865D01*
X772Y863D01*
X892Y863D01*
X892Y865D01*
X894Y865D01*
X894Y867D01*
X896Y867D01*
X896Y869D01*
X898Y869D01*
X898Y871D01*
X900Y871D01*
X900Y873D01*
X904Y873D01*
X904Y875D01*
X906Y875D01*
X906Y877D01*
X910Y877D01*
X910Y879D01*
X918Y879D01*
X918Y881D01*
X796Y881D01*
G37*
D02*
G36*
X1614Y881D02*
X1614Y879D01*
X1612Y879D01*
X1612Y875D01*
X1610Y875D01*
X1610Y873D01*
X1608Y873D01*
X1608Y871D01*
X1606Y871D01*
X1606Y867D01*
X1604Y867D01*
X1604Y865D01*
X1602Y865D01*
X1602Y863D01*
X1598Y863D01*
X1598Y861D01*
X1596Y861D01*
X1596Y859D01*
X1592Y859D01*
X1592Y857D01*
X1588Y857D01*
X1588Y855D01*
X1582Y855D01*
X1582Y853D01*
X2160Y853D01*
X2160Y857D01*
X2158Y857D01*
X2158Y861D01*
X2156Y861D01*
X2156Y867D01*
X2154Y867D01*
X2154Y879D01*
X2152Y879D01*
X2152Y881D01*
X1614Y881D01*
G37*
D02*
G36*
X48Y863D02*
X48Y861D01*
X890Y861D01*
X890Y863D01*
X48Y863D01*
G37*
D02*
G36*
X48Y863D02*
X48Y861D01*
X890Y861D01*
X890Y863D01*
X48Y863D01*
G37*
D02*
G36*
X48Y861D02*
X48Y779D01*
X926Y779D01*
X926Y781D01*
X916Y781D01*
X916Y783D01*
X910Y783D01*
X910Y785D01*
X906Y785D01*
X906Y787D01*
X902Y787D01*
X902Y789D01*
X900Y789D01*
X900Y791D01*
X896Y791D01*
X896Y793D01*
X894Y793D01*
X894Y795D01*
X892Y795D01*
X892Y797D01*
X890Y797D01*
X890Y801D01*
X888Y801D01*
X888Y803D01*
X886Y803D01*
X886Y807D01*
X884Y807D01*
X884Y811D01*
X882Y811D01*
X882Y817D01*
X880Y817D01*
X880Y827D01*
X878Y827D01*
X878Y833D01*
X880Y833D01*
X880Y845D01*
X882Y845D01*
X882Y851D01*
X884Y851D01*
X884Y855D01*
X886Y855D01*
X886Y859D01*
X888Y859D01*
X888Y861D01*
X48Y861D01*
G37*
D02*
G36*
X1532Y853D02*
X1532Y851D01*
X2162Y851D01*
X2162Y853D01*
X1532Y853D01*
G37*
D02*
G36*
X1532Y853D02*
X1532Y851D01*
X2162Y851D01*
X2162Y853D01*
X1532Y853D01*
G37*
D02*
G36*
X1534Y851D02*
X1534Y849D01*
X1536Y849D01*
X1536Y847D01*
X1538Y847D01*
X1538Y845D01*
X1540Y845D01*
X1540Y843D01*
X1542Y843D01*
X1542Y841D01*
X1544Y841D01*
X1544Y839D01*
X1546Y839D01*
X1546Y837D01*
X1548Y837D01*
X1548Y835D01*
X1550Y835D01*
X1550Y833D01*
X2190Y833D01*
X2190Y835D01*
X2182Y835D01*
X2182Y837D01*
X2178Y837D01*
X2178Y839D01*
X2174Y839D01*
X2174Y841D01*
X2172Y841D01*
X2172Y843D01*
X2170Y843D01*
X2170Y845D01*
X2168Y845D01*
X2168Y847D01*
X2166Y847D01*
X2166Y849D01*
X2164Y849D01*
X2164Y851D01*
X1534Y851D01*
G37*
D02*
G36*
X1552Y833D02*
X1552Y831D01*
X3314Y831D01*
X3314Y833D01*
X1552Y833D01*
G37*
D02*
G36*
X1552Y833D02*
X1552Y831D01*
X3314Y831D01*
X3314Y833D01*
X1552Y833D01*
G37*
D02*
G36*
X1552Y831D02*
X1552Y829D01*
X1550Y829D01*
X1550Y827D01*
X1548Y827D01*
X1548Y825D01*
X1546Y825D01*
X1546Y823D01*
X1544Y823D01*
X1544Y821D01*
X1542Y821D01*
X1542Y819D01*
X1540Y819D01*
X1540Y817D01*
X1538Y817D01*
X1538Y815D01*
X1536Y815D01*
X1536Y813D01*
X1534Y813D01*
X1534Y811D01*
X1532Y811D01*
X1532Y809D01*
X1530Y809D01*
X1530Y807D01*
X1528Y807D01*
X1528Y805D01*
X1526Y805D01*
X1526Y803D01*
X1524Y803D01*
X1524Y801D01*
X1522Y801D01*
X1522Y799D01*
X1520Y799D01*
X1520Y797D01*
X1518Y797D01*
X1518Y795D01*
X1516Y795D01*
X1516Y793D01*
X1514Y793D01*
X1514Y791D01*
X1512Y791D01*
X1512Y789D01*
X1510Y789D01*
X1510Y787D01*
X1508Y787D01*
X1508Y785D01*
X1506Y785D01*
X1506Y783D01*
X1504Y783D01*
X1504Y781D01*
X1502Y781D01*
X1502Y779D01*
X1500Y779D01*
X1500Y777D01*
X1498Y777D01*
X1498Y775D01*
X1496Y775D01*
X1496Y773D01*
X1494Y773D01*
X1494Y771D01*
X1492Y771D01*
X1492Y769D01*
X1490Y769D01*
X1490Y767D01*
X1488Y767D01*
X1488Y765D01*
X1486Y765D01*
X1486Y763D01*
X1484Y763D01*
X1484Y761D01*
X1482Y761D01*
X1482Y759D01*
X3314Y759D01*
X3314Y831D01*
X1552Y831D01*
G37*
D02*
G36*
X48Y779D02*
X48Y777D01*
X1462Y777D01*
X1462Y779D01*
X48Y779D01*
G37*
D02*
G36*
X48Y779D02*
X48Y777D01*
X1462Y777D01*
X1462Y779D01*
X48Y779D01*
G37*
D02*
G36*
X48Y777D02*
X48Y759D01*
X1480Y759D01*
X1480Y761D01*
X1478Y761D01*
X1478Y763D01*
X1476Y763D01*
X1476Y765D01*
X1474Y765D01*
X1474Y767D01*
X1472Y767D01*
X1472Y769D01*
X1470Y769D01*
X1470Y771D01*
X1468Y771D01*
X1468Y773D01*
X1466Y773D01*
X1466Y775D01*
X1464Y775D01*
X1464Y777D01*
X48Y777D01*
G37*
D02*
G36*
X48Y759D02*
X48Y757D01*
X3314Y757D01*
X3314Y759D01*
X48Y759D01*
G37*
D02*
G36*
X48Y759D02*
X48Y757D01*
X3314Y757D01*
X3314Y759D01*
X48Y759D01*
G37*
D02*
G36*
X48Y757D02*
X48Y749D01*
X358Y749D01*
X358Y747D01*
X366Y747D01*
X366Y745D01*
X372Y745D01*
X372Y743D01*
X374Y743D01*
X374Y741D01*
X378Y741D01*
X378Y739D01*
X380Y739D01*
X380Y737D01*
X384Y737D01*
X384Y735D01*
X386Y735D01*
X386Y733D01*
X388Y733D01*
X388Y729D01*
X390Y729D01*
X390Y727D01*
X392Y727D01*
X392Y723D01*
X394Y723D01*
X394Y719D01*
X396Y719D01*
X396Y715D01*
X398Y715D01*
X398Y705D01*
X400Y705D01*
X400Y695D01*
X398Y695D01*
X398Y691D01*
X1142Y691D01*
X1142Y689D01*
X1144Y689D01*
X1144Y687D01*
X1146Y687D01*
X1146Y685D01*
X1148Y685D01*
X1148Y683D01*
X1150Y683D01*
X1150Y681D01*
X1152Y681D01*
X1152Y679D01*
X1154Y679D01*
X1154Y677D01*
X1156Y677D01*
X1156Y675D01*
X1158Y675D01*
X1158Y673D01*
X1160Y673D01*
X1160Y671D01*
X1272Y671D01*
X1272Y669D01*
X1284Y669D01*
X1284Y667D01*
X1290Y667D01*
X1290Y665D01*
X1294Y665D01*
X1294Y663D01*
X1298Y663D01*
X1298Y661D01*
X1300Y661D01*
X1300Y659D01*
X1302Y659D01*
X1302Y657D01*
X1304Y657D01*
X1304Y655D01*
X1306Y655D01*
X1306Y653D01*
X1308Y653D01*
X1308Y651D01*
X1310Y651D01*
X1310Y649D01*
X1312Y649D01*
X1312Y645D01*
X1314Y645D01*
X1314Y643D01*
X1316Y643D01*
X1316Y639D01*
X1318Y639D01*
X1318Y631D01*
X1320Y631D01*
X1320Y607D01*
X1318Y607D01*
X1318Y601D01*
X1316Y601D01*
X1316Y595D01*
X1314Y595D01*
X1314Y593D01*
X1312Y593D01*
X1312Y589D01*
X1310Y589D01*
X1310Y587D01*
X1308Y587D01*
X1308Y585D01*
X1306Y585D01*
X1306Y583D01*
X1304Y583D01*
X1304Y581D01*
X1302Y581D01*
X1302Y579D01*
X1300Y579D01*
X1300Y577D01*
X2062Y577D01*
X2062Y575D01*
X2068Y575D01*
X2068Y573D01*
X2072Y573D01*
X2072Y571D01*
X2076Y571D01*
X2076Y569D01*
X2078Y569D01*
X2078Y567D01*
X2080Y567D01*
X2080Y565D01*
X2084Y565D01*
X2084Y563D01*
X2086Y563D01*
X2086Y559D01*
X2088Y559D01*
X2088Y557D01*
X2090Y557D01*
X2090Y555D01*
X2092Y555D01*
X2092Y551D01*
X2094Y551D01*
X2094Y545D01*
X2096Y545D01*
X2096Y539D01*
X2098Y539D01*
X2098Y521D01*
X2096Y521D01*
X2096Y515D01*
X2094Y515D01*
X2094Y509D01*
X2092Y509D01*
X2092Y505D01*
X2090Y505D01*
X2090Y503D01*
X2088Y503D01*
X2088Y501D01*
X2086Y501D01*
X2086Y497D01*
X2084Y497D01*
X2084Y495D01*
X2082Y495D01*
X2082Y493D01*
X2078Y493D01*
X2078Y491D01*
X2076Y491D01*
X2076Y489D01*
X2072Y489D01*
X2072Y487D01*
X2068Y487D01*
X2068Y485D01*
X2062Y485D01*
X2062Y483D01*
X3314Y483D01*
X3314Y757D01*
X48Y757D01*
G37*
D02*
G36*
X48Y749D02*
X48Y551D01*
X340Y551D01*
X340Y553D01*
X334Y553D01*
X334Y555D01*
X330Y555D01*
X330Y557D01*
X326Y557D01*
X326Y559D01*
X322Y559D01*
X322Y561D01*
X320Y561D01*
X320Y563D01*
X318Y563D01*
X318Y565D01*
X316Y565D01*
X316Y567D01*
X314Y567D01*
X314Y569D01*
X312Y569D01*
X312Y571D01*
X310Y571D01*
X310Y575D01*
X308Y575D01*
X308Y577D01*
X306Y577D01*
X306Y581D01*
X304Y581D01*
X304Y589D01*
X302Y589D01*
X302Y611D01*
X304Y611D01*
X304Y619D01*
X306Y619D01*
X306Y623D01*
X308Y623D01*
X308Y625D01*
X310Y625D01*
X310Y629D01*
X312Y629D01*
X312Y631D01*
X314Y631D01*
X314Y633D01*
X316Y633D01*
X316Y635D01*
X318Y635D01*
X318Y637D01*
X320Y637D01*
X320Y639D01*
X322Y639D01*
X322Y661D01*
X320Y661D01*
X320Y663D01*
X318Y663D01*
X318Y665D01*
X316Y665D01*
X316Y667D01*
X314Y667D01*
X314Y669D01*
X312Y669D01*
X312Y671D01*
X310Y671D01*
X310Y675D01*
X308Y675D01*
X308Y677D01*
X306Y677D01*
X306Y681D01*
X304Y681D01*
X304Y689D01*
X302Y689D01*
X302Y711D01*
X304Y711D01*
X304Y719D01*
X306Y719D01*
X306Y723D01*
X308Y723D01*
X308Y725D01*
X310Y725D01*
X310Y729D01*
X312Y729D01*
X312Y731D01*
X314Y731D01*
X314Y733D01*
X316Y733D01*
X316Y735D01*
X318Y735D01*
X318Y737D01*
X320Y737D01*
X320Y739D01*
X322Y739D01*
X322Y741D01*
X326Y741D01*
X326Y743D01*
X330Y743D01*
X330Y745D01*
X334Y745D01*
X334Y747D01*
X342Y747D01*
X342Y749D01*
X48Y749D01*
G37*
D02*
G36*
X398Y691D02*
X398Y685D01*
X396Y685D01*
X396Y679D01*
X394Y679D01*
X394Y677D01*
X392Y677D01*
X392Y673D01*
X390Y673D01*
X390Y671D01*
X388Y671D01*
X388Y667D01*
X386Y667D01*
X386Y665D01*
X384Y665D01*
X384Y663D01*
X382Y663D01*
X382Y661D01*
X378Y661D01*
X378Y639D01*
X380Y639D01*
X380Y637D01*
X384Y637D01*
X384Y635D01*
X386Y635D01*
X386Y633D01*
X388Y633D01*
X388Y629D01*
X390Y629D01*
X390Y627D01*
X392Y627D01*
X392Y623D01*
X394Y623D01*
X394Y619D01*
X396Y619D01*
X396Y615D01*
X398Y615D01*
X398Y605D01*
X400Y605D01*
X400Y595D01*
X398Y595D01*
X398Y585D01*
X396Y585D01*
X396Y579D01*
X394Y579D01*
X394Y577D01*
X562Y577D01*
X562Y575D01*
X568Y575D01*
X568Y573D01*
X572Y573D01*
X572Y571D01*
X576Y571D01*
X576Y569D01*
X578Y569D01*
X578Y567D01*
X580Y567D01*
X580Y565D01*
X584Y565D01*
X584Y563D01*
X586Y563D01*
X586Y559D01*
X588Y559D01*
X588Y557D01*
X772Y557D01*
X772Y555D01*
X778Y555D01*
X778Y553D01*
X782Y553D01*
X782Y551D01*
X786Y551D01*
X786Y549D01*
X788Y549D01*
X788Y547D01*
X1140Y547D01*
X1140Y549D01*
X1138Y549D01*
X1138Y551D01*
X1136Y551D01*
X1136Y553D01*
X1134Y553D01*
X1134Y555D01*
X1132Y555D01*
X1132Y557D01*
X1130Y557D01*
X1130Y559D01*
X1128Y559D01*
X1128Y561D01*
X1126Y561D01*
X1126Y563D01*
X1124Y563D01*
X1124Y565D01*
X1122Y565D01*
X1122Y567D01*
X1120Y567D01*
X1120Y569D01*
X1118Y569D01*
X1118Y571D01*
X1116Y571D01*
X1116Y573D01*
X1114Y573D01*
X1114Y575D01*
X1112Y575D01*
X1112Y577D01*
X1110Y577D01*
X1110Y579D01*
X1108Y579D01*
X1108Y581D01*
X1106Y581D01*
X1106Y583D01*
X1104Y583D01*
X1104Y585D01*
X1102Y585D01*
X1102Y587D01*
X1100Y587D01*
X1100Y589D01*
X1098Y589D01*
X1098Y591D01*
X1096Y591D01*
X1096Y593D01*
X1094Y593D01*
X1094Y595D01*
X1092Y595D01*
X1092Y597D01*
X1090Y597D01*
X1090Y599D01*
X1088Y599D01*
X1088Y601D01*
X1086Y601D01*
X1086Y603D01*
X1084Y603D01*
X1084Y605D01*
X1082Y605D01*
X1082Y607D01*
X1080Y607D01*
X1080Y609D01*
X1078Y609D01*
X1078Y611D01*
X1076Y611D01*
X1076Y613D01*
X1074Y613D01*
X1074Y615D01*
X1072Y615D01*
X1072Y617D01*
X1070Y617D01*
X1070Y621D01*
X1072Y621D01*
X1072Y623D01*
X1074Y623D01*
X1074Y625D01*
X1076Y625D01*
X1076Y627D01*
X1078Y627D01*
X1078Y629D01*
X1080Y629D01*
X1080Y631D01*
X1082Y631D01*
X1082Y633D01*
X1084Y633D01*
X1084Y635D01*
X1086Y635D01*
X1086Y637D01*
X1088Y637D01*
X1088Y639D01*
X1090Y639D01*
X1090Y641D01*
X1092Y641D01*
X1092Y643D01*
X1094Y643D01*
X1094Y645D01*
X1096Y645D01*
X1096Y647D01*
X1098Y647D01*
X1098Y649D01*
X1100Y649D01*
X1100Y653D01*
X1102Y653D01*
X1102Y655D01*
X1104Y655D01*
X1104Y657D01*
X1106Y657D01*
X1106Y659D01*
X1110Y659D01*
X1110Y661D01*
X1112Y661D01*
X1112Y663D01*
X1114Y663D01*
X1114Y665D01*
X1116Y665D01*
X1116Y667D01*
X1118Y667D01*
X1118Y669D01*
X1120Y669D01*
X1120Y671D01*
X1122Y671D01*
X1122Y673D01*
X1124Y673D01*
X1124Y675D01*
X1126Y675D01*
X1126Y677D01*
X1128Y677D01*
X1128Y679D01*
X1130Y679D01*
X1130Y681D01*
X1132Y681D01*
X1132Y683D01*
X1134Y683D01*
X1134Y685D01*
X1136Y685D01*
X1136Y687D01*
X1138Y687D01*
X1138Y689D01*
X1140Y689D01*
X1140Y691D01*
X398Y691D01*
G37*
D02*
G36*
X1162Y671D02*
X1162Y669D01*
X1164Y669D01*
X1164Y667D01*
X1166Y667D01*
X1166Y665D01*
X1168Y665D01*
X1168Y663D01*
X1170Y663D01*
X1170Y661D01*
X1172Y661D01*
X1172Y659D01*
X1174Y659D01*
X1174Y657D01*
X1176Y657D01*
X1176Y655D01*
X1178Y655D01*
X1178Y653D01*
X1180Y653D01*
X1180Y651D01*
X1182Y651D01*
X1182Y649D01*
X1184Y649D01*
X1184Y647D01*
X1186Y647D01*
X1186Y645D01*
X1188Y645D01*
X1188Y643D01*
X1190Y643D01*
X1190Y641D01*
X1192Y641D01*
X1192Y639D01*
X1194Y639D01*
X1194Y637D01*
X1196Y637D01*
X1196Y635D01*
X1198Y635D01*
X1198Y633D01*
X1200Y633D01*
X1200Y631D01*
X1220Y631D01*
X1220Y633D01*
X1222Y633D01*
X1222Y639D01*
X1224Y639D01*
X1224Y643D01*
X1226Y643D01*
X1226Y647D01*
X1228Y647D01*
X1228Y649D01*
X1230Y649D01*
X1230Y653D01*
X1232Y653D01*
X1232Y655D01*
X1234Y655D01*
X1234Y657D01*
X1236Y657D01*
X1236Y659D01*
X1240Y659D01*
X1240Y661D01*
X1242Y661D01*
X1242Y663D01*
X1246Y663D01*
X1246Y665D01*
X1250Y665D01*
X1250Y667D01*
X1256Y667D01*
X1256Y669D01*
X1268Y669D01*
X1268Y671D01*
X1162Y671D01*
G37*
D02*
G36*
X1200Y607D02*
X1200Y605D01*
X1198Y605D01*
X1198Y603D01*
X1196Y603D01*
X1196Y601D01*
X1194Y601D01*
X1194Y599D01*
X1192Y599D01*
X1192Y597D01*
X1190Y597D01*
X1190Y595D01*
X1188Y595D01*
X1188Y593D01*
X1186Y593D01*
X1186Y591D01*
X1184Y591D01*
X1184Y589D01*
X1182Y589D01*
X1182Y587D01*
X1180Y587D01*
X1180Y585D01*
X1178Y585D01*
X1178Y583D01*
X1176Y583D01*
X1176Y581D01*
X1174Y581D01*
X1174Y579D01*
X1172Y579D01*
X1172Y577D01*
X1170Y577D01*
X1170Y575D01*
X1168Y575D01*
X1168Y573D01*
X1166Y573D01*
X1166Y571D01*
X1164Y571D01*
X1164Y569D01*
X1258Y569D01*
X1258Y571D01*
X1250Y571D01*
X1250Y573D01*
X1246Y573D01*
X1246Y575D01*
X1242Y575D01*
X1242Y577D01*
X1240Y577D01*
X1240Y579D01*
X1238Y579D01*
X1238Y581D01*
X1234Y581D01*
X1234Y583D01*
X1232Y583D01*
X1232Y587D01*
X1230Y587D01*
X1230Y589D01*
X1228Y589D01*
X1228Y591D01*
X1226Y591D01*
X1226Y595D01*
X1224Y595D01*
X1224Y599D01*
X1222Y599D01*
X1222Y605D01*
X1220Y605D01*
X1220Y607D01*
X1200Y607D01*
G37*
D02*
G36*
X392Y577D02*
X392Y573D01*
X390Y573D01*
X390Y571D01*
X388Y571D01*
X388Y567D01*
X386Y567D01*
X386Y565D01*
X384Y565D01*
X384Y563D01*
X382Y563D01*
X382Y561D01*
X378Y561D01*
X378Y559D01*
X376Y559D01*
X376Y557D01*
X372Y557D01*
X372Y555D01*
X366Y555D01*
X366Y553D01*
X360Y553D01*
X360Y551D01*
X508Y551D01*
X508Y553D01*
X510Y553D01*
X510Y557D01*
X512Y557D01*
X512Y559D01*
X514Y559D01*
X514Y561D01*
X516Y561D01*
X516Y563D01*
X518Y563D01*
X518Y565D01*
X520Y565D01*
X520Y567D01*
X522Y567D01*
X522Y569D01*
X526Y569D01*
X526Y571D01*
X528Y571D01*
X528Y573D01*
X534Y573D01*
X534Y575D01*
X540Y575D01*
X540Y577D01*
X392Y577D01*
G37*
D02*
G36*
X1296Y577D02*
X1296Y575D01*
X1294Y575D01*
X1294Y573D01*
X1290Y573D01*
X1290Y571D01*
X1282Y571D01*
X1282Y569D01*
X2026Y569D01*
X2026Y571D01*
X2028Y571D01*
X2028Y573D01*
X2034Y573D01*
X2034Y575D01*
X2040Y575D01*
X2040Y577D01*
X1296Y577D01*
G37*
D02*
G36*
X1162Y569D02*
X1162Y567D01*
X2022Y567D01*
X2022Y569D01*
X1162Y569D01*
G37*
D02*
G36*
X1162Y569D02*
X1162Y567D01*
X2022Y567D01*
X2022Y569D01*
X1162Y569D01*
G37*
D02*
G36*
X1160Y567D02*
X1160Y565D01*
X1158Y565D01*
X1158Y563D01*
X1156Y563D01*
X1156Y561D01*
X1154Y561D01*
X1154Y559D01*
X1152Y559D01*
X1152Y557D01*
X1150Y557D01*
X1150Y555D01*
X1148Y555D01*
X1148Y553D01*
X1146Y553D01*
X1146Y551D01*
X1144Y551D01*
X1144Y549D01*
X1142Y549D01*
X1142Y547D01*
X1582Y547D01*
X1582Y545D01*
X1588Y545D01*
X1588Y543D01*
X1592Y543D01*
X1592Y541D01*
X1596Y541D01*
X1596Y539D01*
X1598Y539D01*
X1598Y537D01*
X1600Y537D01*
X1600Y535D01*
X1604Y535D01*
X1604Y533D01*
X1606Y533D01*
X1606Y529D01*
X1608Y529D01*
X1608Y527D01*
X1610Y527D01*
X1610Y525D01*
X1612Y525D01*
X1612Y521D01*
X1614Y521D01*
X1614Y515D01*
X1616Y515D01*
X1616Y509D01*
X1618Y509D01*
X1618Y491D01*
X1616Y491D01*
X1616Y485D01*
X1614Y485D01*
X1614Y483D01*
X2038Y483D01*
X2038Y485D01*
X2032Y485D01*
X2032Y487D01*
X2028Y487D01*
X2028Y489D01*
X2024Y489D01*
X2024Y491D01*
X2022Y491D01*
X2022Y493D01*
X2020Y493D01*
X2020Y495D01*
X2018Y495D01*
X2018Y497D01*
X2016Y497D01*
X2016Y499D01*
X2014Y499D01*
X2014Y501D01*
X2012Y501D01*
X2012Y503D01*
X2010Y503D01*
X2010Y507D01*
X2008Y507D01*
X2008Y511D01*
X2006Y511D01*
X2006Y517D01*
X2004Y517D01*
X2004Y529D01*
X2002Y529D01*
X2002Y531D01*
X2004Y531D01*
X2004Y543D01*
X2006Y543D01*
X2006Y549D01*
X2008Y549D01*
X2008Y553D01*
X2010Y553D01*
X2010Y557D01*
X2012Y557D01*
X2012Y559D01*
X2014Y559D01*
X2014Y561D01*
X2016Y561D01*
X2016Y563D01*
X2018Y563D01*
X2018Y565D01*
X2020Y565D01*
X2020Y567D01*
X1160Y567D01*
G37*
D02*
G36*
X590Y557D02*
X590Y555D01*
X592Y555D01*
X592Y551D01*
X594Y551D01*
X594Y545D01*
X596Y545D01*
X596Y539D01*
X598Y539D01*
X598Y521D01*
X596Y521D01*
X596Y515D01*
X594Y515D01*
X594Y509D01*
X592Y509D01*
X592Y505D01*
X590Y505D01*
X590Y503D01*
X588Y503D01*
X588Y501D01*
X586Y501D01*
X586Y497D01*
X584Y497D01*
X584Y495D01*
X582Y495D01*
X582Y493D01*
X578Y493D01*
X578Y491D01*
X576Y491D01*
X576Y489D01*
X572Y489D01*
X572Y487D01*
X568Y487D01*
X568Y485D01*
X562Y485D01*
X562Y483D01*
X720Y483D01*
X720Y487D01*
X718Y487D01*
X718Y491D01*
X716Y491D01*
X716Y497D01*
X714Y497D01*
X714Y509D01*
X712Y509D01*
X712Y511D01*
X714Y511D01*
X714Y523D01*
X716Y523D01*
X716Y529D01*
X718Y529D01*
X718Y533D01*
X720Y533D01*
X720Y537D01*
X722Y537D01*
X722Y539D01*
X724Y539D01*
X724Y541D01*
X726Y541D01*
X726Y543D01*
X728Y543D01*
X728Y545D01*
X730Y545D01*
X730Y547D01*
X732Y547D01*
X732Y549D01*
X736Y549D01*
X736Y551D01*
X738Y551D01*
X738Y553D01*
X744Y553D01*
X744Y555D01*
X750Y555D01*
X750Y557D01*
X590Y557D01*
G37*
D02*
G36*
X48Y551D02*
X48Y549D01*
X508Y549D01*
X508Y551D01*
X48Y551D01*
G37*
D02*
G36*
X48Y551D02*
X48Y549D01*
X508Y549D01*
X508Y551D01*
X48Y551D01*
G37*
D02*
G36*
X48Y549D02*
X48Y483D01*
X538Y483D01*
X538Y485D01*
X532Y485D01*
X532Y487D01*
X528Y487D01*
X528Y489D01*
X524Y489D01*
X524Y491D01*
X522Y491D01*
X522Y493D01*
X520Y493D01*
X520Y495D01*
X518Y495D01*
X518Y497D01*
X516Y497D01*
X516Y499D01*
X514Y499D01*
X514Y501D01*
X512Y501D01*
X512Y503D01*
X510Y503D01*
X510Y507D01*
X508Y507D01*
X508Y511D01*
X506Y511D01*
X506Y517D01*
X504Y517D01*
X504Y529D01*
X502Y529D01*
X502Y531D01*
X504Y531D01*
X504Y543D01*
X506Y543D01*
X506Y549D01*
X48Y549D01*
G37*
D02*
G36*
X790Y547D02*
X790Y545D01*
X1560Y545D01*
X1560Y547D01*
X790Y547D01*
G37*
D02*
G36*
X790Y547D02*
X790Y545D01*
X1560Y545D01*
X1560Y547D01*
X790Y547D01*
G37*
D02*
G36*
X794Y545D02*
X794Y543D01*
X796Y543D01*
X796Y539D01*
X798Y539D01*
X798Y537D01*
X800Y537D01*
X800Y535D01*
X802Y535D01*
X802Y531D01*
X804Y531D01*
X804Y525D01*
X806Y525D01*
X806Y519D01*
X808Y519D01*
X808Y501D01*
X806Y501D01*
X806Y495D01*
X804Y495D01*
X804Y489D01*
X802Y489D01*
X802Y485D01*
X800Y485D01*
X800Y483D01*
X798Y483D01*
X798Y481D01*
X796Y481D01*
X796Y477D01*
X794Y477D01*
X794Y475D01*
X792Y475D01*
X792Y473D01*
X788Y473D01*
X788Y471D01*
X786Y471D01*
X786Y469D01*
X782Y469D01*
X782Y467D01*
X778Y467D01*
X778Y465D01*
X772Y465D01*
X772Y463D01*
X1540Y463D01*
X1540Y465D01*
X1538Y465D01*
X1538Y467D01*
X1536Y467D01*
X1536Y469D01*
X1534Y469D01*
X1534Y471D01*
X1532Y471D01*
X1532Y473D01*
X1530Y473D01*
X1530Y477D01*
X1528Y477D01*
X1528Y481D01*
X1526Y481D01*
X1526Y487D01*
X1524Y487D01*
X1524Y499D01*
X1522Y499D01*
X1522Y501D01*
X1524Y501D01*
X1524Y513D01*
X1526Y513D01*
X1526Y519D01*
X1528Y519D01*
X1528Y523D01*
X1530Y523D01*
X1530Y527D01*
X1532Y527D01*
X1532Y529D01*
X1534Y529D01*
X1534Y531D01*
X1536Y531D01*
X1536Y533D01*
X1538Y533D01*
X1538Y535D01*
X1540Y535D01*
X1540Y537D01*
X1542Y537D01*
X1542Y539D01*
X1546Y539D01*
X1546Y541D01*
X1548Y541D01*
X1548Y543D01*
X1554Y543D01*
X1554Y545D01*
X794Y545D01*
G37*
D02*
G36*
X48Y483D02*
X48Y481D01*
X722Y481D01*
X722Y483D01*
X48Y483D01*
G37*
D02*
G36*
X48Y483D02*
X48Y481D01*
X722Y481D01*
X722Y483D01*
X48Y483D01*
G37*
D02*
G36*
X1614Y483D02*
X1614Y481D01*
X3314Y481D01*
X3314Y483D01*
X1614Y483D01*
G37*
D02*
G36*
X1614Y483D02*
X1614Y481D01*
X3314Y481D01*
X3314Y483D01*
X1614Y483D01*
G37*
D02*
G36*
X48Y481D02*
X48Y463D01*
X748Y463D01*
X748Y465D01*
X742Y465D01*
X742Y467D01*
X738Y467D01*
X738Y469D01*
X734Y469D01*
X734Y471D01*
X732Y471D01*
X732Y473D01*
X730Y473D01*
X730Y475D01*
X728Y475D01*
X728Y477D01*
X726Y477D01*
X726Y479D01*
X724Y479D01*
X724Y481D01*
X48Y481D01*
G37*
D02*
G36*
X1614Y481D02*
X1614Y479D01*
X1612Y479D01*
X1612Y475D01*
X1610Y475D01*
X1610Y473D01*
X1608Y473D01*
X1608Y471D01*
X1606Y471D01*
X1606Y467D01*
X1604Y467D01*
X1604Y465D01*
X1602Y465D01*
X1602Y463D01*
X1598Y463D01*
X1598Y461D01*
X1596Y461D01*
X1596Y459D01*
X1592Y459D01*
X1592Y457D01*
X1588Y457D01*
X1588Y455D01*
X1582Y455D01*
X1582Y453D01*
X3314Y453D01*
X3314Y481D01*
X1614Y481D01*
G37*
D02*
G36*
X48Y463D02*
X48Y461D01*
X1542Y461D01*
X1542Y463D01*
X48Y463D01*
G37*
D02*
G36*
X48Y463D02*
X48Y461D01*
X1542Y461D01*
X1542Y463D01*
X48Y463D01*
G37*
D02*
G36*
X48Y461D02*
X48Y455D01*
X1012Y455D01*
X1012Y453D01*
X1558Y453D01*
X1558Y455D01*
X1552Y455D01*
X1552Y457D01*
X1548Y457D01*
X1548Y459D01*
X1544Y459D01*
X1544Y461D01*
X48Y461D01*
G37*
D02*
G36*
X48Y455D02*
X48Y365D01*
X288Y365D01*
X288Y367D01*
X282Y367D01*
X282Y369D01*
X278Y369D01*
X278Y371D01*
X276Y371D01*
X276Y373D01*
X272Y373D01*
X272Y375D01*
X270Y375D01*
X270Y377D01*
X268Y377D01*
X268Y379D01*
X266Y379D01*
X266Y381D01*
X264Y381D01*
X264Y385D01*
X262Y385D01*
X262Y387D01*
X260Y387D01*
X260Y391D01*
X258Y391D01*
X258Y397D01*
X256Y397D01*
X256Y407D01*
X254Y407D01*
X254Y413D01*
X256Y413D01*
X256Y423D01*
X258Y423D01*
X258Y429D01*
X260Y429D01*
X260Y433D01*
X262Y433D01*
X262Y435D01*
X264Y435D01*
X264Y439D01*
X266Y439D01*
X266Y441D01*
X268Y441D01*
X268Y443D01*
X270Y443D01*
X270Y445D01*
X272Y445D01*
X272Y447D01*
X276Y447D01*
X276Y449D01*
X280Y449D01*
X280Y451D01*
X284Y451D01*
X284Y453D01*
X290Y453D01*
X290Y455D01*
X48Y455D01*
G37*
D02*
G36*
X312Y455D02*
X312Y453D01*
X318Y453D01*
X318Y451D01*
X322Y451D01*
X322Y449D01*
X326Y449D01*
X326Y447D01*
X328Y447D01*
X328Y445D01*
X330Y445D01*
X330Y443D01*
X332Y443D01*
X332Y441D01*
X334Y441D01*
X334Y439D01*
X336Y439D01*
X336Y437D01*
X338Y437D01*
X338Y433D01*
X340Y433D01*
X340Y431D01*
X342Y431D01*
X342Y425D01*
X344Y425D01*
X344Y419D01*
X346Y419D01*
X346Y401D01*
X344Y401D01*
X344Y395D01*
X342Y395D01*
X342Y389D01*
X340Y389D01*
X340Y385D01*
X338Y385D01*
X338Y383D01*
X336Y383D01*
X336Y381D01*
X334Y381D01*
X334Y379D01*
X332Y379D01*
X332Y377D01*
X330Y377D01*
X330Y375D01*
X328Y375D01*
X328Y373D01*
X326Y373D01*
X326Y371D01*
X322Y371D01*
X322Y369D01*
X318Y369D01*
X318Y367D01*
X312Y367D01*
X312Y365D01*
X588Y365D01*
X588Y367D01*
X582Y367D01*
X582Y369D01*
X578Y369D01*
X578Y371D01*
X576Y371D01*
X576Y373D01*
X572Y373D01*
X572Y375D01*
X570Y375D01*
X570Y377D01*
X568Y377D01*
X568Y379D01*
X566Y379D01*
X566Y381D01*
X564Y381D01*
X564Y385D01*
X562Y385D01*
X562Y387D01*
X560Y387D01*
X560Y391D01*
X558Y391D01*
X558Y397D01*
X556Y397D01*
X556Y407D01*
X554Y407D01*
X554Y413D01*
X556Y413D01*
X556Y423D01*
X558Y423D01*
X558Y429D01*
X560Y429D01*
X560Y433D01*
X562Y433D01*
X562Y435D01*
X564Y435D01*
X564Y439D01*
X566Y439D01*
X566Y441D01*
X568Y441D01*
X568Y443D01*
X570Y443D01*
X570Y445D01*
X572Y445D01*
X572Y447D01*
X576Y447D01*
X576Y449D01*
X580Y449D01*
X580Y451D01*
X584Y451D01*
X584Y453D01*
X590Y453D01*
X590Y455D01*
X312Y455D01*
G37*
D02*
G36*
X612Y455D02*
X612Y453D01*
X618Y453D01*
X618Y451D01*
X622Y451D01*
X622Y449D01*
X626Y449D01*
X626Y447D01*
X628Y447D01*
X628Y445D01*
X630Y445D01*
X630Y443D01*
X632Y443D01*
X632Y441D01*
X634Y441D01*
X634Y439D01*
X636Y439D01*
X636Y437D01*
X638Y437D01*
X638Y433D01*
X640Y433D01*
X640Y431D01*
X642Y431D01*
X642Y425D01*
X644Y425D01*
X644Y419D01*
X646Y419D01*
X646Y401D01*
X644Y401D01*
X644Y395D01*
X642Y395D01*
X642Y389D01*
X640Y389D01*
X640Y385D01*
X638Y385D01*
X638Y383D01*
X636Y383D01*
X636Y381D01*
X634Y381D01*
X634Y379D01*
X632Y379D01*
X632Y377D01*
X630Y377D01*
X630Y375D01*
X628Y375D01*
X628Y373D01*
X626Y373D01*
X626Y371D01*
X622Y371D01*
X622Y369D01*
X618Y369D01*
X618Y367D01*
X612Y367D01*
X612Y365D01*
X988Y365D01*
X988Y367D01*
X982Y367D01*
X982Y369D01*
X978Y369D01*
X978Y371D01*
X976Y371D01*
X976Y373D01*
X972Y373D01*
X972Y375D01*
X970Y375D01*
X970Y377D01*
X968Y377D01*
X968Y379D01*
X966Y379D01*
X966Y381D01*
X964Y381D01*
X964Y385D01*
X962Y385D01*
X962Y387D01*
X960Y387D01*
X960Y391D01*
X958Y391D01*
X958Y397D01*
X956Y397D01*
X956Y407D01*
X954Y407D01*
X954Y413D01*
X956Y413D01*
X956Y423D01*
X958Y423D01*
X958Y429D01*
X960Y429D01*
X960Y433D01*
X962Y433D01*
X962Y435D01*
X964Y435D01*
X964Y439D01*
X966Y439D01*
X966Y441D01*
X968Y441D01*
X968Y443D01*
X970Y443D01*
X970Y445D01*
X972Y445D01*
X972Y447D01*
X976Y447D01*
X976Y449D01*
X980Y449D01*
X980Y451D01*
X984Y451D01*
X984Y453D01*
X990Y453D01*
X990Y455D01*
X612Y455D01*
G37*
D02*
G36*
X1018Y453D02*
X1018Y451D01*
X3314Y451D01*
X3314Y453D01*
X1018Y453D01*
G37*
D02*
G36*
X1018Y453D02*
X1018Y451D01*
X3314Y451D01*
X3314Y453D01*
X1018Y453D01*
G37*
D02*
G36*
X1022Y451D02*
X1022Y449D01*
X1026Y449D01*
X1026Y447D01*
X1028Y447D01*
X1028Y445D01*
X1030Y445D01*
X1030Y443D01*
X1032Y443D01*
X1032Y441D01*
X1034Y441D01*
X1034Y439D01*
X1036Y439D01*
X1036Y437D01*
X1038Y437D01*
X1038Y433D01*
X1040Y433D01*
X1040Y431D01*
X1042Y431D01*
X1042Y425D01*
X1044Y425D01*
X1044Y419D01*
X1046Y419D01*
X1046Y401D01*
X1044Y401D01*
X1044Y395D01*
X1042Y395D01*
X1042Y389D01*
X1040Y389D01*
X1040Y385D01*
X1038Y385D01*
X1038Y383D01*
X1036Y383D01*
X1036Y381D01*
X1034Y381D01*
X1034Y379D01*
X1032Y379D01*
X1032Y377D01*
X1030Y377D01*
X1030Y375D01*
X1028Y375D01*
X1028Y373D01*
X1026Y373D01*
X1026Y371D01*
X1022Y371D01*
X1022Y369D01*
X1018Y369D01*
X1018Y367D01*
X1012Y367D01*
X1012Y365D01*
X3314Y365D01*
X3314Y451D01*
X1022Y451D01*
G37*
D02*
G36*
X48Y365D02*
X48Y363D01*
X3314Y363D01*
X3314Y365D01*
X48Y365D01*
G37*
D02*
G36*
X48Y365D02*
X48Y363D01*
X3314Y363D01*
X3314Y365D01*
X48Y365D01*
G37*
D02*
G36*
X48Y365D02*
X48Y363D01*
X3314Y363D01*
X3314Y365D01*
X48Y365D01*
G37*
D02*
G36*
X48Y365D02*
X48Y363D01*
X3314Y363D01*
X3314Y365D01*
X48Y365D01*
G37*
D02*
G36*
X48Y363D02*
X48Y293D01*
X2186Y293D01*
X2186Y291D01*
X2194Y291D01*
X2194Y289D01*
X2198Y289D01*
X2198Y287D01*
X2202Y287D01*
X2202Y285D01*
X2206Y285D01*
X2206Y283D01*
X2208Y283D01*
X2208Y281D01*
X2210Y281D01*
X2210Y279D01*
X2212Y279D01*
X2212Y277D01*
X2214Y277D01*
X2214Y275D01*
X2216Y275D01*
X2216Y271D01*
X2218Y271D01*
X2218Y267D01*
X2220Y267D01*
X2220Y261D01*
X2222Y261D01*
X2222Y239D01*
X2220Y239D01*
X2220Y233D01*
X2218Y233D01*
X2218Y229D01*
X2216Y229D01*
X2216Y225D01*
X2214Y225D01*
X2214Y223D01*
X2212Y223D01*
X2212Y221D01*
X2210Y221D01*
X2210Y219D01*
X2208Y219D01*
X2208Y217D01*
X2206Y217D01*
X2206Y215D01*
X2202Y215D01*
X2202Y213D01*
X2440Y213D01*
X2440Y211D01*
X2450Y211D01*
X2450Y209D01*
X2456Y209D01*
X2456Y207D01*
X2460Y207D01*
X2460Y205D01*
X2464Y205D01*
X2464Y203D01*
X2468Y203D01*
X2468Y201D01*
X2472Y201D01*
X2472Y199D01*
X2474Y199D01*
X2474Y197D01*
X2478Y197D01*
X2478Y195D01*
X2480Y195D01*
X2480Y193D01*
X2482Y193D01*
X2482Y191D01*
X2484Y191D01*
X2484Y189D01*
X2486Y189D01*
X2486Y185D01*
X2488Y185D01*
X2488Y183D01*
X2490Y183D01*
X2490Y181D01*
X2492Y181D01*
X2492Y177D01*
X2494Y177D01*
X2494Y173D01*
X2496Y173D01*
X2496Y169D01*
X2498Y169D01*
X2498Y165D01*
X2500Y165D01*
X2500Y157D01*
X2502Y157D01*
X2502Y147D01*
X2504Y147D01*
X2504Y133D01*
X2502Y133D01*
X2502Y123D01*
X2500Y123D01*
X2500Y115D01*
X2498Y115D01*
X2498Y111D01*
X2496Y111D01*
X2496Y107D01*
X2494Y107D01*
X2494Y103D01*
X2492Y103D01*
X2492Y99D01*
X2490Y99D01*
X2490Y97D01*
X2488Y97D01*
X2488Y93D01*
X2486Y93D01*
X2486Y91D01*
X2484Y91D01*
X2484Y89D01*
X2482Y89D01*
X2482Y87D01*
X2480Y87D01*
X2480Y85D01*
X2478Y85D01*
X2478Y83D01*
X2474Y83D01*
X2474Y81D01*
X2472Y81D01*
X2472Y79D01*
X2468Y79D01*
X2468Y77D01*
X2466Y77D01*
X2466Y75D01*
X2462Y75D01*
X2462Y73D01*
X2456Y73D01*
X2456Y71D01*
X2450Y71D01*
X2450Y69D01*
X2442Y69D01*
X2442Y67D01*
X3264Y67D01*
X3264Y69D01*
X3266Y69D01*
X3266Y71D01*
X3270Y71D01*
X3270Y73D01*
X3272Y73D01*
X3272Y75D01*
X3274Y75D01*
X3274Y77D01*
X3276Y77D01*
X3276Y79D01*
X3278Y79D01*
X3278Y81D01*
X3280Y81D01*
X3280Y83D01*
X3282Y83D01*
X3282Y85D01*
X3284Y85D01*
X3284Y87D01*
X3286Y87D01*
X3286Y89D01*
X3288Y89D01*
X3288Y93D01*
X3290Y93D01*
X3290Y95D01*
X3292Y95D01*
X3292Y97D01*
X3294Y97D01*
X3294Y101D01*
X3296Y101D01*
X3296Y103D01*
X3298Y103D01*
X3298Y107D01*
X3300Y107D01*
X3300Y111D01*
X3302Y111D01*
X3302Y115D01*
X3304Y115D01*
X3304Y119D01*
X3306Y119D01*
X3306Y125D01*
X3308Y125D01*
X3308Y131D01*
X3310Y131D01*
X3310Y139D01*
X3312Y139D01*
X3312Y151D01*
X3314Y151D01*
X3314Y363D01*
X48Y363D01*
G37*
D02*
G36*
X48Y293D02*
X48Y213D01*
X160Y213D01*
X160Y211D01*
X170Y211D01*
X170Y209D01*
X176Y209D01*
X176Y207D01*
X1938Y207D01*
X1938Y209D01*
X1930Y209D01*
X1930Y211D01*
X1926Y211D01*
X1926Y213D01*
X1922Y213D01*
X1922Y215D01*
X1918Y215D01*
X1918Y217D01*
X1916Y217D01*
X1916Y219D01*
X1914Y219D01*
X1914Y221D01*
X1912Y221D01*
X1912Y223D01*
X1910Y223D01*
X1910Y227D01*
X1908Y227D01*
X1908Y229D01*
X1906Y229D01*
X1906Y233D01*
X1904Y233D01*
X1904Y241D01*
X1902Y241D01*
X1902Y259D01*
X1904Y259D01*
X1904Y267D01*
X1906Y267D01*
X1906Y269D01*
X1908Y269D01*
X1908Y273D01*
X1910Y273D01*
X1910Y277D01*
X1912Y277D01*
X1912Y279D01*
X1914Y279D01*
X1914Y281D01*
X1916Y281D01*
X1916Y283D01*
X1920Y283D01*
X1920Y285D01*
X1922Y285D01*
X1922Y287D01*
X1926Y287D01*
X1926Y289D01*
X1930Y289D01*
X1930Y291D01*
X1940Y291D01*
X1940Y293D01*
X48Y293D01*
G37*
D02*
G36*
X1950Y293D02*
X1950Y291D01*
X1958Y291D01*
X1958Y289D01*
X1962Y289D01*
X1962Y287D01*
X1966Y287D01*
X1966Y285D01*
X1970Y285D01*
X1970Y283D01*
X1972Y283D01*
X1972Y281D01*
X1974Y281D01*
X1974Y279D01*
X1994Y279D01*
X1994Y281D01*
X1996Y281D01*
X1996Y283D01*
X1998Y283D01*
X1998Y285D01*
X2000Y285D01*
X2000Y287D01*
X2004Y287D01*
X2004Y289D01*
X2010Y289D01*
X2010Y291D01*
X2018Y291D01*
X2018Y293D01*
X1950Y293D01*
G37*
D02*
G36*
X2028Y293D02*
X2028Y291D01*
X2036Y291D01*
X2036Y289D01*
X2042Y289D01*
X2042Y287D01*
X2046Y287D01*
X2046Y285D01*
X2048Y285D01*
X2048Y283D01*
X2050Y283D01*
X2050Y281D01*
X2052Y281D01*
X2052Y279D01*
X2072Y279D01*
X2072Y281D01*
X2074Y281D01*
X2074Y283D01*
X2076Y283D01*
X2076Y285D01*
X2080Y285D01*
X2080Y287D01*
X2084Y287D01*
X2084Y289D01*
X2088Y289D01*
X2088Y291D01*
X2096Y291D01*
X2096Y293D01*
X2028Y293D01*
G37*
D02*
G36*
X2106Y293D02*
X2106Y291D01*
X2114Y291D01*
X2114Y289D01*
X2120Y289D01*
X2120Y287D01*
X2124Y287D01*
X2124Y285D01*
X2126Y285D01*
X2126Y283D01*
X2130Y283D01*
X2130Y281D01*
X2152Y281D01*
X2152Y283D01*
X2156Y283D01*
X2156Y285D01*
X2158Y285D01*
X2158Y287D01*
X2162Y287D01*
X2162Y289D01*
X2168Y289D01*
X2168Y291D01*
X2176Y291D01*
X2176Y293D01*
X2106Y293D01*
G37*
D02*
G36*
X1972Y219D02*
X1972Y217D01*
X1970Y217D01*
X1970Y215D01*
X1966Y215D01*
X1966Y213D01*
X1962Y213D01*
X1962Y211D01*
X1958Y211D01*
X1958Y209D01*
X1950Y209D01*
X1950Y207D01*
X2016Y207D01*
X2016Y209D01*
X2008Y209D01*
X2008Y211D01*
X2004Y211D01*
X2004Y213D01*
X2000Y213D01*
X2000Y215D01*
X1998Y215D01*
X1998Y217D01*
X1996Y217D01*
X1996Y219D01*
X1972Y219D01*
G37*
D02*
G36*
X2050Y219D02*
X2050Y217D01*
X2048Y217D01*
X2048Y215D01*
X2046Y215D01*
X2046Y213D01*
X2042Y213D01*
X2042Y211D01*
X2038Y211D01*
X2038Y209D01*
X2030Y209D01*
X2030Y207D01*
X2096Y207D01*
X2096Y209D01*
X2088Y209D01*
X2088Y211D01*
X2082Y211D01*
X2082Y213D01*
X2080Y213D01*
X2080Y215D01*
X2076Y215D01*
X2076Y217D01*
X2074Y217D01*
X2074Y219D01*
X2050Y219D01*
G37*
D02*
G36*
X2130Y219D02*
X2130Y217D01*
X2126Y217D01*
X2126Y215D01*
X2124Y215D01*
X2124Y213D01*
X2120Y213D01*
X2120Y211D01*
X2116Y211D01*
X2116Y209D01*
X2108Y209D01*
X2108Y207D01*
X2174Y207D01*
X2174Y209D01*
X2166Y209D01*
X2166Y211D01*
X2162Y211D01*
X2162Y213D01*
X2158Y213D01*
X2158Y215D01*
X2156Y215D01*
X2156Y217D01*
X2152Y217D01*
X2152Y219D01*
X2130Y219D01*
G37*
D02*
G36*
X48Y213D02*
X48Y147D01*
X50Y147D01*
X50Y137D01*
X52Y137D01*
X52Y129D01*
X54Y129D01*
X54Y123D01*
X56Y123D01*
X56Y119D01*
X58Y119D01*
X58Y113D01*
X60Y113D01*
X60Y109D01*
X62Y109D01*
X62Y107D01*
X64Y107D01*
X64Y103D01*
X66Y103D01*
X66Y99D01*
X68Y99D01*
X68Y97D01*
X70Y97D01*
X70Y95D01*
X72Y95D01*
X72Y91D01*
X74Y91D01*
X74Y89D01*
X76Y89D01*
X76Y87D01*
X78Y87D01*
X78Y85D01*
X80Y85D01*
X80Y83D01*
X82Y83D01*
X82Y81D01*
X84Y81D01*
X84Y79D01*
X86Y79D01*
X86Y77D01*
X106Y77D01*
X106Y83D01*
X104Y83D01*
X104Y85D01*
X102Y85D01*
X102Y87D01*
X100Y87D01*
X100Y89D01*
X98Y89D01*
X98Y91D01*
X96Y91D01*
X96Y93D01*
X94Y93D01*
X94Y95D01*
X92Y95D01*
X92Y97D01*
X90Y97D01*
X90Y101D01*
X88Y101D01*
X88Y105D01*
X86Y105D01*
X86Y109D01*
X84Y109D01*
X84Y113D01*
X82Y113D01*
X82Y117D01*
X80Y117D01*
X80Y125D01*
X78Y125D01*
X78Y155D01*
X80Y155D01*
X80Y161D01*
X82Y161D01*
X82Y167D01*
X84Y167D01*
X84Y171D01*
X86Y171D01*
X86Y175D01*
X88Y175D01*
X88Y179D01*
X90Y179D01*
X90Y183D01*
X92Y183D01*
X92Y185D01*
X94Y185D01*
X94Y187D01*
X96Y187D01*
X96Y189D01*
X98Y189D01*
X98Y191D01*
X100Y191D01*
X100Y193D01*
X102Y193D01*
X102Y195D01*
X104Y195D01*
X104Y197D01*
X106Y197D01*
X106Y199D01*
X110Y199D01*
X110Y201D01*
X112Y201D01*
X112Y203D01*
X116Y203D01*
X116Y205D01*
X120Y205D01*
X120Y207D01*
X124Y207D01*
X124Y209D01*
X130Y209D01*
X130Y211D01*
X140Y211D01*
X140Y213D01*
X48Y213D01*
G37*
D02*
G36*
X2200Y213D02*
X2200Y211D01*
X2194Y211D01*
X2194Y209D01*
X2186Y209D01*
X2186Y207D01*
X2404Y207D01*
X2404Y209D01*
X2410Y209D01*
X2410Y211D01*
X2420Y211D01*
X2420Y213D01*
X2200Y213D01*
G37*
D02*
G36*
X180Y207D02*
X180Y205D01*
X2400Y205D01*
X2400Y207D01*
X180Y207D01*
G37*
D02*
G36*
X180Y207D02*
X180Y205D01*
X2400Y205D01*
X2400Y207D01*
X180Y207D01*
G37*
D02*
G36*
X180Y207D02*
X180Y205D01*
X2400Y205D01*
X2400Y207D01*
X180Y207D01*
G37*
D02*
G36*
X180Y207D02*
X180Y205D01*
X2400Y205D01*
X2400Y207D01*
X180Y207D01*
G37*
D02*
G36*
X180Y207D02*
X180Y205D01*
X2400Y205D01*
X2400Y207D01*
X180Y207D01*
G37*
D02*
G36*
X184Y205D02*
X184Y203D01*
X188Y203D01*
X188Y201D01*
X192Y201D01*
X192Y199D01*
X194Y199D01*
X194Y197D01*
X196Y197D01*
X196Y195D01*
X200Y195D01*
X200Y193D01*
X202Y193D01*
X202Y191D01*
X204Y191D01*
X204Y189D01*
X206Y189D01*
X206Y185D01*
X208Y185D01*
X208Y183D01*
X210Y183D01*
X210Y181D01*
X212Y181D01*
X212Y177D01*
X214Y177D01*
X214Y173D01*
X216Y173D01*
X216Y169D01*
X218Y169D01*
X218Y165D01*
X220Y165D01*
X220Y157D01*
X222Y157D01*
X222Y155D01*
X1012Y155D01*
X1012Y153D01*
X1018Y153D01*
X1018Y151D01*
X1022Y151D01*
X1022Y149D01*
X1026Y149D01*
X1026Y147D01*
X1028Y147D01*
X1028Y145D01*
X1030Y145D01*
X1030Y143D01*
X1032Y143D01*
X1032Y141D01*
X1034Y141D01*
X1034Y139D01*
X1036Y139D01*
X1036Y137D01*
X1038Y137D01*
X1038Y133D01*
X1040Y133D01*
X1040Y131D01*
X1042Y131D01*
X1042Y125D01*
X1044Y125D01*
X1044Y119D01*
X1046Y119D01*
X1046Y101D01*
X1044Y101D01*
X1044Y95D01*
X1042Y95D01*
X1042Y89D01*
X1040Y89D01*
X1040Y85D01*
X1038Y85D01*
X1038Y83D01*
X1036Y83D01*
X1036Y81D01*
X1034Y81D01*
X1034Y79D01*
X1032Y79D01*
X1032Y77D01*
X1030Y77D01*
X1030Y75D01*
X1028Y75D01*
X1028Y73D01*
X1026Y73D01*
X1026Y71D01*
X1022Y71D01*
X1022Y69D01*
X1018Y69D01*
X1018Y67D01*
X2418Y67D01*
X2418Y69D01*
X2410Y69D01*
X2410Y71D01*
X2404Y71D01*
X2404Y73D01*
X2400Y73D01*
X2400Y75D01*
X2396Y75D01*
X2396Y77D01*
X2392Y77D01*
X2392Y79D01*
X2388Y79D01*
X2388Y81D01*
X2386Y81D01*
X2386Y83D01*
X2384Y83D01*
X2384Y85D01*
X2382Y85D01*
X2382Y87D01*
X2380Y87D01*
X2380Y89D01*
X2378Y89D01*
X2378Y91D01*
X2376Y91D01*
X2376Y93D01*
X2374Y93D01*
X2374Y95D01*
X2372Y95D01*
X2372Y97D01*
X2370Y97D01*
X2370Y101D01*
X2368Y101D01*
X2368Y105D01*
X2366Y105D01*
X2366Y109D01*
X2364Y109D01*
X2364Y113D01*
X2362Y113D01*
X2362Y117D01*
X2360Y117D01*
X2360Y125D01*
X2358Y125D01*
X2358Y155D01*
X2360Y155D01*
X2360Y161D01*
X2362Y161D01*
X2362Y167D01*
X2364Y167D01*
X2364Y171D01*
X2366Y171D01*
X2366Y175D01*
X2368Y175D01*
X2368Y179D01*
X2370Y179D01*
X2370Y183D01*
X2372Y183D01*
X2372Y185D01*
X2374Y185D01*
X2374Y187D01*
X2376Y187D01*
X2376Y189D01*
X2378Y189D01*
X2378Y191D01*
X2380Y191D01*
X2380Y193D01*
X2382Y193D01*
X2382Y195D01*
X2384Y195D01*
X2384Y197D01*
X2386Y197D01*
X2386Y199D01*
X2390Y199D01*
X2390Y201D01*
X2392Y201D01*
X2392Y203D01*
X2396Y203D01*
X2396Y205D01*
X184Y205D01*
G37*
D02*
G36*
X222Y155D02*
X222Y147D01*
X224Y147D01*
X224Y133D01*
X222Y133D01*
X222Y123D01*
X220Y123D01*
X220Y115D01*
X218Y115D01*
X218Y111D01*
X216Y111D01*
X216Y107D01*
X214Y107D01*
X214Y103D01*
X212Y103D01*
X212Y99D01*
X210Y99D01*
X210Y97D01*
X208Y97D01*
X208Y93D01*
X206Y93D01*
X206Y91D01*
X204Y91D01*
X204Y89D01*
X202Y89D01*
X202Y87D01*
X200Y87D01*
X200Y85D01*
X198Y85D01*
X198Y83D01*
X194Y83D01*
X194Y81D01*
X192Y81D01*
X192Y79D01*
X188Y79D01*
X188Y77D01*
X186Y77D01*
X186Y75D01*
X182Y75D01*
X182Y73D01*
X176Y73D01*
X176Y71D01*
X170Y71D01*
X170Y69D01*
X162Y69D01*
X162Y67D01*
X146Y67D01*
X146Y47D01*
X388Y47D01*
X388Y67D01*
X382Y67D01*
X382Y69D01*
X378Y69D01*
X378Y71D01*
X376Y71D01*
X376Y73D01*
X372Y73D01*
X372Y75D01*
X370Y75D01*
X370Y77D01*
X368Y77D01*
X368Y79D01*
X366Y79D01*
X366Y81D01*
X364Y81D01*
X364Y85D01*
X362Y85D01*
X362Y87D01*
X360Y87D01*
X360Y91D01*
X358Y91D01*
X358Y97D01*
X356Y97D01*
X356Y107D01*
X354Y107D01*
X354Y113D01*
X356Y113D01*
X356Y123D01*
X358Y123D01*
X358Y129D01*
X360Y129D01*
X360Y133D01*
X362Y133D01*
X362Y135D01*
X364Y135D01*
X364Y139D01*
X366Y139D01*
X366Y141D01*
X368Y141D01*
X368Y143D01*
X370Y143D01*
X370Y145D01*
X372Y145D01*
X372Y147D01*
X376Y147D01*
X376Y149D01*
X380Y149D01*
X380Y151D01*
X384Y151D01*
X384Y153D01*
X390Y153D01*
X390Y155D01*
X222Y155D01*
G37*
D02*
G36*
X412Y155D02*
X412Y153D01*
X418Y153D01*
X418Y151D01*
X422Y151D01*
X422Y149D01*
X426Y149D01*
X426Y147D01*
X428Y147D01*
X428Y145D01*
X430Y145D01*
X430Y143D01*
X432Y143D01*
X432Y141D01*
X434Y141D01*
X434Y139D01*
X436Y139D01*
X436Y137D01*
X438Y137D01*
X438Y133D01*
X440Y133D01*
X440Y131D01*
X442Y131D01*
X442Y125D01*
X444Y125D01*
X444Y119D01*
X446Y119D01*
X446Y101D01*
X444Y101D01*
X444Y95D01*
X442Y95D01*
X442Y89D01*
X440Y89D01*
X440Y85D01*
X438Y85D01*
X438Y83D01*
X436Y83D01*
X436Y81D01*
X434Y81D01*
X434Y79D01*
X432Y79D01*
X432Y77D01*
X430Y77D01*
X430Y75D01*
X428Y75D01*
X428Y73D01*
X426Y73D01*
X426Y71D01*
X422Y71D01*
X422Y69D01*
X418Y69D01*
X418Y67D01*
X412Y67D01*
X412Y47D01*
X988Y47D01*
X988Y67D01*
X982Y67D01*
X982Y69D01*
X978Y69D01*
X978Y71D01*
X976Y71D01*
X976Y73D01*
X972Y73D01*
X972Y75D01*
X970Y75D01*
X970Y77D01*
X968Y77D01*
X968Y79D01*
X966Y79D01*
X966Y81D01*
X964Y81D01*
X964Y85D01*
X962Y85D01*
X962Y87D01*
X960Y87D01*
X960Y91D01*
X958Y91D01*
X958Y97D01*
X956Y97D01*
X956Y107D01*
X954Y107D01*
X954Y113D01*
X956Y113D01*
X956Y123D01*
X958Y123D01*
X958Y129D01*
X960Y129D01*
X960Y133D01*
X962Y133D01*
X962Y135D01*
X964Y135D01*
X964Y139D01*
X966Y139D01*
X966Y141D01*
X968Y141D01*
X968Y143D01*
X970Y143D01*
X970Y145D01*
X972Y145D01*
X972Y147D01*
X976Y147D01*
X976Y149D01*
X980Y149D01*
X980Y151D01*
X984Y151D01*
X984Y153D01*
X990Y153D01*
X990Y155D01*
X412Y155D01*
G37*
D02*
G36*
X1012Y67D02*
X1012Y65D01*
X3260Y65D01*
X3260Y67D01*
X1012Y67D01*
G37*
D02*
G36*
X1012Y67D02*
X1012Y65D01*
X3260Y65D01*
X3260Y67D01*
X1012Y67D01*
G37*
D02*
G36*
X1012Y65D02*
X1012Y47D01*
X3214Y47D01*
X3214Y49D01*
X3224Y49D01*
X3224Y51D01*
X3232Y51D01*
X3232Y53D01*
X3238Y53D01*
X3238Y55D01*
X3242Y55D01*
X3242Y57D01*
X3246Y57D01*
X3246Y59D01*
X3250Y59D01*
X3250Y61D01*
X3254Y61D01*
X3254Y63D01*
X3258Y63D01*
X3258Y65D01*
X1012Y65D01*
G37*
D02*
G36*
X1938Y1871D02*
X1981Y1871D01*
X1981Y1839D01*
X1938Y1839D01*
X1938Y1871D01*
G37*
D02*
G36*
X2256Y2058D02*
X2288Y2058D01*
X2288Y2013D01*
X2256Y2013D01*
X2256Y2058D01*
G37*
D02*
G36*
X1928Y1281D02*
X1971Y1281D01*
X1971Y1249D01*
X1928Y1249D01*
X1928Y1281D01*
G37*
D02*
G36*
X1898Y1253D02*
X1932Y1253D01*
X1932Y1210D01*
X1898Y1210D01*
X1898Y1253D01*
G37*
D02*
G36*
X2002Y239D02*
X2041Y239D01*
X2041Y207D01*
X2002Y207D01*
X2002Y239D01*
G37*
D02*
G36*
X738Y495D02*
X781Y495D01*
X781Y463D01*
X738Y463D01*
X738Y495D01*
G37*
D02*
G36*
X708Y533D02*
X742Y533D01*
X742Y490D01*
X708Y490D01*
X708Y533D01*
G37*
D02*
G36*
X1548Y485D02*
X1591Y485D01*
X1591Y453D01*
X1548Y453D01*
X1548Y485D01*
G37*
D02*
G36*
X1586Y523D02*
X1618Y523D01*
X1618Y480D01*
X1586Y480D01*
X1586Y523D01*
G37*
D02*
G36*
X1515Y2017D02*
X1560Y2017D01*
X1560Y1985D01*
X1515Y1985D01*
X1515Y2017D01*
G37*
D02*
G36*
X318Y1374D02*
X350Y1374D01*
X350Y1329D01*
X318Y1329D01*
X318Y1374D01*
G37*
D02*
G36*
X979Y459D02*
X1020Y459D01*
X1020Y437D01*
X979Y437D01*
X979Y459D01*
G37*
D02*
G36*
X979Y387D02*
X1020Y387D01*
X1020Y365D01*
X979Y365D01*
X979Y387D01*
G37*
D02*
G54D21*
X1311Y1650D02*
X1249Y1650D01*
X1249Y1712D01*
X1311Y1712D01*
X1311Y1650D01*
D02*
X1097Y619D02*
X1141Y663D01*
X1185Y619D01*
X1141Y575D01*
X1097Y619D01*
D02*
X1141Y1137D02*
X1097Y1181D01*
X1141Y1224D01*
X1185Y1181D01*
X1141Y1137D01*
D02*
X1481Y787D02*
X1437Y831D01*
X1481Y874D01*
X1525Y831D01*
X1481Y787D01*
D02*
X1437Y969D02*
X1481Y1013D01*
X1525Y969D01*
X1481Y925D01*
X1437Y969D01*
D02*
G04 End of Copper0*
M02*