  0
SECTION
  2
HEADER
  9
$ACADVER
  1
AC1014
  9
$HANDSEED
  5
FFFF
  9
$MEASUREMENT
 70
     1
  0
ENDSEC
  0
SECTION
  2
TABLES
  0
TABLE
  2
VPORT
  5
8
330
0
100
AcDbSymbolTable
 70
     4
  0
VPORT
  5
2E
330
8
100
AcDbSymbolTableRecord
100
AcDbViewportTableRecord
  2
*ACTIVE
 70
     0
 10
0.0
 20
0.0
 11
1.0
 21
1.0
 12
210.0
 22
148.5
 13
0.0
 23
0.0
 14
10.0
 24
10.0
 15
10.0
 25
10.0
 16
0.0
 26
0.0
 36
1.0
 17
0.0
 27
0.0
 37
0.0
 40
341.0
 41
1.24
 42
50.0
 43
0.0
 44
0.0
 50
0.0
 51
0.0
 71
     0
 72
   100
 73
     1
 74
     3
 75
     0
 76
     0
 77
     0
 78
     0
  0
ENDTAB
  0
TABLE
  2
LTYPE
  5
5
330
0
100
AcDbSymbolTable
 70
     1
  0
LTYPE
  5
14
330
5
100
AcDbSymbolTableRecord
100
AcDbLinetypeTableRecord
  2
BYBLOCK
 70
     0
  3

 72
    65
 73
     0
 40
0.0
  0
LTYPE
  5
15
330
5
100
AcDbSymbolTableRecord
100
AcDbLinetypeTableRecord
  2
BYLAYER
 70
     0
  3

 72
    65
 73
     0
 40
0.0
  0
LTYPE
  5
16
330
5
100
AcDbSymbolTableRecord
100
AcDbLinetypeTableRecord
  2
CONTINUOUS
 70
     0
  3
Solid line
 72
    65
 73
     0
 40
0.0
  0
ENDTAB
  0
TABLE
  2
LAYER
  5
2
100
AcDbSymbolTable
 70
2
  0
LAYER
  5
50
100
AcDbSymbolTableRecord
100
AcDbLayerTableRecord
  2
0
 70
0
  6
CONTINUOUS
  0
LAYER
  5
51
100
AcDbSymbolTableRecord
100
AcDbLayerTableRecord
  2
Layer_1
 70
0
  6
CONTINUOUS
  0
ENDTAB
  0
TABLE
  2
STYLE
  5
3
330
0
100
AcDbSymbolTable
 70
     1
  0
STYLE
  5
11
330
3
100
AcDbSymbolTableRecord
100
AcDbTextStyleTableRecord
  2
STANDARD
 70
     0
 40
0.0
 41
1.0
 50
0.0
 71
     0
 42
2.5
  3
txt
  4

  0
ENDTAB
  0
TABLE
  2
VIEW
  5
6
330
0
100
AcDbSymbolTable
 70
     0
  0
ENDTAB
  0
TABLE
  2
UCS
  5
7
330
0
100
AcDbSymbolTable
 70
     0
  0
ENDTAB
  0
TABLE
  2
APPID
  5
9
330
0
100
AcDbSymbolTable
 70
     2
  0
APPID
  5
12
330
9
100
AcDbSymbolTableRecord
100
AcDbRegAppTableRecord
  2
ACAD
 70
     0
  0
ENDTAB
  0
TABLE
  2
DIMSTYLE
  5
A
330
0
100
AcDbSymbolTable
 70
     1
  0
DIMSTYLE
105
27
330
A
100
AcDbSymbolTableRecord
100
AcDbDimStyleTableRecord
  2
ISO-25
 70
     0
  3

  4

  5

  6

  7

 40
1.0
 41
2.5
 42
0.625
 43
3.75
 44
1.25
 45
0.0
 46
0.0
 47
0.0
 48
0.0
140
2.5
141
2.5
142
0.0
143
0.03937007874016
144
1.0
145
0.0
146
1.0
147
0.625
 71
     0
 72
     0
 73
     0
 74
     0
 75
     0
 76
     0
 77
     1
 78
     8
170
     0
171
     3
172
     1
173
     0
174
     0
175
     0
176
     0
177
     0
178
     0
270
     2
271
     2
272
     2
273
     2
274
     3
340
11
275
     0
280
     0
281
     0
282
     0
283
     0
284
     8
285
     0
286
     0
287
     3
288
     0
  0
ENDTAB
  0
TABLE
  2
BLOCK_RECORD
  5
1
330
0
100
AcDbSymbolTable
 70
     1
  0
BLOCK_RECORD
  5
1F
330
1
100
AcDbSymbolTableRecord
100
AcDbBlockTableRecord
  2
*MODEL_SPACE
  0
BLOCK_RECORD
  5
1B
330
1
100
AcDbSymbolTableRecord
100
AcDbBlockTableRecord
  2
*PAPER_SPACE
  0
ENDTAB
  0
ENDSEC
  0
SECTION
  2
BLOCKS
  0
BLOCK
  5
20
330
1F
100
AcDbEntity
  8
0
100
AcDbBlockBegin
  2
*MODEL_SPACE
 70
     0
 10
0.0
 20
0.0
 30
0.0
  3
*MODEL_SPACE
  1

  0
ENDBLK
  5
21
330
1F
100
AcDbEntity
  8
0
100
AcDbBlockEnd
  0
BLOCK
  5
1C
330
1B
100
AcDbEntity
 67
     1
  8
0
100
AcDbBlockBegin
  2
*PAPER_SPACE
  1

  0
ENDBLK
  5
1D
330
1B
100
AcDbEntity
 67
     1
  8
0
100
AcDbBlockEnd
  0
ENDSEC
  0
SECTION
  2
ENTITIES
  0
SPLINE
  5
100
100
AcDbEntity
  8
Layer_1
 62
7
100
AcDbSpline
 70
8
 71
3
 72
8
 73
4
 74
0
 40
0
 40
0
 40
0
 40
0
 40
1
 40
1
 40
1
 40
1
 10
39.557890
 20
242.457055
 30
0.0
 10
39.557890
 20
241.942878
 30
0.0
 10
39.832200
 20
241.467760
 30
0.0
 10
40.277490
 20
241.210671
 30
0.0
  0
SPLINE
  5
101
100
AcDbEntity
  8
Layer_1
 62
7
100
AcDbSpline
 70
8
 71
3
 72
8
 73
4
 74
0
 40
0
 40
0
 40
0
 40
0
 40
1
 40
1
 40
1
 40
1
 10
40.277490
 20
241.210671
 30
0.0
 10
40.722780
 20
240.953583
 30
0.0
 10
41.271400
 20
240.953583
 30
0.0
 10
41.716690
 20
241.210671
 30
0.0
  0
SPLINE
  5
102
100
AcDbEntity
  8
Layer_1
 62
7
100
AcDbSpline
 70
8
 71
3
 72
8
 73
4
 74
0
 40
0
 40
0
 40
0
 40
0
 40
1
 40
1
 40
1
 40
1
 10
41.716690
 20
241.210671
 30
0.0
 10
42.161980
 20
241.467760
 30
0.0
 10
42.436290
 20
241.942878
 30
0.0
 10
42.436290
 20
242.457055
 30
0.0
  0
SPLINE
  5
103
100
AcDbEntity
  8
Layer_1
 62
7
100
AcDbSpline
 70
8
 71
3
 72
8
 73
4
 74
0
 40
0
 40
0
 40
0
 40
0
 40
1
 40
1
 40
1
 40
1
 10
42.436290
 20
242.457055
 30
0.0
 10
42.436290
 20
242.971232
 30
0.0
 10
42.161980
 20
243.446350
 30
0.0
 10
41.716690
 20
243.703439
 30
0.0
  0
SPLINE
  5
104
100
AcDbEntity
  8
Layer_1
 62
7
100
AcDbSpline
 70
8
 71
3
 72
8
 73
4
 74
0
 40
0
 40
0
 40
0
 40
0
 40
1
 40
1
 40
1
 40
1
 10
41.716690
 20
243.703439
 30
0.0
 10
41.271400
 20
243.960527
 30
0.0
 10
40.722780
 20
243.960527
 30
0.0
 10
40.277490
 20
243.703439
 30
0.0
  0
SPLINE
  5
105
100
AcDbEntity
  8
Layer_1
 62
7
100
AcDbSpline
 70
8
 71
3
 72
8
 73
4
 74
0
 40
0
 40
0
 40
0
 40
0
 40
1
 40
1
 40
1
 40
1
 10
40.277490
 20
243.703439
 30
0.0
 10
39.832200
 20
243.446350
 30
0.0
 10
39.557890
 20
242.971232
 30
0.0
 10
39.557890
 20
242.457055
 30
0.0
  0
LINE
  5
106
100
AcDbEntity
  8
Layer_1
 62
7
100
AcDbLine
 10
39.557890
 20
242.457055
 30
0.0
 11
39.557890
 21
242.457055
 31
0.0
  0
SPLINE
  5
107
100
AcDbEntity
  8
Layer_1
 62
7
100
AcDbSpline
 70
8
 71
3
 72
8
 73
4
 74
0
 40
0
 40
0
 40
0
 40
0
 40
1
 40
1
 40
1
 40
1
 10
97.799860
 20
242.457055
 30
0.0
 10
97.799860
 20
241.942878
 30
0.0
 10
98.074170
 20
241.467760
 30
0.0
 10
98.519460
 20
241.210671
 30
0.0
  0
SPLINE
  5
108
100
AcDbEntity
  8
Layer_1
 62
7
100
AcDbSpline
 70
8
 71
3
 72
8
 73
4
 74
0
 40
0
 40
0
 40
0
 40
0
 40
1
 40
1
 40
1
 40
1
 10
98.519460
 20
241.210671
 30
0.0
 10
98.964750
 20
240.953583
 30
0.0
 10
99.513370
 20
240.953583
 30
0.0
 10
99.958660
 20
241.210671
 30
0.0
  0
SPLINE
  5
109
100
AcDbEntity
  8
Layer_1
 62
7
100
AcDbSpline
 70
8
 71
3
 72
8
 73
4
 74
0
 40
0
 40
0
 40
0
 40
0
 40
1
 40
1
 40
1
 40
1
 10
99.958660
 20
241.210671
 30
0.0
 10
100.403950
 20
241.467760
 30
0.0
 10
100.678260
 20
241.942878
 30
0.0
 10
100.678260
 20
242.457055
 30
0.0
  0
SPLINE
  5
10a
100
AcDbEntity
  8
Layer_1
 62
7
100
AcDbSpline
 70
8
 71
3
 72
8
 73
4
 74
0
 40
0
 40
0
 40
0
 40
0
 40
1
 40
1
 40
1
 40
1
 10
100.678260
 20
242.457055
 30
0.0
 10
100.678260
 20
242.971232
 30
0.0
 10
100.403950
 20
243.446350
 30
0.0
 10
99.958660
 20
243.703439
 30
0.0
  0
SPLINE
  5
10b
100
AcDbEntity
  8
Layer_1
 62
7
100
AcDbSpline
 70
8
 71
3
 72
8
 73
4
 74
0
 40
0
 40
0
 40
0
 40
0
 40
1
 40
1
 40
1
 40
1
 10
99.958660
 20
243.703439
 30
0.0
 10
99.513370
 20
243.960527
 30
0.0
 10
98.964750
 20
243.960527
 30
0.0
 10
98.519460
 20
243.703439
 30
0.0
  0
SPLINE
  5
10c
100
AcDbEntity
  8
Layer_1
 62
7
100
AcDbSpline
 70
8
 71
3
 72
8
 73
4
 74
0
 40
0
 40
0
 40
0
 40
0
 40
1
 40
1
 40
1
 40
1
 10
98.519460
 20
243.703439
 30
0.0
 10
98.074170
 20
243.446350
 30
0.0
 10
97.799860
 20
242.971232
 30
0.0
 10
97.799860
 20
242.457055
 30
0.0
  0
LINE
  5
10d
100
AcDbEntity
  8
Layer_1
 62
7
100
AcDbLine
 10
97.799860
 20
242.457055
 30
0.0
 11
97.799860
 21
242.457055
 31
0.0
  0
SPLINE
  5
10e
100
AcDbEntity
  8
Layer_1
 62
7
100
AcDbSpline
 70
8
 71
3
 72
8
 73
4
 74
0
 40
0
 40
0
 40
0
 40
0
 40
1
 40
1
 40
1
 40
1
 10
97.799860
 20
193.457039
 30
0.0
 10
97.799860
 20
192.942862
 30
0.0
 10
98.074170
 20
192.467744
 30
0.0
 10
98.519460
 20
192.210655
 30
0.0
  0
SPLINE
  5
10f
100
AcDbEntity
  8
Layer_1
 62
7
100
AcDbSpline
 70
8
 71
3
 72
8
 73
4
 74
0
 40
0
 40
0
 40
0
 40
0
 40
1
 40
1
 40
1
 40
1
 10
98.519460
 20
192.210655
 30
0.0
 10
98.964750
 20
191.953567
 30
0.0
 10
99.513370
 20
191.953567
 30
0.0
 10
99.958660
 20
192.210655
 30
0.0
  0
SPLINE
  5
110
100
AcDbEntity
  8
Layer_1
 62
7
100
AcDbSpline
 70
8
 71
3
 72
8
 73
4
 74
0
 40
0
 40
0
 40
0
 40
0
 40
1
 40
1
 40
1
 40
1
 10
99.958660
 20
192.210655
 30
0.0
 10
100.403950
 20
192.467744
 30
0.0
 10
100.678260
 20
192.942862
 30
0.0
 10
100.678260
 20
193.457039
 30
0.0
  0
SPLINE
  5
111
100
AcDbEntity
  8
Layer_1
 62
7
100
AcDbSpline
 70
8
 71
3
 72
8
 73
4
 74
0
 40
0
 40
0
 40
0
 40
0
 40
1
 40
1
 40
1
 40
1
 10
100.678260
 20
193.457039
 30
0.0
 10
100.678260
 20
193.971216
 30
0.0
 10
100.403950
 20
194.446334
 30
0.0
 10
99.958660
 20
194.703423
 30
0.0
  0
SPLINE
  5
112
100
AcDbEntity
  8
Layer_1
 62
7
100
AcDbSpline
 70
8
 71
3
 72
8
 73
4
 74
0
 40
0
 40
0
 40
0
 40
0
 40
1
 40
1
 40
1
 40
1
 10
99.958660
 20
194.703423
 30
0.0
 10
99.513370
 20
194.960511
 30
0.0
 10
98.964750
 20
194.960511
 30
0.0
 10
98.519460
 20
194.703423
 30
0.0
  0
SPLINE
  5
113
100
AcDbEntity
  8
Layer_1
 62
7
100
AcDbSpline
 70
8
 71
3
 72
8
 73
4
 74
0
 40
0
 40
0
 40
0
 40
0
 40
1
 40
1
 40
1
 40
1
 10
98.519460
 20
194.703423
 30
0.0
 10
98.074170
 20
194.446334
 30
0.0
 10
97.799860
 20
193.971216
 30
0.0
 10
97.799860
 20
193.457039
 30
0.0
  0
LINE
  5
114
100
AcDbEntity
  8
Layer_1
 62
7
100
AcDbLine
 10
97.799860
 20
193.457039
 30
0.0
 11
97.799860
 21
193.457039
 31
0.0
  0
SPLINE
  5
115
100
AcDbEntity
  8
Layer_1
 62
7
100
AcDbSpline
 70
8
 71
3
 72
8
 73
4
 74
0
 40
0
 40
0
 40
0
 40
0
 40
1
 40
1
 40
1
 40
1
 10
39.557890
 20
193.457039
 30
0.0
 10
39.557890
 20
192.942862
 30
0.0
 10
39.832200
 20
192.467744
 30
0.0
 10
40.277490
 20
192.210655
 30
0.0
  0
SPLINE
  5
116
100
AcDbEntity
  8
Layer_1
 62
7
100
AcDbSpline
 70
8
 71
3
 72
8
 73
4
 74
0
 40
0
 40
0
 40
0
 40
0
 40
1
 40
1
 40
1
 40
1
 10
40.277490
 20
192.210655
 30
0.0
 10
40.722780
 20
191.953567
 30
0.0
 10
41.271400
 20
191.953567
 30
0.0
 10
41.716690
 20
192.210655
 30
0.0
  0
SPLINE
  5
117
100
AcDbEntity
  8
Layer_1
 62
7
100
AcDbSpline
 70
8
 71
3
 72
8
 73
4
 74
0
 40
0
 40
0
 40
0
 40
0
 40
1
 40
1
 40
1
 40
1
 10
41.716690
 20
192.210655
 30
0.0
 10
42.161980
 20
192.467744
 30
0.0
 10
42.436290
 20
192.942862
 30
0.0
 10
42.436290
 20
193.457039
 30
0.0
  0
SPLINE
  5
118
100
AcDbEntity
  8
Layer_1
 62
7
100
AcDbSpline
 70
8
 71
3
 72
8
 73
4
 74
0
 40
0
 40
0
 40
0
 40
0
 40
1
 40
1
 40
1
 40
1
 10
42.436290
 20
193.457039
 30
0.0
 10
42.436290
 20
193.971216
 30
0.0
 10
42.161980
 20
194.446334
 30
0.0
 10
41.716690
 20
194.703423
 30
0.0
  0
SPLINE
  5
119
100
AcDbEntity
  8
Layer_1
 62
7
100
AcDbSpline
 70
8
 71
3
 72
8
 73
4
 74
0
 40
0
 40
0
 40
0
 40
0
 40
1
 40
1
 40
1
 40
1
 10
41.716690
 20
194.703423
 30
0.0
 10
41.271400
 20
194.960511
 30
0.0
 10
40.722780
 20
194.960511
 30
0.0
 10
40.277490
 20
194.703423
 30
0.0
  0
SPLINE
  5
11a
100
AcDbEntity
  8
Layer_1
 62
7
100
AcDbSpline
 70
8
 71
3
 72
8
 73
4
 74
0
 40
0
 40
0
 40
0
 40
0
 40
1
 40
1
 40
1
 40
1
 10
40.277490
 20
194.703423
 30
0.0
 10
39.832200
 20
194.446334
 30
0.0
 10
39.557890
 20
193.971216
 30
0.0
 10
39.557890
 20
193.457039
 30
0.0
  0
LINE
  5
11b
100
AcDbEntity
  8
Layer_1
 62
7
100
AcDbLine
 10
39.557890
 20
193.457039
 30
0.0
 11
39.557890
 21
193.457039
 31
0.0
  0
LINE
  5
11c
100
AcDbEntity
  8
Layer_1
 62
7
100
AcDbLine
 10
101.906060
 20
238.584055
 30
0.0
 11
94.286060
 21
238.584055
 31
0.0
  0
LINE
  5
11d
100
AcDbEntity
  8
Layer_1
 62
7
100
AcDbLine
 10
101.906060
 20
228.170055
 30
0.0
 11
101.906060
 21
238.584055
 31
0.0
  0
LINE
  5
11e
100
AcDbEntity
  8
Layer_1
 62
7
100
AcDbLine
 10
94.286060
 20
228.170055
 30
0.0
 11
101.906060
 21
228.170055
 31
0.0
  0
LINE
  5
11f
100
AcDbEntity
  8
Layer_1
 62
7
100
AcDbLine
 10
94.286060
 20
238.584055
 30
0.0
 11
94.286060
 21
228.170055
 31
0.0
  0
LINE
  5
120
100
AcDbEntity
  8
Layer_1
 62
7
100
AcDbLine
 10
49.455060
 20
230.202055
 30
0.0
 11
41.073060
 21
230.202055
 31
0.0
  0
LINE
  5
121
100
AcDbEntity
  8
Layer_1
 62
7
100
AcDbLine
 10
49.455060
 20
207.342055
 30
0.0
 11
49.455060
 21
230.202055
 31
0.0
  0
LINE
  5
122
100
AcDbEntity
  8
Layer_1
 62
7
100
AcDbLine
 10
41.073060
 20
207.342055
 30
0.0
 11
49.455060
 21
207.342055
 31
0.0
  0
LINE
  5
123
100
AcDbEntity
  8
Layer_1
 62
7
100
AcDbLine
 10
41.073060
 20
230.202055
 30
0.0
 11
41.073060
 21
207.342055
 31
0.0
  0
LINE
  5
124
100
AcDbEntity
  8
Layer_1
 62
7
100
AcDbLine
 10
84.507060
 20
240.870055
 30
0.0
 11
84.507060
 21
227.408055
 31
0.0
  0
LINE
  5
125
100
AcDbEntity
  8
Layer_1
 62
7
100
AcDbLine
 10
92.889060
 20
240.870055
 30
0.0
 11
84.507060
 21
240.870055
 31
0.0
  0
LINE
  5
126
100
AcDbEntity
  8
Layer_1
 62
7
100
AcDbLine
 10
92.889060
 20
227.408055
 30
0.0
 11
92.889060
 21
240.870055
 31
0.0
  0
LINE
  5
127
100
AcDbEntity
  8
Layer_1
 62
7
100
AcDbLine
 10
84.507060
 20
227.408055
 30
0.0
 11
92.889060
 21
227.408055
 31
0.0
  0
LINE
  5
128
100
AcDbEntity
  8
Layer_1
 62
7
100
AcDbLine
 10
86.285060
 20
225.376055
 30
0.0
 11
60.631060
 21
225.376055
 31
0.0
  0
LINE
  5
129
100
AcDbEntity
  8
Layer_1
 62
7
100
AcDbLine
 10
86.285060
 20
198.451817
 30
0.0
 11
86.285060
 21
225.376055
 31
0.0
  0
LINE
  5
12a
100
AcDbEntity
  8
Layer_1
 62
7
100
AcDbLine
 10
60.631060
 20
198.451817
 30
0.0
 11
86.285060
 21
198.451817
 31
0.0
  0
LINE
  5
12b
100
AcDbEntity
  8
Layer_1
 62
7
100
AcDbLine
 10
60.631060
 20
225.376055
 30
0.0
 11
60.631060
 21
198.451817
 31
0.0
  0
LINE
  5
12c
100
AcDbEntity
  8
Layer_1
 62
7
100
AcDbLine
 10
50.471060
 20
203.404817
 30
0.0
 11
47.296060
 21
203.404817
 31
0.0
  0
LINE
  5
12d
100
AcDbEntity
  8
Layer_1
 62
7
100
AcDbLine
 10
50.471060
 20
200.229817
 30
0.0
 11
50.471060
 21
203.404817
 31
0.0
  0
LINE
  5
12e
100
AcDbEntity
  8
Layer_1
 62
7
100
AcDbLine
 10
47.296060
 20
200.229817
 30
0.0
 11
50.471060
 21
200.229817
 31
0.0
  0
LINE
  5
12f
100
AcDbEntity
  8
Layer_1
 62
7
100
AcDbLine
 10
47.296060
 20
203.404817
 30
0.0
 11
47.296060
 21
200.229817
 31
0.0
  0
LINE
  5
130
100
AcDbEntity
  8
Layer_1
 62
7
100
AcDbLine
 10
45.391060
 20
235.282055
 30
0.0
 11
79.935060
 21
235.282055
 31
0.0
  0
LINE
  5
131
100
AcDbEntity
  8
Layer_1
 62
7
100
AcDbLine
 10
45.391060
 20
243.664055
 30
0.0
 11
45.391060
 21
235.282055
 31
0.0
  0
LINE
  5
132
100
AcDbEntity
  8
Layer_1
 62
7
100
AcDbLine
 10
79.935060
 20
243.664055
 30
0.0
 11
45.391060
 21
243.664055
 31
0.0
  0
LINE
  5
133
100
AcDbEntity
  8
Layer_1
 62
7
100
AcDbLine
 10
79.935060
 20
235.282055
 30
0.0
 11
79.935060
 21
243.664055
 31
0.0
  0
LINE
  5
134
100
AcDbEntity
  8
Layer_1
 62
7
100
AcDbLine
 10
100.128060
 20
210.135815
 30
0.0
 11
92.000060
 21
210.135815
 31
0.0
  0
LINE
  5
135
100
AcDbEntity
  8
Layer_1
 62
7
100
AcDbLine
 10
100.128060
 20
199.467817
 30
0.0
 11
100.128060
 21
210.135815
 31
0.0
  0
LINE
  5
136
100
AcDbEntity
  8
Layer_1
 62
7
100
AcDbLine
 10
92.000060
 20
199.467817
 30
0.0
 11
100.128060
 21
199.467817
 31
0.0
  0
LINE
  5
137
100
AcDbEntity
  8
Layer_1
 62
7
100
AcDbLine
 10
92.000060
 20
210.135815
 30
0.0
 11
92.000060
 21
199.467817
 31
0.0
  0
SPLINE
  5
138
100
AcDbEntity
  8
Layer_1
 62
7
100
AcDbSpline
 70
8
 71
3
 72
8
 73
4
 74
0
 40
0
 40
0
 40
0
 40
0
 40
1
 40
1
 40
1
 40
1
 10
150.160991
 20
173.460546
 30
0.0
 10
151.003053
 20
173.460546
 30
0.0
 10
151.810627
 20
173.795054
 30
0.0
 10
152.406055
 20
174.390482
 30
0.0
  0
SPLINE
  5
139
100
AcDbEntity
  8
Layer_1
 62
7
100
AcDbSpline
 70
8
 71
3
 72
8
 73
4
 74
0
 40
0
 40
0
 40
0
 40
0
 40
1
 40
1
 40
1
 40
1
 10
152.406055
 20
174.390482
 30
0.0
 10
153.001483
 20
174.985910
 30
0.0
 10
153.335991
 20
175.793484
 30
0.0
 10
153.335991
 20
176.635546
 30
0.0
  0
LINE
  5
13a
100
AcDbEntity
  8
Layer_1
 62
7
100
AcDbLine
 10
153.335991
 20
176.635546
 30
0.0
 11
153.335991
 21
281.537553
 31
0.0
  0
SPLINE
  5
13b
100
AcDbEntity
  8
Layer_1
 62
7
100
AcDbSpline
 70
8
 71
3
 72
8
 73
4
 74
0
 40
0
 40
0
 40
0
 40
0
 40
1
 40
1
 40
1
 40
1
 10
153.335991
 20
281.537553
 30
0.0
 10
153.335990
 20
283.291057
 30
0.0
 10
151.914495
 20
284.712552
 30
0.0
 10
150.160991
 20
284.712552
 30
0.0
  0
LINE
  5
13c
100
AcDbEntity
  8
Layer_1
 62
7
100
AcDbLine
 10
150.160991
 20
284.712552
 30
0.0
 11
13.000990
 21
284.712552
 31
0.0
  0
SPLINE
  5
13d
100
AcDbEntity
  8
Layer_1
 62
7
100
AcDbSpline
 70
8
 71
3
 72
8
 73
4
 74
0
 40
0
 40
0
 40
0
 40
0
 40
1
 40
1
 40
1
 40
1
 10
13.000990
 20
284.712552
 30
0.0
 10
11.247486
 20
284.712552
 30
0.0
 10
9.825991
 20
283.291057
 30
0.0
 10
9.825990
 20
281.537553
 30
0.0
  0
LINE
  5
13e
100
AcDbEntity
  8
Layer_1
 62
7
100
AcDbLine
 10
9.825990
 20
281.537553
 30
0.0
 11
9.825990
 21
176.635546
 31
0.0
  0
SPLINE
  5
13f
100
AcDbEntity
  8
Layer_1
 62
7
100
AcDbSpline
 70
8
 71
3
 72
8
 73
4
 74
0
 40
0
 40
0
 40
0
 40
0
 40
1
 40
1
 40
1
 40
1
 10
9.825990
 20
176.635546
 30
0.0
 10
9.825990
 20
175.793484
 30
0.0
 10
10.160498
 20
174.985910
 30
0.0
 10
10.755926
 20
174.390482
 30
0.0
  0
SPLINE
  5
140
100
AcDbEntity
  8
Layer_1
 62
7
100
AcDbSpline
 70
8
 71
3
 72
8
 73
4
 74
0
 40
0
 40
0
 40
0
 40
0
 40
1
 40
1
 40
1
 40
1
 10
10.755926
 20
174.390482
 30
0.0
 10
11.351354
 20
173.795054
 30
0.0
 10
12.158928
 20
173.460546
 30
0.0
 10
13.000990
 20
173.460546
 30
0.0
  0
LINE
  5
141
100
AcDbEntity
  8
Layer_1
 62
7
100
AcDbLine
 10
13.000990
 20
173.460546
 30
0.0
 11
150.160991
 21
173.460546
 31
0.0
  0
LINE
  5
142
100
AcDbEntity
  8
Layer_1
 62
7
100
AcDbLine
 10
141.149290
 20
266.397055
 30
0.0
 11
113.844290
 21
266.397055
 31
0.0
  0
LINE
  5
143
100
AcDbEntity
  8
Layer_1
 62
7
100
AcDbLine
 10
141.149290
 20
194.007055
 30
0.0
 11
141.149290
 21
266.397055
 31
0.0
  0
LINE
  5
144
100
AcDbEntity
  8
Layer_1
 62
7
100
AcDbLine
 10
113.844290
 20
266.397055
 30
0.0
 11
113.844290
 21
194.007055
 31
0.0
  0
LINE
  5
145
100
AcDbEntity
  8
Layer_1
 62
7
100
AcDbLine
 10
113.844290
 20
194.007055
 30
0.0
 11
141.149290
 21
194.007055
 31
0.0
  0
SPLINE
  5
146
100
AcDbEntity
  8
Layer_1
 62
7
100
AcDbSpline
 70
8
 71
3
 72
8
 73
4
 74
0
 40
0
 40
0
 40
0
 40
0
 40
1
 40
1
 40
1
 40
1
 10
113.748800
 20
267.667054
 30
0.0
 10
113.748800
 20
267.134014
 30
0.0
 10
113.464426
 20
266.641465
 30
0.0
 10
113.002800
 20
266.374945
 30
0.0
  0
SPLINE
  5
147
100
AcDbEntity
  8
Layer_1
 62
7
100
AcDbSpline
 70
8
 71
3
 72
8
 73
4
 74
0
 40
0
 40
0
 40
0
 40
0
 40
1
 40
1
 40
1
 40
1
 10
113.002800
 20
266.374945
 30
0.0
 10
112.541174
 20
266.108424
 30
0.0
 10
111.972426
 20
266.108424
 30
0.0
 10
111.510800
 20
266.374945
 30
0.0
  0
SPLINE
  5
148
100
AcDbEntity
  8
Layer_1
 62
7
100
AcDbSpline
 70
8
 71
3
 72
8
 73
4
 74
0
 40
0
 40
0
 40
0
 40
0
 40
1
 40
1
 40
1
 40
1
 10
111.510800
 20
266.374945
 30
0.0
 10
111.049174
 20
266.641465
 30
0.0
 10
110.764800
 20
267.134014
 30
0.0
 10
110.764800
 20
267.667054
 30
0.0
  0
SPLINE
  5
149
100
AcDbEntity
  8
Layer_1
 62
7
100
AcDbSpline
 70
8
 71
3
 72
8
 73
4
 74
0
 40
0
 40
0
 40
0
 40
0
 40
1
 40
1
 40
1
 40
1
 10
110.764800
 20
267.667054
 30
0.0
 10
110.764800
 20
268.200095
 30
0.0
 10
111.049174
 20
268.692644
 30
0.0
 10
111.510800
 20
268.959164
 30
0.0
  0
SPLINE
  5
14a
100
AcDbEntity
  8
Layer_1
 62
7
100
AcDbSpline
 70
8
 71
3
 72
8
 73
4
 74
0
 40
0
 40
0
 40
0
 40
0
 40
1
 40
1
 40
1
 40
1
 10
111.510800
 20
268.959164
 30
0.0
 10
111.972426
 20
269.225684
 30
0.0
 10
112.541174
 20
269.225684
 30
0.0
 10
113.002800
 20
268.959164
 30
0.0
  0
SPLINE
  5
14b
100
AcDbEntity
  8
Layer_1
 62
7
100
AcDbSpline
 70
8
 71
3
 72
8
 73
4
 74
0
 40
0
 40
0
 40
0
 40
0
 40
1
 40
1
 40
1
 40
1
 10
113.002800
 20
268.959164
 30
0.0
 10
113.464426
 20
268.692644
 30
0.0
 10
113.748800
 20
268.200095
 30
0.0
 10
113.748800
 20
267.667054
 30
0.0
  0
LINE
  5
14c
100
AcDbEntity
  8
Layer_1
 62
7
100
AcDbLine
 10
113.748800
 20
267.667054
 30
0.0
 11
113.748800
 21
267.667054
 31
0.0
  0
SPLINE
  5
14d
100
AcDbEntity
  8
Layer_1
 62
7
100
AcDbSpline
 70
8
 71
3
 72
8
 73
4
 74
0
 40
0
 40
0
 40
0
 40
0
 40
1
 40
1
 40
1
 40
1
 10
144.228790
 20
267.667054
 30
0.0
 10
144.228790
 20
267.134014
 30
0.0
 10
143.944416
 20
266.641465
 30
0.0
 10
143.482790
 20
266.374945
 30
0.0
  0
SPLINE
  5
14e
100
AcDbEntity
  8
Layer_1
 62
7
100
AcDbSpline
 70
8
 71
3
 72
8
 73
4
 74
0
 40
0
 40
0
 40
0
 40
0
 40
1
 40
1
 40
1
 40
1
 10
143.482790
 20
266.374945
 30
0.0
 10
143.021164
 20
266.108424
 30
0.0
 10
142.452416
 20
266.108424
 30
0.0
 10
141.990790
 20
266.374945
 30
0.0
  0
SPLINE
  5
14f
100
AcDbEntity
  8
Layer_1
 62
7
100
AcDbSpline
 70
8
 71
3
 72
8
 73
4
 74
0
 40
0
 40
0
 40
0
 40
0
 40
1
 40
1
 40
1
 40
1
 10
141.990790
 20
266.374945
 30
0.0
 10
141.529164
 20
266.641465
 30
0.0
 10
141.244790
 20
267.134014
 30
0.0
 10
141.244790
 20
267.667054
 30
0.0
  0
SPLINE
  5
150
100
AcDbEntity
  8
Layer_1
 62
7
100
AcDbSpline
 70
8
 71
3
 72
8
 73
4
 74
0
 40
0
 40
0
 40
0
 40
0
 40
1
 40
1
 40
1
 40
1
 10
141.244790
 20
267.667054
 30
0.0
 10
141.244790
 20
268.200095
 30
0.0
 10
141.529164
 20
268.692644
 30
0.0
 10
141.990790
 20
268.959164
 30
0.0
  0
SPLINE
  5
151
100
AcDbEntity
  8
Layer_1
 62
7
100
AcDbSpline
 70
8
 71
3
 72
8
 73
4
 74
0
 40
0
 40
0
 40
0
 40
0
 40
1
 40
1
 40
1
 40
1
 10
141.990790
 20
268.959164
 30
0.0
 10
142.452416
 20
269.225684
 30
0.0
 10
143.021164
 20
269.225684
 30
0.0
 10
143.482790
 20
268.959164
 30
0.0
  0
SPLINE
  5
152
100
AcDbEntity
  8
Layer_1
 62
7
100
AcDbSpline
 70
8
 71
3
 72
8
 73
4
 74
0
 40
0
 40
0
 40
0
 40
0
 40
1
 40
1
 40
1
 40
1
 10
143.482790
 20
268.959164
 30
0.0
 10
143.944416
 20
268.692644
 30
0.0
 10
144.228790
 20
268.200095
 30
0.0
 10
144.228790
 20
267.667054
 30
0.0
  0
LINE
  5
153
100
AcDbEntity
  8
Layer_1
 62
7
100
AcDbLine
 10
144.228790
 20
267.667054
 30
0.0
 11
144.228790
 21
267.667054
 31
0.0
  0
SPLINE
  5
154
100
AcDbEntity
  8
Layer_1
 62
7
100
AcDbSpline
 70
8
 71
3
 72
8
 73
4
 74
0
 40
0
 40
0
 40
0
 40
0
 40
1
 40
1
 40
1
 40
1
 10
144.228790
 20
192.737051
 30
0.0
 10
144.228790
 20
192.204011
 30
0.0
 10
143.944416
 20
191.711461
 30
0.0
 10
143.482790
 20
191.444941
 30
0.0
  0
SPLINE
  5
155
100
AcDbEntity
  8
Layer_1
 62
7
100
AcDbSpline
 70
8
 71
3
 72
8
 73
4
 74
0
 40
0
 40
0
 40
0
 40
0
 40
1
 40
1
 40
1
 40
1
 10
143.482790
 20
191.444941
 30
0.0
 10
143.021164
 20
191.178421
 30
0.0
 10
142.452416
 20
191.178421
 30
0.0
 10
141.990790
 20
191.444941
 30
0.0
  0
SPLINE
  5
156
100
AcDbEntity
  8
Layer_1
 62
7
100
AcDbSpline
 70
8
 71
3
 72
8
 73
4
 74
0
 40
0
 40
0
 40
0
 40
0
 40
1
 40
1
 40
1
 40
1
 10
141.990790
 20
191.444941
 30
0.0
 10
141.529164
 20
191.711461
 30
0.0
 10
141.244790
 20
192.204011
 30
0.0
 10
141.244790
 20
192.737051
 30
0.0
  0
SPLINE
  5
157
100
AcDbEntity
  8
Layer_1
 62
7
100
AcDbSpline
 70
8
 71
3
 72
8
 73
4
 74
0
 40
0
 40
0
 40
0
 40
0
 40
1
 40
1
 40
1
 40
1
 10
141.244790
 20
192.737051
 30
0.0
 10
141.244790
 20
193.270091
 30
0.0
 10
141.529164
 20
193.762641
 30
0.0
 10
141.990790
 20
194.029161
 30
0.0
  0
SPLINE
  5
158
100
AcDbEntity
  8
Layer_1
 62
7
100
AcDbSpline
 70
8
 71
3
 72
8
 73
4
 74
0
 40
0
 40
0
 40
0
 40
0
 40
1
 40
1
 40
1
 40
1
 10
141.990790
 20
194.029161
 30
0.0
 10
142.452416
 20
194.295681
 30
0.0
 10
143.021164
 20
194.295681
 30
0.0
 10
143.482790
 20
194.029161
 30
0.0
  0
SPLINE
  5
159
100
AcDbEntity
  8
Layer_1
 62
7
100
AcDbSpline
 70
8
 71
3
 72
8
 73
4
 74
0
 40
0
 40
0
 40
0
 40
0
 40
1
 40
1
 40
1
 40
1
 10
143.482790
 20
194.029161
 30
0.0
 10
143.944416
 20
193.762641
 30
0.0
 10
144.228790
 20
193.270091
 30
0.0
 10
144.228790
 20
192.737051
 30
0.0
  0
LINE
  5
15a
100
AcDbEntity
  8
Layer_1
 62
7
100
AcDbLine
 10
144.228790
 20
192.737051
 30
0.0
 11
144.228790
 21
192.737051
 31
0.0
  0
SPLINE
  5
15b
100
AcDbEntity
  8
Layer_1
 62
7
100
AcDbSpline
 70
8
 71
3
 72
8
 73
4
 74
0
 40
0
 40
0
 40
0
 40
0
 40
1
 40
1
 40
1
 40
1
 10
113.748800
 20
192.737051
 30
0.0
 10
113.748800
 20
192.204011
 30
0.0
 10
113.464426
 20
191.711461
 30
0.0
 10
113.002800
 20
191.444941
 30
0.0
  0
SPLINE
  5
15c
100
AcDbEntity
  8
Layer_1
 62
7
100
AcDbSpline
 70
8
 71
3
 72
8
 73
4
 74
0
 40
0
 40
0
 40
0
 40
0
 40
1
 40
1
 40
1
 40
1
 10
113.002800
 20
191.444941
 30
0.0
 10
112.541174
 20
191.178421
 30
0.0
 10
111.972426
 20
191.178421
 30
0.0
 10
111.510800
 20
191.444941
 30
0.0
  0
SPLINE
  5
15d
100
AcDbEntity
  8
Layer_1
 62
7
100
AcDbSpline
 70
8
 71
3
 72
8
 73
4
 74
0
 40
0
 40
0
 40
0
 40
0
 40
1
 40
1
 40
1
 40
1
 10
111.510800
 20
191.444941
 30
0.0
 10
111.049174
 20
191.711461
 30
0.0
 10
110.764800
 20
192.204011
 30
0.0
 10
110.764800
 20
192.737051
 30
0.0
  0
SPLINE
  5
15e
100
AcDbEntity
  8
Layer_1
 62
7
100
AcDbSpline
 70
8
 71
3
 72
8
 73
4
 74
0
 40
0
 40
0
 40
0
 40
0
 40
1
 40
1
 40
1
 40
1
 10
110.764800
 20
192.737051
 30
0.0
 10
110.764800
 20
193.270091
 30
0.0
 10
111.049174
 20
193.762641
 30
0.0
 10
111.510800
 20
194.029161
 30
0.0
  0
SPLINE
  5
15f
100
AcDbEntity
  8
Layer_1
 62
7
100
AcDbSpline
 70
8
 71
3
 72
8
 73
4
 74
0
 40
0
 40
0
 40
0
 40
0
 40
1
 40
1
 40
1
 40
1
 10
111.510800
 20
194.029161
 30
0.0
 10
111.972426
 20
194.295681
 30
0.0
 10
112.541174
 20
194.295681
 30
0.0
 10
113.002800
 20
194.029161
 30
0.0
  0
SPLINE
  5
160
100
AcDbEntity
  8
Layer_1
 62
7
100
AcDbSpline
 70
8
 71
3
 72
8
 73
4
 74
0
 40
0
 40
0
 40
0
 40
0
 40
1
 40
1
 40
1
 40
1
 10
113.002800
 20
194.029161
 30
0.0
 10
113.464426
 20
193.762641
 30
0.0
 10
113.748800
 20
193.270091
 30
0.0
 10
113.748800
 20
192.737051
 30
0.0
  0
LINE
  5
161
100
AcDbEntity
  8
Layer_1
 62
7
100
AcDbLine
 10
113.748800
 20
192.737051
 30
0.0
 11
113.748800
 21
192.737051
 31
0.0
  0
ENDSEC
  0
SECTION
  2
OBJECTS
  0
DICTIONARY
  5
C
330
0
100
AcDbDictionary
  3
ACAD_GROUP
350
D
  3
ACAD_MLINESTYLE
350
17
  0
DICTIONARY
  5
D
330
C
100
AcDbDictionary
  0
DICTIONARY
  5
1A
330
C
100
AcDbDictionary
  0
DICTIONARY
  5
17
330
C
100
AcDbDictionary
  3
STANDARD
350
18
  0
DICTIONARY
  5
19
330
C
100
AcDbDictionary
  0
ENDSEC
  0
EOF
