0
SECTION
2
HEADER
9
$INSUNITS
70
4
9
$ACADVER
1
AC1014
9
$HANDSEED
5
FFFF
0
ENDSEC
0
SECTION
2
TABLES
0
TABLE
2
VPORT
5
8
100
AcDbSymbolTable
0
ENDTAB
0
TABLE
2
LTYPE
5
5
100
AcDbSymbolTable
0
LTYPE
5
14
100
AcDbSymbolTableRecord
100
AcDbLinetypeTableRecord
2
BYBLOCK
70
0
0
LTYPE
5
15
100
AcDbSymbolTableRecord
100
AcDbLinetypeTableRecord
2
BYLAYER
70
0
0
ENDTAB
0
TABLE
2
LAYER
5
2
100
AcDbSymbolTable
70
2
0
LAYER
5
50
100
AcDbSymbolTableRecord
100
AcDbLayerTableRecord
2
0
70
0
6
CONTINUOUS
0
ENDTAB
0
TABLE
2
STYLE
5
3
100
AcDbSymbolTable
70
1
0
STYLE
5
11
100
AcDbSymbolTableRecord
100
AcDbTextStyleTableRecord
2
STANDARD
70
0
0
ENDTAB
0
TABLE
2
VIEW
5
6
100
AcDbSymbolTable
70
0
0
ENDTAB
0
TABLE
2
UCS
5
7
100
AcDbSymbolTable
70
0
0
ENDTAB
0
TABLE
2
APPID
5
9
100
AcDbSymbolTable
70
2
0
APPID
5
12
100
AcDbSymbolTableRecord
100
AcDbRegAppTableRecord
2
ACAD
70
0
0
ENDTAB
0
TABLE
2
DIMSTYLE
5
A
100
AcDbSymbolTable
70
1
0
ENDTAB
0
TABLE
2
BLOCK_RECORD
5
1
100
AcDbSymbolTable
70
1
0
BLOCK_RECORD
5
1F
100
AcDbSymbolTableRecord
100
AcDbBlockTableRecord
2
*MODEL_SPACE
0
BLOCK_RECORD
5
1B
100
AcDbSymbolTableRecord
100
AcDbBlockTableRecord
2
*PAPER_SPACE
0
ENDTAB
0
ENDSEC
0
SECTION
2
BLOCKS
0
BLOCK
5
20
100
AcDbEntity
100
AcDbBlockBegin
2
*MODEL_SPACE
0
ENDBLK
5
21
100
AcDbEntity
100
AcDbBlockEnd
0
BLOCK
5
1C
100
AcDbEntity
100
AcDbBlockBegin
2
*PAPER_SPACE
0
ENDBLK
5
1D
100
AcDbEntity
100
AcDbBlockEnd
0
ENDSEC
0
SECTION
2
ENTITIES
0
CIRCLE
5
100
100
AcDbEntity
8
0
100
AcDbCircle
10
-110.13759171944507
20
-106.604682590773
30
0
40
1.5499999999999934
210
0
220
0
230
1
0
LWPOLYLINE
5
101
100
AcDbEntity
8
0
100
AcDbPolyline
90
4
70
1
43
0.0
10
-51.637591719445048
20
-100.70468258995305
10
-51.637591719445048
20
-89.704682589953023
10
-60.137591719445041
20
-89.704682589953052
10
-60.137591719445041
20
-100.70468258995305
0
LWPOLYLINE
5
102
100
AcDbEntity
8
0
100
AcDbPolyline
90
4
70
1
43
0.0
10
-91.587591719445072
20
-101.65468258995305
10
-65.687591719445066
20
-101.65468258995303
10
-65.687591719445081
20
-74.554682589953018
10
-91.587591719445086
20
-74.554682589953046
0
CIRCLE
5
103
100
AcDbEntity
8
0
100
AcDbCircle
10
-52.137591719445062
20
-106.604682590773
30
0
40
1.5500000000000025
210
0
220
0
230
1
0
CIRCLE
5
104
100
AcDbEntity
8
0
100
AcDbCircle
10
-103.63759171944506
20
-98.104682589953015
30
0
40
1.5000000000000036
210
0
220
0
230
1
0
LWPOLYLINE
5
105
100
AcDbEntity
8
0
100
AcDbPolyline
90
4
70
1
43
0.0
10
-44.987591719445049
20
-116.40468258995304
10
-117.28759171944505
20
-116.40468258995304
10
-117.28759171944505
20
-143.80468258995305
10
-44.987591719445049
20
-143.80468258995305
0
CIRCLE
5
106
100
AcDbEntity
8
0
100
AcDbCircle
10
-43.637591719445027
20
-114.60468258995304
30
0
40
1.1000000000000032
210
0
220
0
230
1
0
CIRCLE
5
107
100
AcDbEntity
8
0
100
AcDbCircle
10
-118.63759171944506
20
-145.60468258995306
30
0
40
1.0999999999999943
210
0
220
0
230
1
0
CIRCLE
5
108
100
AcDbEntity
8
0
100
AcDbCircle
10
-43.637591719445027
20
-145.60468258995306
30
0
40
1.1000000000000032
210
0
220
0
230
1
0
CIRCLE
5
109
100
AcDbEntity
8
0
100
AcDbCircle
10
-118.63759171944506
20
-114.60468258995304
30
0
40
1.0999999999999943
210
0
220
0
230
1
0
CIRCLE
5
110
100
AcDbEntity
8
0
100
AcDbCircle
10
-15.125390827677441
20
-147.9275766980771
30
0
40
1.5499999999999934
210
0
220
-0
230
1
0
CIRCLE
5
111
100
AcDbEntity
8
0
100
AcDbCircle
10
-147.12539082257746
20
-56.927576700727101
30
0
40
1.5500000000000025
210
0
220
-0
230
1
0
CIRCLE
5
112
100
AcDbEntity
8
0
100
AcDbCircle
10
-147.12539082257746
20
-147.92757669807719
30
0
40
1.5499999999999934
210
0
220
-0
230
1
0
CIRCLE
5
113
100
AcDbEntity
8
0
100
AcDbCircle
10
-15.125390827677476
20
-56.927576700727073
30
0
40
1.5500000000000025
210
0
220
-0
230
1
0
LINE
5
114
100
AcDbEntity
8
0
100
AcDbLine
10
-9.9482849357383429
20
-56.927576700252217
30
0
11
-9.9482849328416378
21
-48.001395992512158
31
0
0
SPLINE
5
115
100
AcDbEntity
8
0
100
AcDbSpline
70
0
71
3
72
20
73
16
74
0
42
0.000000001
43
0.0000000001
44
0.0000000001
40
0.017841075674044356
40
0.017841075674044356
40
0.017841075674044356
40
0.017841075674044356
40
0.21469783291471151
40
0.21469783291471151
40
0.21469783291471151
40
0.42939607082372178
40
0.42939607082372178
40
0.42939607082372178
40
0.64408529733193676
40
0.64408529733193676
40
0.64408529733193676
40
0.8587707102974822
40
0.8587707102974822
40
0.8587707102974822
40
0.98797863115701212
40
0.98797863115701212
40
0.98797863115701212
40
0.98797863115701212
10
-9.948284932841629
20
-48.001395992512158
30
0
10
-9.9741743321111809
20
-47.741949933336997
30
0
10
-10.003203347924972
20
-47.574821796353802
30
0
10
-10.026684800787278
20
-47.50206602032145
30
0
10
-10.052294419800303
20
-47.422716257931853
30
0
10
-10.11194808207466
20
-47.308525306926455
30
0
10
-10.200237184222969
20
-47.199588554386636
30
0
10
-10.288522580665527
20
-47.090656374184064
30
0
10
-10.392126356242235
20
-46.998582886322652
30
0
10
-10.508365715718417
20
-46.92502788805443
30
0
10
-10.624603010425195
20
-46.851474196349812
30
0
10
-10.745806586210866
20
-46.804176327223232
30
0
10
-10.8372143524437
20
-46.785543882114752
30
0
10
-10.892227905820304
20
-46.774329987981261
30
0
10
-11.004860199518154
20
-46.761815957558198
30
0
10
-11.174808329343788
20
-46.75047080646037
30
0
0
LINE
5
116
100
AcDbEntity
8
0
100
AcDbLine
10
-11.17480832934379
20
-46.75047080646037
30
0
11
-151.05157153005732
21
-46.750470806460442
31
0
0
SPLINE
5
117
100
AcDbEntity
8
0
100
AcDbSpline
70
0
71
3
72
20
73
16
74
0
42
0.000000001
43
0.0000000001
44
0.0000000001
40
0.017841075610955662
40
0.017841075610955662
40
0.017841075610955662
40
0.017841075610955662
40
0.2146978329136538
40
0.2146978329136538
40
0.2146978329136538
40
0.42939607081320108
40
0.42939607081320108
40
0.42939607081320108
40
0.64408529731610498
40
0.64408529731610498
40
0.64408529731610498
40
0.85877071028117091
40
0.85877071028117091
40
0.85877071028117091
40
0.98797863113268558
40
0.98797863113268558
40
0.98797863113268558
40
0.98797863113268558
10
-151.05157153005732
20
-46.750470806460442
30
0
10
-151.31101758936853
20
-46.776360205737021
30
0
10
-151.47814572641818
20
-46.805389221555544
30
0
10
-151.55090150243947
20
-46.828870674415541
30
0
10
-151.6302512647886
20
-46.85448029341687
30
0
10
-151.74444221579418
20
-46.914133955688598
30
0
10
-151.85337896836811
20
-47.00242305786135
30
0
10
-151.96231114860697
20
-47.090708454330098
30
0
10
-152.05438463647906
20
-47.194312229910068
30
0
10
-152.12793963475147
20
-47.310551589374384
30
0
10
-152.20149332646199
20
-47.426788884071897
30
0
10
-152.24879119557681
20
-47.547992459826872
30
0
10
-152.2674236406682
20
-47.639400225976715
30
0
10
-152.27863753479068
20
-47.694413779300021
30
0
10
-152.29115156520794
20
-47.807046072953753
30
0
10
-152.30249671629221
20
-47.976994202743896
30
0
0
LINE
5
118
100
AcDbEntity
8
0
100
AcDbLine
10
-152.30249671629221
20
-47.976994202743896
30
0
11
-152.30249671531215
21
-56.927576700727101
31
0
0
ARC
5
119
100
AcDbEntity
8
0
100
AcDbCircle
10
-160.6253908227774
20
-56.927576700727094
30
0
40
8.3228941074652685
210
0
220
0
230
1
100
AcDbArc
50
270.00000000007043
51
360
0
ARC
5
120
100
AcDbEntity
8
0
100
AcDbCircle
10
-160.6253908227774
20
-66.42757669992713
30
0
40
1.1771058917347688
210
-0
220
0
230
1
100
AcDbArc
50
89.999999999501966
51
180
0
LINE
5
121
100
AcDbEntity
8
0
100
AcDbLine
10
-161.80249671451219
20
-66.427576699925353
30
0
11
-161.80249671442749
21
-138.42757669887715
31
0
0
ARC
5
122
100
AcDbEntity
8
0
100
AcDbCircle
10
-160.6253908227774
20
-138.42757669887715
30
0
40
1.1771058916500721
210
0
220
0
230
1
100
AcDbArc
50
180
51
270.00000000138624
0
ARC
5
123
100
AcDbEntity
8
0
100
AcDbCircle
10
-160.6253908227774
20
-147.92757669807719
30
0
40
8.3228941082538199
210
0
220
0
230
1
100
AcDbArc
50
0
51
89.999999999803961
0
LINE
5
124
100
AcDbEntity
8
0
100
AcDbLine
10
-152.30249671452358
20
-147.92757669837354
30
0
11
-152.30249671628738
21
-156.85375740378188
31
0
0
SPLINE
5
125
100
AcDbEntity
8
0
100
AcDbSpline
70
0
71
3
72
20
73
16
74
0
42
0.000000001
43
0.0000000001
44
0.0000000001
40
0.017841075646117657
40
0.017841075646117657
40
0.017841075646117657
40
0.017841075646117657
40
0.2146978329283169
40
0.2146978329283169
40
0.2146978329283169
40
0.42939607083923043
40
0.42939607083923043
40
0.42939607083923043
40
0.64408529733019138
40
0.64408529733019138
40
0.64408529733019138
40
0.85877071030352148
40
0.85877071030352148
40
0.85877071030352148
40
0.98797863114328199
40
0.98797863114328199
40
0.98797863114328199
40
0.98797863114328199
10
-152.30249671628738
20
-156.85375740378188
30
0
10
-152.27660731701673
20
-157.11320346303805
30
0
10
-152.2475783011983
20
-157.28033160005018
30
0
10
-152.22409684834329
20
-157.3530873760503
30
0
10
-152.19848722934341
20
-157.43243713838862
30
0
10
-152.13883356706302
20
-157.5466280894062
30
0
10
-152.0505444648592
20
-157.65556484201153
30
0
10
-151.96225906836912
20
-157.76449702226981
30
0
10
-151.85865529279891
20
-157.85657051012299
30
0
10
-151.74241593340295
20
-157.93012550834288
30
0
10
-151.62617863876281
20
-158.00367920000792
30
0
10
-151.50497506296841
20
-158.05097706914557
30
0
10
-151.41356729664449
20
-158.06960951427376
30
0
10
-151.35855374322344
20
-158.08082340841699
30
0
10
-151.24592144952405
20
-158.09333743884491
30
0
10
-151.0759733197352
20
-158.10468258995306
30
0
0
LINE
5
126
100
AcDbEntity
8
0
100
AcDbLine
10
-151.07597331973517
20
-158.10468258995306
30
0
11
-11.199210119154905
21
-158.10468258995306
31
0
0
SPLINE
5
127
100
AcDbEntity
8
0
100
AcDbSpline
70
0
71
3
72
20
73
16
74
0
42
0.000000001
43
0.0000000001
44
0.0000000001
40
0.017841075617390519
40
0.017841075617390519
40
0.017841075617390519
40
0.017841075617390519
40
0.21469783292127859
40
0.21469783292127859
40
0.21469783292127859
40
0.42939607081980491
40
0.42939607081980491
40
0.42939607081980491
40
0.64408529731324926
40
0.64408529731324926
40
0.64408529731324926
40
0.85877071029135577
40
0.85877071029135577
40
0.85877071029135577
40
0.98797863110020645
40
0.98797863110020645
40
0.98797863110020645
40
0.98797863110020645
10
-11.199210119154897
20
-158.10468258995306
30
0
10
-10.939764059840398
20
-158.07879319066606
30
0
10
-10.77263592278153
20
-158.04976417483962
30
0
10
-10.699880146747267
20
-158.02628272197245
30
0
10
-10.620530384384805
20
-158.00067310296353
30
0
10
-10.506339433364031
20
-157.94101944068015
30
0
10
-10.397402680763213
20
-157.85273033848489
30
0
10
-10.288470500501594
20
-157.764444941997
30
0
10
-10.196397012636025
20
-157.66084116642088
30
0
10
-10.122842014394129
20
-157.54460180700104
30
0
10
-10.049288322706529
20
-157.42836451233592
30
0
10
-10.001990453578413
20
-157.30716093655565
30
0
10
-9.9833580084690876
20
-157.21575317031221
30
0
10
-9.9721441143401801
20
-157.16073961695426
30
0
10
-9.959630083921871
20
-157.04810732332444
30
0
10
-9.9482849328337064
20
-156.87815919361267
30
0
0
LINE
5
128
100
AcDbEntity
8
0
100
AcDbLine
10
-9.9482849328337064
20
-156.87815919361267
30
0
11
-9.9482849357383785
21
-147.9275766980771
31
0
0
ARC
5
129
100
AcDbEntity
8
0
100
AcDbCircle
10
-1.6253908274774398
20
-147.9275766980771
30
0
40
8.3228941082608543
210
0
220
-0
230
1
100
AcDbArc
50
89.99999999992788
51
180
0
ARC
5
130
100
AcDbEntity
8
0
100
AcDbCircle
10
-1.6253908274774442
20
-138.42757669887715
30
0
40
1.177105890939103
210
0
220
0
230
1
100
AcDbArc
50
270.00000000051017
51
360
0
LINE
5
131
100
AcDbEntity
8
0
100
AcDbLine
10
-0.44828493653834134
20
-138.42757669888587
30
0
11
-0.4482849358274521
21
-66.427576699927101
31
0
0
ARC
5
132
100
AcDbEntity
8
0
100
AcDbCircle
10
-1.6253908274774798
20
-66.427576699927101
30
0
40
1.1771058916500277
210
-0
220
0
230
1
100
AcDbArc
50
0
51
90.000000001665327
0
ARC
5
133
100
AcDbEntity
8
0
100
AcDbCircle
10
-1.6253908274774815
20
-56.927576700727073
30
0
40
8.3228941082608614
210
0
220
0
230
1
100
AcDbArc
50
180
51
269.9999999997645
0
LWPOLYLINE
5
134
100
AcDbEntity
8
0
100
AcDbPolyline
90
4
70
1
43
0.0
10
-49.387591719445098
20
-71.854682589952986
10
-49.387591719445098
20
-60.854682589952979
10
-57.887591719445091
20
-60.854682589952979
10
-57.887591719445091
20
-71.854682589952986
0
LWPOLYLINE
5
135
100
AcDbEntity
8
0
100
AcDbPolyline
90
4
70
1
43
0.0
10
-58.987591719445106
20
-73.154682589953026
10
-58.987591719445092
20
-59.654682589953019
10
-67.487591719445078
20
-59.654682589953019
10
-67.487591719445106
20
-73.154682589953026
0
LWPOLYLINE
5
136
100
AcDbEntity
8
0
100
AcDbPolyline
90
4
70
1
43
0.0
10
-71.737591719445064
20
-65.104682589953029
10
-71.737591719445064
20
-56.604682589953029
10
-106.73759171944509
20
-56.60468258995305
10
-106.73759171944509
20
-65.104682589953029
0
LWPOLYLINE
5
137
100
AcDbEntity
8
0
100
AcDbPolyline
90
4
70
1
43
0.0
10
-102.38759171944514
20
-69.354682589953157
10
-110.88759171944515
20
-69.354682589953157
10
-110.88759171944511
20
-92.8546825899532
10
-102.38759171944514
20
-92.8546825899532
0
CIRCLE
5
138
100
AcDbEntity
8
0
100
AcDbCircle
10
-52.137591719445062
20
-57.604682589952994
30
0
40
1.5500000000000025
210
0
220
0
230
1
0
CIRCLE
5
139
100
AcDbEntity
8
0
100
AcDbCircle
10
-110.13759171944507
20
-57.604682589952994
30
0
40
1.5499999999999934
210
0
220
0
230
1
0
ENDSEC
0
SECTION
2
OBJECTS
0
DICTIONARY
5
C
100
AcDbDictionary
3
ACAD_GROUP
350
D
3
ACAD_MLINESTYLE
350
17
0
DICTIONARY
5
D
100
AcDbDictionary
0
DICTIONARY
5
1A
330
C
100
AcDbDictionary
0
DICTIONARY
5
17
100
AcDbDictionary
0
ENDSEC
0
EOF
